<?xml version="1.0" standalone="no"?>
<!DOCTYPE svg PUBLIC "-//W3C//DTD SVG 20010904//EN"
 "http://www.w3.org/TR/2001/REC-SVG-20010904/DTD/svg10.dtd">
<svg version="1.0" xmlns="http://www.w3.org/2000/svg"
 width="301.000000pt" height="301.000000pt" viewBox="0 0 301.000000 301.000000"
 preserveAspectRatio="xMidYMid meet">
<metadata>
Created by potrace 1.11, written by Peter Selinger 2001-2013
</metadata>
<g transform="translate(0.000000,301.000000) scale(0.100000,-0.100000)"
fill="#000000" stroke="none">
<path d="M75 2910 c-11 -4 -31 -20 -45 -35 l-25 -27 -3 -1381 -2 -1382 1502
-1 1503 0 -1 1370 c-1 1524 4 1416 -68 1450 -38 18 -64 20 -98 7 -13 -5 -318
-304 -679 -665 l-657 -656 -655 655 c-360 360 -667 659 -682 665 -31 12 -62
12 -90 0z m729 -1079 l470 -470 -471 -470 c-259 -259 -473 -471 -475 -471 -3
0 -5 423 -5 940 0 517 3 940 6 940 3 0 217 -211 475 -469z"/>
</g>
</svg>
