<?xml version="1.0" encoding="UTF-8"?>
<svg width="184px" height="184px" viewBox="0 0 184 184" version="1.1" xmlns="http://www.w3.org/2000/svg" xmlns:xlink="http://www.w3.org/1999/xlink">
    <title>icon1</title>
    <defs>
        <polygon id="path-1" points="0.5 0 109.5 0 109.5 108 0.5 108"></polygon>
    </defs>
    <g id="Page-1" stroke="none" stroke-width="1" fill="none" fill-rule="evenodd">
        <g id="icon1">
            <path d="M92,0 C14.234,0 0,37.189 0,91.997 C0,146.811 14.234,184 92,184 C169.772,184 184,146.811 184,91.997 C184,37.19 169.772,0 92,0" id="Path" fill="#7AABCA" fill-rule="nonzero" opacity="0.2"></path>
            <g id="Group-3" transform="translate(35.500000, 37.000000)">
                <mask id="mask-2" fill="white">
                    <use xlink:href="#path-1"></use>
                </mask>
                <g id="Clip-2"></g>
                <path d="M101.436709,46.7061304 C101.079997,44.4121585 98.9265189,42.8388061 96.6349198,43.2015179 C94.3421197,43.5582245 92.7723503,45.7080725 93.1302626,48.0020443 C93.4365297,49.9717374 93.5926659,51.9894718 93.5926659,54 C93.5926659,75.2798917 76.2807641,92.5927734 54.9993995,92.5927734 C33.720437,92.5927734 16.4073341,75.2798917 16.4073341,54 C16.4073341,32.7201083 33.720437,15.4072266 54.9993995,15.4072266 C63.8439149,15.4072266 72.3137034,18.4134107 79.147665,23.9081338 L72.1107264,30.9437815 C67.1792244,27.2830348 61.1895994,25.2773107 54.9993995,25.2773107 C39.1611832,25.2773107 26.2763432,38.161986 26.2763432,54 C26.2763432,69.838014 39.1611832,82.7226893 54.9993995,82.7226893 C68.5844503,82.7226893 80.4195745,73.0759972 83.1399476,59.785373 C83.6047531,57.5094166 82.1394749,55.2887077 79.8646905,54.8239082 C77.5863029,54.3531035 75.3679678,55.8255692 74.9031623,58.0979225 C72.9802849,67.4960008 64.6089823,74.3154627 54.9993995,74.3154627 C43.7972274,74.3154627 34.6836773,65.202029 34.6836773,54 C34.6836773,42.797971 43.7972274,33.6845373 54.9993995,33.6845373 C58.9568517,33.6845373 62.7905961,34.8543429 66.0682553,36.9861754 L57.8218616,45.2336647 C56.9318853,44.947819 55.9842586,44.7892827 54.9993995,44.7892827 C49.9129624,44.7892827 45.7885645,48.9136279 45.7885645,54 C45.7885645,59.0875731 49.9129624,63.2107173 54.9993995,63.2107173 C60.0870376,63.2107173 64.2102345,59.0875731 64.2102345,54 C64.2102345,53.0151535 64.0528972,52.0687399 63.7670479,51.1787749 L98.4641155,16.4821506 C100.105948,14.8403394 100.105948,12.1788516 98.4641155,10.5370403 C96.8234843,8.89763116 94.1619626,8.89643012 92.5189293,10.5370403 L85.1252795,17.9305957 C76.681914,10.8673243 66.0790647,7 54.9993995,7 C29.0843928,7 8,28.0841234 8,54 C8,79.9158766 29.0843928,101 54.9993995,101 C80.9168083,101 102,79.9158766 102,54 C102,51.5571001 101.811436,49.103391 101.436709,46.7061304" id="Fill-1" fill="#7BACCB" mask="url(#mask-2)"></path>
            </g>
        </g>
    </g>
</svg>