<svg width="184" height="184" xmlns="http://www.w3.org/2000/svg"><g fill="none" fill-rule="evenodd"><path d="M92 0C14.234 0 0 37.189 0 91.997 0 146.811 14.234 184 92 184c77.772 0 92-37.189 92-92.003C184 37.19 169.772 0 92 0" fill="#7AABCA" opacity=".2"/><path d="M99.751 55.2H83.329a5.475 5.475 0 0 0-5.474 5.474v16.422a5.475 5.475 0 0 0 5.474 5.474h16.422a5.475 5.475 0 0 0 5.474-5.474V60.674a5.475 5.475 0 0 0-5.474-5.474zm-27.37 9.58H57.883c-1.625-4.01-5.544-6.843-10.135-6.843-6.045 0-10.948 4.9-10.948 10.948 0 6.047 4.903 10.948 10.948 10.948 4.591 0 8.51-2.833 10.135-6.843h13.64c-9.472 5.563-16.399 14.938-18.739 26.002h8.45c1.934-7.118 6.29-13.208 12.153-17.373a10.824 10.824 0 0 1-1.006-4.523V64.779zm-8.211 39.686H47.748a5.475 5.475 0 0 0-5.474 5.474v16.422a5.475 5.475 0 0 0 5.474 5.474H64.17a5.475 5.475 0 0 0 5.474-5.474V109.94a5.475 5.475 0 0 0-5.474-5.474zm71.162-46.529c-4.591 0-8.51 2.833-10.135 6.843h-14.498v12.316c0 1.617-.375 3.14-1.006 4.523 5.862 4.165 10.22 10.255 12.152 17.373h8.45c-2.34-11.064-9.266-20.439-18.737-26.002h13.639c1.625 4.01 5.544 6.843 10.135 6.843 6.045 0 10.948-4.9 10.948-10.948 0-6.047-4.903-10.948-10.948-10.948zm0 46.529H118.91a5.475 5.475 0 0 0-5.474 5.474v16.422a5.475 5.475 0 0 0 5.474 5.474h16.422a5.475 5.475 0 0 0 5.474-5.474V109.94a5.475 5.475 0 0 0-5.474-5.474z" fill="#7BACCB" fill-rule="nonzero"/></g></svg>