<svg xmlns="http://www.w3.org/2000/svg" viewBox="0 0 280.73 714.45"><defs><style>.cls-1,.cls-3,.cls-4{fill:#fff;}.cls-2{fill:#010101;}.cls-3,.cls-4,.cls-5,.cls-6,.cls-7{stroke:#010101;}.cls-3{stroke-miterlimit:10;}.cls-3,.cls-5{stroke-width:5px;}.cls-4,.cls-5,.cls-6,.cls-7{stroke-linejoin:round;}.cls-4,.cls-6,.cls-7{stroke-width:4px;}.cls-5,.cls-6{fill:#294874;}.cls-7{fill:none;}</style></defs><title>Asset 1</title><g id="Layer_2" data-name="Layer 2"><g id="Layer_1-2" data-name="Layer 1"><path class="cls-1" d="M58.27,693.44c-1.51,12.08,5.28,16.14,16.5,17.71,9.66,1.35,20.81,1.48,29.49-3.49,8.48-4.85,14.67-13.13,21-20.38,7.61-8.75,11.59-15.88,8-27.73Z"/><path class="cls-2" d="M55.77,693.44A19.63,19.63,0,0,0,57.07,704a14.12,14.12,0,0,0,6.14,6.37,29.9,29.9,0,0,0,9.73,3,76,76,0,0,0,13.64,1.06,43.65,43.65,0,0,0,13.56-2.2A38.42,38.42,0,0,0,112.31,705a88.09,88.09,0,0,0,9.41-9.71c3-3.45,6-6.86,8.78-10.47a31,31,0,0,0,5.93-11.56,27.87,27.87,0,0,0-.78-14.32A2.54,2.54,0,0,0,132,657.4l-25.39,11.47-40.4,18.26L57,691.28a2.52,2.52,0,0,0-.9,3.42,2.56,2.56,0,0,0,3.42.89l25.39-11.47,40.4-18.26,9.18-4.15-3.67-1.49a23.19,23.19,0,0,1,1,10.7,24,24,0,0,1-4,9.11,113,113,0,0,1-7.48,9.18c-2.75,3.23-5.5,6.47-8.53,9.44a41.37,41.37,0,0,1-9.67,7.34,31.56,31.56,0,0,1-11.61,3.23,63.92,63.92,0,0,1-12.75-.2,42.83,42.83,0,0,1-9.64-1.94,15.86,15.86,0,0,1-3.77-1.93,9.81,9.81,0,0,1-2.33-2.5,8,8,0,0,1-.75-1.55,15.35,15.35,0,0,1-.56-2.22,22.16,22.16,0,0,1,.07-5.44,2.51,2.51,0,0,0-2.5-2.5A2.56,2.56,0,0,0,55.77,693.44Z"/><path class="cls-3" d="M96,650.26c-7.24,8.7-14.8,16.58-24,23.24-4.91,3.57-11,8.44-13,14.42-2.75,8.28,5.26,12.15,12,14.17a45.23,45.23,0,0,0,27.71-.61c9.62-3.34,15-9.69,21.83-16.69,3-3,7.16-5.14,9.3-8.82,3-5.17,4.3-13.23,2.61-19C128.45,643,106.49,648,96,650.26Z"/><path class="cls-1" d="M88.82,658.88a46.56,46.56,0,0,0,7.18-.07,12,12,0,0,1,6.93,1.49,3.6,3.6,0,0,1,1.61,1.94"/><path class="cls-2" d="M88.82,661.38c2.82.34,5.64-.16,8.47-.07a8.53,8.53,0,0,1,3.14.52l.48.18c-.21-.08-.18-.06.09.07l.67.38c.23.17.26.18.06,0,.12.11.23.21.34.33-.13-.21-.12-.19,0,0s.14.27,0,0a2.5,2.5,0,0,0,4.82-1.33c-1.15-3.52-5-4.83-8.36-5.19s-6.52.38-9.77,0a2.49,2.49,0,0,0-2.5,2.5,2.57,2.57,0,0,0,2.5,2.5Z"/><path class="cls-1" d="M81.37,666c1.63,0,15.13-1.54,16.85,3.21"/><path class="cls-2" d="M81.37,668.48c2.65,0,5.29-.3,7.95-.19l1.33.08.7.07c.16,0,1,.13.21,0A16.93,16.93,0,0,1,94,669l.58.19.28.1-.2-.08.84.45c.55.32-.25-.28,0,0a2.81,2.81,0,0,0,.35.34c.28.24-.31-.56,0,0,.1.19.3.71,0-.07a2.58,2.58,0,0,0,3.08,1.75,2.52,2.52,0,0,0,1.74-3.08c-1.2-3.1-4.31-4.36-7.4-4.84a45,45,0,0,0-9.13-.34c-.91,0-1.82.15-2.73.14a2.5,2.5,0,0,0,0,5Z"/><path class="cls-1" d="M74.5,672.36A27.3,27.3,0,0,1,95,676.5"/><path class="cls-2" d="M75.17,674.77a25.56,25.56,0,0,1,18.58,3.89,2.5,2.5,0,0,0,2.53-4.32A30.84,30.84,0,0,0,73.84,670,2.52,2.52,0,0,0,72.09,673a2.56,2.56,0,0,0,3.08,1.75Z"/><path class="cls-1" d="M247.43,693.44c1.51,12.08-5.28,16.14-16.51,17.71-9.65,1.35-20.8,1.48-29.48-3.49s-14.61-13.06-21-20.38c-7.61-8.75-11.6-15.88-8-27.73"/><path class="cls-2" d="M244.93,693.44a22.89,22.89,0,0,1,.11,5.1,16.66,16.66,0,0,1-.33,1.68,8.38,8.38,0,0,1-.55,1.57,12.91,12.91,0,0,1-.94,1.56c-.17.23,0,0,0,0-.1.13-.21.25-.31.37s-.49.53-.76.78a11.71,11.71,0,0,1-2.92,1.91,31.48,31.48,0,0,1-8.66,2.31,69.42,69.42,0,0,1-12.31.73,38,38,0,0,1-12-2.21,33.16,33.16,0,0,1-10.2-6.49,92.13,92.13,0,0,1-8.73-9.16c-2.65-3.1-5.41-6.15-7.91-9.37a27.61,27.61,0,0,1-5.3-10,22.52,22.52,0,0,1,.7-12c.92-3.09-3.91-4.41-4.82-1.33A28.84,28.84,0,0,0,169,671.77a27,27,0,0,0,4.41,10.49,118.17,118.17,0,0,0,8.34,10.34,129.89,129.89,0,0,0,9.19,10.14,43.41,43.41,0,0,0,11.05,8,39.51,39.51,0,0,0,13.84,3.51,65.24,65.24,0,0,0,13.54-.42,41.17,41.17,0,0,0,10.74-2.4,15.8,15.8,0,0,0,8-6.49c2-3.47,2.26-7.63,1.8-11.52a2.57,2.57,0,0,0-2.5-2.5,2.51,2.51,0,0,0-2.5,2.5Z"/><path class="cls-3" d="M209.66,650.26c7.24,8.7,14.8,16.58,24,23.24,4.92,3.57,11,8.44,13,14.42,2.74,8.28-5.27,12.15-12,14.17a45.26,45.26,0,0,1-27.72-.61c-9.62-3.34-15-9.69-21.82-16.69-2.95-3-7.16-5.14-9.3-8.82-3-5.17-4.3-13.23-2.61-19C177.25,643,199.2,648,209.66,650.26Z"/><path class="cls-1" d="M216.88,658.88a46.53,46.53,0,0,1-7.18-.07,12,12,0,0,0-6.93,1.49,3.56,3.56,0,0,0-1.61,1.94"/><path class="cls-2" d="M216.88,656.38c-3.25.39-6.52-.33-9.77,0s-7.21,1.67-8.36,5.19a2.51,2.51,0,0,0,1.74,3.07,2.55,2.55,0,0,0,3.08-1.74c-.13.23-.12.22,0,0s.17-.26,0,0a3.55,3.55,0,0,1,.34-.33c-.17.13-.18.14,0,0s.51-.3.76-.45.31-.15.1-.07l.48-.18a8.47,8.47,0,0,1,3.13-.52c2.83-.09,5.65.41,8.48.07a2.56,2.56,0,0,0,2.5-2.5c0-1.22-1.11-2.67-2.5-2.5Z"/><path class="cls-1" d="M224.32,666c-1.62,0-15.12-1.54-16.85,3.21"/><path class="cls-2" d="M224.32,663.48c-2.09,0-4.18-.24-6.27-.23a23.41,23.41,0,0,0-9.46,1.57,6.61,6.61,0,0,0-3.53,3.7,2.5,2.5,0,1,0,4.82,1.33c-.3.78-.09.26,0,.07.27-.53-.32.27,0,0a3.73,3.73,0,0,0,.35-.34c.26-.27-.55.33,0,0l.85-.45-.2.08.28-.1.58-.19a16.93,16.93,0,0,1,2.43-.51c-.76.12.05,0,.2,0l.71-.07,1.33-.08c2.66-.11,5.29.21,7.94.19a2.55,2.55,0,0,0,2.5-2.5,2.52,2.52,0,0,0-2.5-2.5Z"/><path class="cls-1" d="M231.19,672.36a27.28,27.28,0,0,0-20.51,4.14"/><path class="cls-2" d="M231.86,670a30.84,30.84,0,0,0-22.44,4.39,2.56,2.56,0,0,0-.9,3.42,2.52,2.52,0,0,0,3.42.9,25.6,25.6,0,0,1,18.59-3.89,2.58,2.58,0,0,0,3.08-1.75,2.51,2.51,0,0,0-1.75-3.07Z"/><polygon class="cls-4" points="128.87 107.3 128.87 143.51 156.88 172.88 174.08 138.52 174.08 105.82 128.87 107.3"/><path class="cls-1" d="M184.17,69.36c0-3.62,0-7.24,0-10.85,0-3.13,1.56-11.63,0-14.39s-8.18-2.73-11.76-3.41c-18.63-3.55-41.83-4.05-60.46-7.59-.68,14.05-1.08,25.43,1.57,39.14-5.14-1-9.89.21-7.62,9.3,2.48,9.89,6.8,11.93,10.12,11.81,1.76,8.06,5,15.8,10.25,21.83,14.84,17.06,42.68,13.25,52.37-6.89a56.27,56.27,0,0,0,4.94-18.09c3.16-.3,6.93-2.8,9.17-11.78C195.18,68.78,189.66,68,184.17,69.36Z"/><path class="cls-2" d="M123.83,60.44a19.33,19.33,0,0,1,12.33,1.39,2,2,0,0,0,2.6-.68,1.91,1.91,0,0,0-.68-2.6,23.61,23.61,0,0,0-15.26-1.77,1.9,1.9,0,1,0,1,3.66Z"/><path class="cls-2" d="M158.86,60.42A21.77,21.77,0,0,1,172.18,58a1.91,1.91,0,0,0,1.9-1.9,2,2,0,0,0-1.9-1.9,25.32,25.32,0,0,0-15.24,2.89,1.9,1.9,0,0,0,1.92,3.29Z"/><path class="cls-2" d="M129.07,75.94a5.34,5.34,0,0,0,2,0,2.93,2.93,0,0,0,.78-.1,3.48,3.48,0,0,0,1.91-1.41,3.35,3.35,0,0,0-.64-4.24,3.27,3.27,0,0,0-.84-.59,4,4,0,0,0-1.52-.4,4.13,4.13,0,0,0-2.17.52A4.36,4.36,0,0,0,127,71.32a3.19,3.19,0,0,0-.44,1.51,3.08,3.08,0,0,0,.38,1.48A3.4,3.4,0,0,0,129.07,75.94Z"/><path class="cls-2" d="M168.81,69.08a3.44,3.44,0,0,0-.58-.78,3.82,3.82,0,0,0-.78-.61,4.14,4.14,0,0,0-2-.57,5.11,5.11,0,0,0-.55,0,4.51,4.51,0,0,0-.53.1,3.18,3.18,0,0,0-1,.45,1.47,1.47,0,0,0-.53.49,4.22,4.22,0,0,1-.71.9,5.72,5.72,0,0,0-.28.68,3.78,3.78,0,0,0-.11.74,4,4,0,0,0,.07,1,4.11,4.11,0,0,0,.92,1.81,3.76,3.76,0,0,0,1.67,1.1,3.21,3.21,0,0,0,1,.17,4.4,4.4,0,0,0,.51,0,2.56,2.56,0,0,0,.54-.1,3.63,3.63,0,0,0,.94-.43,4.12,4.12,0,0,0,1.39-1.52,4,4,0,0,0,.36-1,6.06,6.06,0,0,0,.09-.73,3.39,3.39,0,0,0-.09-.78A3,3,0,0,0,168.81,69.08Z"/><path class="cls-2" d="M157.93,103.19a4.27,4.27,0,0,1-1.11,1.18,5.63,5.63,0,0,1-1.88.94A14.83,14.83,0,0,1,150,106a22.58,22.58,0,0,1-5-.48,22.22,22.22,0,0,1-2.24-.56l-.49-.16-.09,0-.07,0c-.31-.13-.62-.27-.92-.42-2.18-1.13-4,2.23-1.79,3.36a23.62,23.62,0,0,0,11.25,2.11c4-.12,8.51-1.18,10.68-4.86C162.53,102.86,159.17,101.08,157.93,103.19Z"/><path class="cls-2" d="M193,68.09a8.29,8.29,0,0,0-5.08-1.5c1.59-4.49,4.54-14.42,3.92-25.09a23.53,23.53,0,0,0-10.58-18.78l9.12-3.18s-2.9-3.44-13.73-5.64c-16.38-4.05-21.5-2.21-21.5-2.21L159.5.32c-3.05,2.18-12.08,3.59-19.7,5.82a70.86,70.86,0,0,0-11.88,4.79V0s-4,4.34-11,11.32a18.5,18.5,0,0,0-5.64,13.6,20.62,20.62,0,0,0-3.71-1.51,16.13,16.13,0,0,0-8.39-.05,1.43,1.43,0,0,0,.75,2.75,13,13,0,0,1,7.08.12,17.13,17.13,0,0,1,2.7,1.09c-2.24,1.68-5.92,6.11-5.92,17.1,0,12.09,3.06,20.32,5.89,25.35a7.46,7.46,0,0,0-4,1.44c-2.63,2-3.3,5.69-2,10.9,1.77,7.1,4.75,11.47,8.86,13a8.79,8.79,0,0,0,1.65.44c2.08,8.4,5.6,15.71,10.35,21.17a33.73,33.73,0,0,0,25.53,11.57,34.7,34.7,0,0,0,4.65-.31,33.61,33.61,0,0,0,26-18.67,57.15,57.15,0,0,0,4.94-17.17l.46-.14c4.11-1.52,7.09-5.88,8.86-13C196.28,73.78,195.61,70.12,193,68.09ZM119.47,40c2.94,9.93,17.65,11.77,17.65,11.77S131.2,43.6,132,39.56c0,0,4.39,4.81,27.92,6.64,13.2,1,19.23,9,22,15.84,0,.18,0,.37,0,.56,0,1.61,0,3.24,0,4.89a11.91,11.91,0,0,0-2.48-4.55c-2.27-2.56-5.69-4-9.88-4.23-5.86-.29-10.85,1.34-14.07,4.59a12.33,12.33,0,0,0-2.86,4.53,13.88,13.88,0,0,0-4.84-.48,16.9,16.9,0,0,0-5.36,1.17,12.33,12.33,0,0,0-3.1-4c-3.2-2.72-7.88-3.92-13.19-3.37-4.84.49-8.43,2.21-10.66,5.09-.18.23-.34.48-.5.73a.69.69,0,0,0,0-.13C116.5,47.45,119.47,40,119.47,40Zm59.22,33.47c-.47,6.77-6.46,9.84-11.86,9.84h-.09c-5.29,0-10.81-3-11.2-9.6a9.72,9.72,0,0,1,2.6-7.73c2.23-2.25,5.87-3.5,10.1-3.5l1.09,0c3.19.16,5.61,1.15,7.21,2.95S178.93,70.09,178.69,73.47ZM108.13,81c-.8-3.19-.68-5.39.35-6.18a3.77,3.77,0,0,1,2.28-.58,8.21,8.21,0,0,1,.84.05c.14.66.28,1.32.43,2a80.49,80.49,0,0,0,1.09,14C111,88.9,109.31,85.73,108.13,81Zm10.31-12.45c1.57-2,4.27-3.25,8-3.64.71-.07,1.41-.11,2.08-.11a12.62,12.62,0,0,1,8.26,2.6,9.81,9.81,0,0,1,3.26,7.22,11.31,11.31,0,0,1-.1,2.28,2.18,2.18,0,0,0-.16.76v.06c-1.1,4.71-5.41,7.27-9.82,7.73-5.52.58-12-2-13-9C116.48,73.11,117,70.45,118.44,68.55Zm58.15,38.77A29.52,29.52,0,0,1,128,113.7c-6-6.89-9.85-17.15-11-28.94a16.07,16.07,0,0,0,11.54,4.58c.63,0,1.25,0,1.87-.1a17,17,0,0,0,7-2.3,14.73,14.73,0,0,0-.51,2.63c-.31,3.21,1.37,6.61,4.58,7.52a23.28,23.28,0,0,0,7.35.62,21.19,21.19,0,0,0,7.91-1.59,5.61,5.61,0,0,0,2.73-2.38,4.38,4.38,0,0,0-.19-4.18c-1.16-2.16-4.44-.24-3.29,1.92.05.1.09.19.14.28h0c-.26-.51-.07-.07,0,0a.33.33,0,0,1,0,.14.15.15,0,0,0,0,.06L156,92s0,0,0,0h0l-.3.27-.3.19-.62.31h0l-.31.11-.71.22a14.84,14.84,0,0,1-1.63.38c-.27.06-.55.1-.83.14l-.06,0h0l-.32,0c-.64.07-1.27.12-1.91.15a30.19,30.19,0,0,1-3.43,0c-.45,0-.9-.07-1.35-.12l-.45-.06c-.27,0-.54-.1-.81-.16s-.62-.2-.93-.27l-.07,0c-.07-.18-.52-.52-.63-.67a3.47,3.47,0,0,1-.46-.9,4.06,4.06,0,0,1-.17-2,26.22,26.22,0,0,1,1.59-5.43,22.33,22.33,0,0,0,1.38-5.86,14.77,14.77,0,0,0,.29-4c0-.5-.08-1-.15-1.48a12,12,0,0,1,4.28-1,8.26,8.26,0,0,1,3.71.46c0,.51,0,1,0,1.56.52,9,8.13,13.14,15,13.18h.1c6.45,0,13.19-3.54,15.14-10.38C182,87.51,181.12,97.9,176.59,107.32Zm13.95-29.43c-1,4.22-2.53,7.19-4.33,8.77.37-5,.36-10.2.26-15.41,1.61-.22,2.95-.13,3.72.46C191.22,72.5,191.34,74.7,190.54,77.89Z"/><path class="cls-2" d="M151.17,363.45H81.08L93.7,650.77s13.93,5.24,18.81,6c4.7.73,19,0,19,0s5.61-224,19.65-224,19.65,224,19.65,224h17.07c5.19,0,20.75-6,20.75-6l12.61-287.32Z"/><path class="cls-4" d="M231.61,277s-12.25,61.82-13.47,77.56-9.13,19.7-9.13,19.7-4.79,18.91,5,32.68,19.23-42.85,19.23-42.85,30.78-41.84,37.12-82.61C276.71,240.43,231.61,277,231.61,277Z"/><path class="cls-5" d="M277.77,262.9c-.94-2.37-8.21-6-8.21-6s-8.42-45-10.63-68.14c-2.26-23.57-40.87-40.46-40.87-40.46-9-5.26-22.91-6.21-23.88-9.79-1.45-5.32-19.33-25.13-19.33-13.53s-23.68,39.62-23.68,39.62-23.68-28-23.68-39.62-17.88,8.21-19.33,13.53c-1.19,4.36-21.65,4.82-28.91,14h0L60.81,164.13c-.49-3.39-9.67-3.39-19.82-2.9-5,.24-23.78,14.73-30.06,29.39-6.48,15.14-7,23.26-4.38,30.47,3.84,10.69,20.43,10.69,29.13,10.69.79,0,5.65-.54,6.55-1.5,3.77-2.1,7.23-5.8,14.86-7.07,11-1.84,21.75-.87,22,6.62v0c1.91,60.93,3.44,142-2.34,163.19,0,0,52.08,19.92,66.64,11.34,5.09-3,7.82-22.33,7.82-22.33s1.8,22.18,7.82,24.33c15.11,5.38,53.84-34.89,53.84-34.89,3.87-8.8,9.19-11.91,8.85-41.21-.37-32.5.24-71.06,1.08-101.53,2.51,9.28,4.21,36.45,2.87,37.81C222.29,270,221.71,299,229,293.09s44.45-6.71,44.45-6.71S280,268.44,277.77,262.9Z"/><path class="cls-4" d="M97.05,87.43c-2.3-5.17-11,4.46-13.36,5.95-2.15,1.36-5.49,1.65-4.28-5.95s9.36-38.31,3.87-38.31c-3.39,0-11.84,29.66-11.84,29.66s6-39.81,0-39.81c-4.38,0-8.94,38.58-8.94,38.58s0-33.75-4.11-33.75C52.28,43.8,54.28,83,54.28,83S48.9,62,45.28,62.54c-4.9.83,4.74,48.75,4.74,48.75s-19,28.06-26.66,39c-8.76,12.54-36.59,56.48-10.39,64,13.21,3.78,21.58-4.42,28-20.85s32.86-77.31,32.86-77.31l6-5.83C90.55,105.41,99.08,92,97.05,87.43Z"/><path class="cls-6" d="M108.16,138.52s12.33,26.47,23.61,30.82l4.72-13.91,14.68,12.18-1,32.71,1,46.39-1,46.07,2,47-1,42.25"/><path class="cls-6" d="M194.18,138.52s-13.4,27.44-21,30.34l-5.57-13.67-16.43,12.42"/><path class="cls-1" d="M164.73,222.27a3.44,3.44,0,0,0-.58-.78,3.82,3.82,0,0,0-.78-.61,4.1,4.1,0,0,0-2-.57,3.43,3.43,0,0,0-.55.06,3.26,3.26,0,0,0-.53.09,3.12,3.12,0,0,0-1,.45,1.5,1.5,0,0,0-.54.49,1.59,1.59,0,0,0-.22.35,1.36,1.36,0,0,0-.49.55c-.09.22-.2.45-.27.68a4.57,4.57,0,0,0-.12.74,3.91,3.91,0,0,0,.08,1,4.15,4.15,0,0,0,.34.95,4,4,0,0,0,2.24,2,3.51,3.51,0,0,0,1,.16,2.12,2.12,0,0,0,.5-.05,2.35,2.35,0,0,0,.54-.1,3.33,3.33,0,0,0,.94-.43,3.6,3.6,0,0,0,.79-.67,3.88,3.88,0,0,0,.6-.84,4,4,0,0,0,.36-1,5.82,5.82,0,0,0,.09-.73,4,4,0,0,0-.09-.77A3.19,3.19,0,0,0,164.73,222.27Z"/><path class="cls-1" d="M164.73,267.48a3.68,3.68,0,0,0-.58-.78,3.77,3.77,0,0,0-.78-.6,4,4,0,0,0-2-.57,3.41,3.41,0,0,0-.55.05,3.26,3.26,0,0,0-.53.09,3.4,3.4,0,0,0-1,.46,1.42,1.42,0,0,0-.54.49,1.52,1.52,0,0,0-.22.34,1.43,1.43,0,0,0-.49.55c-.09.22-.2.45-.27.68a4.75,4.75,0,0,0-.12.74,3.91,3.91,0,0,0,.08,1,4,4,0,0,0,.34.95,3.89,3.89,0,0,0,2.24,2,3.52,3.52,0,0,0,1,.17,4.23,4.23,0,0,0,.5,0,4.32,4.32,0,0,0,.54-.1,3.66,3.66,0,0,0,.94-.44,3.85,3.85,0,0,0,.79-.66,4.21,4.21,0,0,0,.6-.85,3.92,3.92,0,0,0,.36-1,6.06,6.06,0,0,0,.09-.73,4.05,4.05,0,0,0-.09-.78A3.3,3.3,0,0,0,164.73,267.48Z"/><path class="cls-1" d="M164.73,312.7a3.5,3.5,0,0,0-.58-.79,4.15,4.15,0,0,0-.78-.6,4,4,0,0,0-2-.57,5.11,5.11,0,0,0-.55.05,3.29,3.29,0,0,0-.53.1,3.12,3.12,0,0,0-1,.45,1.42,1.42,0,0,0-.54.49,1.52,1.52,0,0,0-.22.34,1.39,1.39,0,0,0-.49.56,6.87,6.87,0,0,0-.27.68,4.45,4.45,0,0,0-.12.73,3.87,3.87,0,0,0,.08,1,4.06,4.06,0,0,0,.34,1,4,4,0,0,0,.58.85,3.73,3.73,0,0,0,1.66,1.1,3.21,3.21,0,0,0,1,.17,4.23,4.23,0,0,0,.5-.05,2.35,2.35,0,0,0,.54-.1,3.63,3.63,0,0,0,.94-.43,4.12,4.12,0,0,0,1.39-1.52,3.78,3.78,0,0,0,.36-1,6.06,6.06,0,0,0,.09-.73,4.05,4.05,0,0,0-.09-.78A3.13,3.13,0,0,0,164.73,312.7Z"/><path class="cls-1" d="M164.73,357.91a3.44,3.44,0,0,0-.58-.78,3.82,3.82,0,0,0-.78-.61,4.1,4.1,0,0,0-2-.57,5.11,5.11,0,0,0-.55.05,4.94,4.94,0,0,0-.53.1,3.12,3.12,0,0,0-1,.45,1.5,1.5,0,0,0-.54.49,1.59,1.59,0,0,0-.22.35,1.36,1.36,0,0,0-.49.55,6.87,6.87,0,0,0-.27.68,4.57,4.57,0,0,0-.12.74,3.91,3.91,0,0,0,.08,1,4.15,4.15,0,0,0,.34.95,3.76,3.76,0,0,0,.58.85,3.65,3.65,0,0,0,1.66,1.1,3.21,3.21,0,0,0,1,.17,2.12,2.12,0,0,0,.5-.05,2.35,2.35,0,0,0,.54-.1,3.78,3.78,0,0,0,1.73-1.1,4.15,4.15,0,0,0,.6-.84,4,4,0,0,0,.36-1,5.82,5.82,0,0,0,.09-.73,4,4,0,0,0-.09-.77A3.19,3.19,0,0,0,164.73,357.91Z"/><path class="cls-1" d="M164.73,177.06a3.5,3.5,0,0,0-.58-.79,4.15,4.15,0,0,0-.78-.6,4.1,4.1,0,0,0-2-.57,5.11,5.11,0,0,0-.55.05,3.29,3.29,0,0,0-.53.1,3.12,3.12,0,0,0-1,.45,1.42,1.42,0,0,0-.54.49,1.38,1.38,0,0,0-.22.35,1.3,1.3,0,0,0-.49.55,6.87,6.87,0,0,0-.27.68,4.45,4.45,0,0,0-.12.73,3.87,3.87,0,0,0,.08,1,4.06,4.06,0,0,0,.34,1,4,4,0,0,0,.58.85,3.73,3.73,0,0,0,1.66,1.1,3.21,3.21,0,0,0,1,.17,4.23,4.23,0,0,0,.5,0,2.35,2.35,0,0,0,.54-.1,3.63,3.63,0,0,0,.94-.43,4.25,4.25,0,0,0,.79-.67,4,4,0,0,0,.6-.85,3.78,3.78,0,0,0,.36-1,6.06,6.06,0,0,0,.09-.73,4.15,4.15,0,0,0-.09-.78A3.13,3.13,0,0,0,164.73,177.06Z"/><path class="cls-2" d="M208,196c0,8.66.06,17.73-2.1,26.18a19.42,19.42,0,0,1-2.73,6.56,5.12,5.12,0,0,1-.79,1,11.88,11.88,0,0,1-1.08,1c-.34.29,0,0-.2.16l-.6.41a11.46,11.46,0,0,1-1.29.69c-.32.15,0,0,0,0l-.42.16-.57.2c-.52.16-1,.29-1.58.4l-.71.12c-.36.06-.07,0,0,0l-.5.06c-.58.06-1.16.1-1.74.11a26.77,26.77,0,0,1-3.47-.1c-.1,0-.92-.11-.51-.05l-.66-.11a14.7,14.7,0,0,1-1.62-.39l-.66-.22-.36-.13c-.28-.11.41.19,0,0a12.64,12.64,0,0,1-1.31-.7,6.61,6.61,0,0,1-.55-.37c-.36-.24.13.14-.27-.2a12.1,12.1,0,0,1-1.1-1.05c-.17-.19-.34-.39-.5-.6.24.31-.18-.24-.24-.33a15.52,15.52,0,0,1-.89-1.47,16.68,16.68,0,0,1-1.33-3.24,51.94,51.94,0,0,1-2-11c-.51-5.69-.61-11.43-.61-17.14l-1.88,1.87,29.89,0h4.21a1.88,1.88,0,0,0,0-3.75L180,194H175.8a1.9,1.9,0,0,0-1.87,1.88c0,9.13-.07,18.75,2.29,27.64,1.29,4.85,3.74,9.68,8.55,11.78a21.91,21.91,0,0,0,14.45.63c4.92-1.52,7.88-5.5,9.53-10.21a51.64,51.64,0,0,0,2.31-11.87c.6-6,.71-12,.72-17.94A1.88,1.88,0,0,0,208,196Z"/><path class="cls-6" d="M225.63,266.57s14.13-11.28,43.93-9.66"/><path class="cls-7" d="M60.81,164.13s1.2,21.22-5.13,40.45c-3.65,11.08-14.31,28.07-21,27.2"/><path class="cls-2" d="M221.42,360.31l.78,0c.41,0,0-.05-.08,0s.33.06.38.07a6.53,6.53,0,0,1,.76.2l.37.12c.28.09.14,0,0,0a5.19,5.19,0,0,1,1.39.75,2.42,2.42,0,0,1,.64.44c-.09-.13-.28-.23,0,0l.36.32a16.87,16.87,0,0,1,2.12,2.27s.3.38.11.13.07.09.1.14l.46.63c.33.45.65.9,1,1.36l3.93-3a21.78,21.78,0,0,0-12.81-7,2.72,2.72,0,0,0-1.92.26,2.49,2.49,0,0,0-1.15,1.49c-.27,1.19.36,2.87,1.74,3.08a19,19,0,0,1,3.17.75c.27.08.53.18.79.28l.35.13c.57.22-.32-.15,0,0,.5.24,1,.47,1.5.74s.92.53,1.36.81l.69.48.3.22c.25.18-.35-.29,0,0a20.33,20.33,0,0,1,2.42,2.31,2.5,2.5,0,0,0,3.93-3,28.54,28.54,0,0,0-4.82-5.79,11.81,11.81,0,0,0-7.76-3.05,2.5,2.5,0,0,0,0,5Z"/><path class="cls-2" d="M78.83,165.79A97.61,97.61,0,0,1,80.31,185c0,7.17-1.07,14.25-1.39,21.41-.11,2.41,3.64,2.41,3.75,0,.33-7.3,1.42-14.53,1.39-21.85a101.14,101.14,0,0,0-1.62-19.73c-.48-2.36-4.09-1.36-3.61,1Z"/><path class="cls-2" d="M235.72,170.32a67.35,67.35,0,0,0-13.27,36.93c-.12,2.41,3.63,2.4,3.75,0a63.9,63.9,0,0,1,12.76-35,1.89,1.89,0,0,0-.68-2.56,1.92,1.92,0,0,0-2.56.67Z"/><path class="cls-2" d="M170.6,337.56a67.37,67.37,0,0,0,33.53,20.33c2.34.6,3.34-3,1-3.61a63.8,63.8,0,0,1-31.87-19.38c-1.61-1.8-4.26.86-2.66,2.66Z"/></g></g></svg>