<svg xmlns="http://www.w3.org/2000/svg" viewBox="0 0 250.28 719.29"><defs><style>.cls-1,.cls-3,.cls-5{fill:#fff;}.cls-2{fill:#010101;}.cls-3,.cls-5,.cls-7{stroke:#010101;}.cls-3{stroke-miterlimit:10;stroke-width:5px;}.cls-4{fill:#1c4877;}.cls-5,.cls-7{stroke-linejoin:round;stroke-width:4px;}.cls-6{fill:#7babca;}.cls-7{fill:none;stroke-linecap:round;}</style></defs><title>Asset 17</title><g id="Layer_2" data-name="Layer 2"><g id="Layer_1-2" data-name="Layer 1"><path class="cls-1" d="M29.46,698.27C28,710.35,34.74,714.42,46,716c9.66,1.34,20.81,1.48,29.49-3.49,8.48-4.86,14.67-13.13,21-20.38,7.61-8.75,11.59-15.88,8-27.73Z"/><path class="cls-2" d="M27,698.27a19.67,19.67,0,0,0,1.3,10.54,14.12,14.12,0,0,0,6.14,6.37,30.15,30.15,0,0,0,9.73,3,76.9,76.9,0,0,0,13.64,1.06,44,44,0,0,0,13.56-2.2,38.42,38.42,0,0,0,12.17-7.29,88.18,88.18,0,0,0,9.41-9.72c3-3.44,6-6.85,8.78-10.46a31,31,0,0,0,5.93-11.56,27.87,27.87,0,0,0-.78-14.32,2.55,2.55,0,0,0-3.67-1.5L77.78,673.71,37.38,692l-9.18,4.15a2.52,2.52,0,0,0-.9,3.42,2.56,2.56,0,0,0,3.42.9L56.11,689l40.4-18.26,9.18-4.15L102,665.06a23.18,23.18,0,0,1,1,10.7,24,24,0,0,1-4,9.11A111.21,111.21,0,0,1,91.5,694c-2.75,3.24-5.5,6.48-8.53,9.45a41.93,41.93,0,0,1-9.67,7.34,32,32,0,0,1-11.61,3.23,63.18,63.18,0,0,1-12.75-.21,42.81,42.81,0,0,1-9.64-1.93A15.86,15.86,0,0,1,35.53,710a10,10,0,0,1-2.33-2.5,8,8,0,0,1-.75-1.55,15.35,15.35,0,0,1-.56-2.22,22.24,22.24,0,0,1,.07-5.45,2.51,2.51,0,0,0-2.5-2.5A2.57,2.57,0,0,0,27,698.27Z"/><path class="cls-3" d="M67.23,655.09c-7.24,8.71-14.8,16.59-24,23.25-4.91,3.57-11,8.43-13,14.42-2.75,8.28,5.26,12.15,12,14.17A45.23,45.23,0,0,0,70,706.32c9.62-3.35,15-9.69,21.83-16.69,3-3,7.16-5.15,9.3-8.82,3-5.18,4.3-13.23,2.61-19C99.64,647.88,77.68,652.81,67.23,655.09Z"/><path class="cls-1" d="M60,663.71a46.55,46.55,0,0,0,7.18-.06,12,12,0,0,1,6.93,1.49,3.6,3.6,0,0,1,1.61,1.94"/><path class="cls-2" d="M60,666.21c2.82.35,5.64-.15,8.47-.06a8.53,8.53,0,0,1,3.14.52l.48.18q-.31-.12.09.06l.67.39c.23.17.26.18.06,0a3.51,3.51,0,0,1,.34.33c-.13-.21-.12-.2,0,.05s.14.27,0,0a2.5,2.5,0,0,0,4.82-1.33c-1.15-3.52-5-4.83-8.36-5.19s-6.52.38-9.77,0a2.51,2.51,0,0,0-2.5,2.5,2.56,2.56,0,0,0,2.5,2.5Z"/><path class="cls-1" d="M52.56,670.82c1.63,0,15.13-1.55,16.85,3.21"/><path class="cls-2" d="M52.56,673.32c2.65,0,5.29-.3,7.95-.19.44,0,.88,0,1.33.08l.7.06c.16,0,1,.13.21,0a16.93,16.93,0,0,1,2.43.51l.58.18.28.11-.2-.08.84.45c.55.32-.25-.29,0,0a3.76,3.76,0,0,0,.35.34c.28.24-.31-.56,0,0,.1.19.3.71,0-.07a2.58,2.58,0,0,0,3.08,1.75,2.52,2.52,0,0,0,1.74-3.08c-1.2-3.1-4.31-4.36-7.4-4.84a45,45,0,0,0-9.13-.34c-.91,0-1.82.14-2.73.14a2.5,2.5,0,0,0,0,5Z"/><path class="cls-1" d="M45.69,677.19a27.3,27.3,0,0,1,20.52,4.15"/><path class="cls-2" d="M46.36,679.61a25.56,25.56,0,0,1,18.58,3.89,2.5,2.5,0,0,0,2.53-4.32A30.89,30.89,0,0,0,45,674.78a2.54,2.54,0,0,0-1.75,3.08,2.57,2.57,0,0,0,3.08,1.75Z"/><path class="cls-1" d="M218.62,698.27c1.51,12.08-5.28,16.15-16.51,17.72-9.65,1.34-20.8,1.48-29.48-3.49s-14.61-13.07-21-20.38c-7.61-8.75-11.59-15.88-8-27.73"/><path class="cls-2" d="M216.12,698.27a23,23,0,0,1,.11,5.11c0,.26-.19,1.14-.33,1.68a8,8,0,0,1-.55,1.56,13,13,0,0,1-.94,1.57c-.17.23,0,0,0,0-.1.13-.21.25-.31.37a9.2,9.2,0,0,1-.76.77,11.72,11.72,0,0,1-2.92,1.92,31.39,31.39,0,0,1-8.66,2.31,68.48,68.48,0,0,1-12.31.72,37.94,37.94,0,0,1-12-2.2,33.16,33.16,0,0,1-10.2-6.49,92.13,92.13,0,0,1-8.73-9.16c-2.65-3.1-5.41-6.15-7.91-9.38a27.48,27.48,0,0,1-5.3-10,22.52,22.52,0,0,1,.7-12c.92-3.09-3.91-4.41-4.82-1.33a28.84,28.84,0,0,0-1.07,12.88,27,27,0,0,0,4.41,10.49,119.68,119.68,0,0,0,8.34,10.34,131.72,131.72,0,0,0,9.19,10.14,43.41,43.41,0,0,0,11,8A39.51,39.51,0,0,0,187,719.11a66.65,66.65,0,0,0,13.54-.42,41.58,41.58,0,0,0,10.74-2.4,15.8,15.8,0,0,0,8-6.49c2-3.47,2.26-7.63,1.8-11.53a2.58,2.58,0,0,0-2.5-2.5,2.51,2.51,0,0,0-2.5,2.5Z"/><path class="cls-3" d="M180.85,655.09c7.24,8.71,14.8,16.59,24,23.25,4.92,3.57,11,8.43,13,14.42,2.75,8.28-5.27,12.15-12,14.17a45.26,45.26,0,0,1-27.72-.61c-9.62-3.35-15-9.69-21.82-16.69-2.95-3-7.16-5.15-9.3-8.82-3-5.18-4.3-13.23-2.61-19C148.44,647.88,170.39,652.81,180.85,655.09Z"/><path class="cls-1" d="M188.07,663.71a46.53,46.53,0,0,1-7.18-.06,12,12,0,0,0-6.93,1.49,3.6,3.6,0,0,0-1.61,1.94"/><path class="cls-2" d="M188.07,661.21c-3.25.4-6.52-.32-9.77,0s-7.21,1.67-8.36,5.19a2.51,2.51,0,0,0,1.74,3.07,2.56,2.56,0,0,0,3.08-1.74c-.13.23-.12.21,0,0s.17-.26,0-.05a2.65,2.65,0,0,1,.34-.33c-.17.12-.18.13,0,0s.51-.3.76-.46.31-.14.1-.06l.48-.18a8.47,8.47,0,0,1,3.13-.52c2.83-.09,5.65.41,8.48.06a2.55,2.55,0,0,0,2.5-2.5c0-1.21-1.11-2.66-2.5-2.5Z"/><path class="cls-1" d="M195.51,670.82c-1.62,0-15.12-1.55-16.85,3.21"/><path class="cls-2" d="M195.51,668.32c-2.09,0-4.18-.24-6.27-.23a23.41,23.41,0,0,0-9.46,1.57,6.61,6.61,0,0,0-3.53,3.7,2.53,2.53,0,0,0,1.75,3.08,2.56,2.56,0,0,0,3.07-1.75c-.3.78-.09.26,0,.07.27-.53-.32.27,0,0,.12-.1.24-.23.35-.34.26-.28-.55.33,0,0l.84-.45-.2.08.28-.11.58-.18a16.93,16.93,0,0,1,2.43-.51c-.76.11,0,0,.2,0l.71-.06c.44,0,.89-.06,1.33-.08,2.66-.11,5.29.21,7.94.19a2.55,2.55,0,0,0,2.5-2.5,2.52,2.52,0,0,0-2.5-2.5Z"/><path class="cls-1" d="M202.38,677.19a27.29,27.29,0,0,0-20.51,4.15"/><path class="cls-2" d="M203.05,674.78a30.89,30.89,0,0,0-22.44,4.4,2.56,2.56,0,0,0-.9,3.42,2.52,2.52,0,0,0,3.42.9,25.6,25.6,0,0,1,18.59-3.89,2.58,2.58,0,0,0,3.08-1.75,2.53,2.53,0,0,0-1.75-3.08Z"/><path class="cls-4" d="M122.36,371.29H52.27L64.89,658.61s13.93,5.24,18.81,6c4.7.73,19,0,19,0s5.62-224,19.65-224,19.65,224,19.65,224h17.07c5.19,0,20.75-6,20.75-6l12.61-287.32Z"/><polygon class="cls-5" points="145.84 99.3 145.84 135.51 125.04 194.57 102.04 130.52 102.04 97.82 145.84 99.3"/><path class="cls-6" d="M102,140.5s16.61,12.47,40.22,2.44S125.6,185.2,125.6,185.2Z"/><path class="cls-5" d="M196.16,221.83h0v0c-1.91,60.93-.44,132,5.34,153.19,0,0-55.08,11.92-69.64,3.34-5.1-3-7.82-4.33-7.82-4.33s-1.8,4.18-7.82,6.33C101.11,385.77,44,373.72,44,373.72c-.2-9.1,6.24-22.13,6.58-51.43l.35-73.88L2,238.09s10.65-34.71,14.28-57.32c3.75-23.38,40.87-40.46,40.87-40.46,9-5.26,22.91-6.21,23.88-9.79,1.45-5.32,19.33-25.13,19.33-13.53,0,9.26,15.76,30.92,15.76,43,0,1.37,5.5,24.63,9.69,24.43,3.32-.15,5.53-23.47,5.62-24.59,1-11.73,16.29-33.6,16.29-42.81,0-11.6,17.88,8.21,19.33,13.53,1.19,4.36,18.06,7.1,28.91,14h0s14.74,7.65,18.44,11.66c13.51,14.64,28.08,53.42,33.88,72.13l-49.29,19Z"/><path class="cls-7" d="M167.05,130.52S154.72,157,143.44,161.34l-4.72-13.91-7.29,12.37L126,192.32l1,46.39-1,46.07v47l-1,42.25"/><path class="cls-7" d="M81,130.52s13.4,27.44,21,30.34l5.57-13.67L116.12,160"/><path class="cls-2" d="M114.48,214.27a3.17,3.17,0,0,1,.58-.78,4.05,4.05,0,0,1,.77-.61,4.14,4.14,0,0,1,2-.57,3.31,3.31,0,0,1,.54.06,3.38,3.38,0,0,1,.54.09,3.12,3.12,0,0,1,1,.45,2.1,2.1,0,0,1,.76.84,1.27,1.27,0,0,1,.48.55,5.72,5.72,0,0,1,.28.68,3.67,3.67,0,0,1,.11.74,3.9,3.9,0,0,1-.07,1,4,4,0,0,1-.92,1.8,3.75,3.75,0,0,1-1.66,1.11,3.51,3.51,0,0,1-1,.16,2.07,2.07,0,0,1-.5-.05,2.35,2.35,0,0,1-.54-.1,3.21,3.21,0,0,1-.94-.43,3.6,3.6,0,0,1-.79-.67,3.88,3.88,0,0,1-.6-.84,3.63,3.63,0,0,1-.36-1A5.82,5.82,0,0,1,114,216a3.94,3.94,0,0,1,.08-.77A3.21,3.21,0,0,1,114.48,214.27Z"/><path class="cls-2" d="M105,171.44a3.26,3.26,0,0,1,.59-.79,3.79,3.79,0,0,1,.77-.6,4,4,0,0,1,2-.57,4.93,4.93,0,0,1,.54.05,3.1,3.1,0,0,1,.53.1,3.29,3.29,0,0,1,1,.45,1.47,1.47,0,0,1,.53.49,1.56,1.56,0,0,1,.23.34,1.44,1.44,0,0,1,.48.56,4,4,0,0,1,.27.68,4.45,4.45,0,0,1,.12.73,3.49,3.49,0,0,1-.08,1,4.06,4.06,0,0,1-.34,1,4,4,0,0,1-.58.85,3.73,3.73,0,0,1-1.66,1.1,3.21,3.21,0,0,1-1,.17,4.23,4.23,0,0,1-.5,0,2.56,2.56,0,0,1-.54-.1,3.63,3.63,0,0,1-.94-.43,4.12,4.12,0,0,1-1.39-1.52,3.78,3.78,0,0,1-.36-1,6.06,6.06,0,0,1-.09-.73,5,5,0,0,1,.09-.78A3.13,3.13,0,0,1,105,171.44Z"/><path class="cls-2" d="M114.48,259.48a3.37,3.37,0,0,1,.58-.78,4,4,0,0,1,.77-.6,4,4,0,0,1,2-.57,3.29,3.29,0,0,1,.54.05,2.87,2.87,0,0,1,1.5.55,1.49,1.49,0,0,1,.54.49,1.52,1.52,0,0,1,.22.34,1.33,1.33,0,0,1,.48.55,5.72,5.72,0,0,1,.28.68,3.78,3.78,0,0,1,.11.74,3.9,3.9,0,0,1-.07,1,4,4,0,0,1-.34.95,4.19,4.19,0,0,1-.58.86,3.82,3.82,0,0,1-1.66,1.1,3.52,3.52,0,0,1-1,.17,4,4,0,0,1-.5,0,4.32,4.32,0,0,1-.54-.1,3.52,3.52,0,0,1-.94-.44,3.85,3.85,0,0,1-.79-.66,4.21,4.21,0,0,1-.6-.85,3.57,3.57,0,0,1-.36-1,6.06,6.06,0,0,1-.09-.73,4,4,0,0,1,.08-.78A3.32,3.32,0,0,1,114.48,259.48Z"/><path class="cls-2" d="M114.48,304.7a3.22,3.22,0,0,1,.58-.79,4.43,4.43,0,0,1,.77-.6,4,4,0,0,1,2-.57,4.93,4.93,0,0,1,.54.05,3.41,3.41,0,0,1,.54.1,3.12,3.12,0,0,1,1,.45,1.49,1.49,0,0,1,.54.49,1.52,1.52,0,0,1,.22.34,1.29,1.29,0,0,1,.48.56,5.11,5.11,0,0,1,.28.68,3.58,3.58,0,0,1,.11.73,3.87,3.87,0,0,1-.07,1,4.06,4.06,0,0,1-.34,1,4.41,4.41,0,0,1-.58.85,3.73,3.73,0,0,1-1.66,1.1,3.21,3.21,0,0,1-1,.17,4,4,0,0,1-.5-.05,2.35,2.35,0,0,1-.54-.1,3.49,3.49,0,0,1-.94-.43,4.12,4.12,0,0,1-1.39-1.52,3.46,3.46,0,0,1-.36-1,6.06,6.06,0,0,1-.09-.73,4,4,0,0,1,.08-.78A3.16,3.16,0,0,1,114.48,304.7Z"/><path class="cls-2" d="M113.48,349.91a3.17,3.17,0,0,1,.58-.78,4.05,4.05,0,0,1,.77-.61,4.14,4.14,0,0,1,2-.57,4.93,4.93,0,0,1,.54.05,5.12,5.12,0,0,1,.54.1,3.12,3.12,0,0,1,1,.45,2.1,2.1,0,0,1,.76.84,1.27,1.27,0,0,1,.48.55,5.11,5.11,0,0,1,.28.68,3.67,3.67,0,0,1,.11.74,3.9,3.9,0,0,1-.07,1,4,4,0,0,1-.92,1.8,3.65,3.65,0,0,1-1.66,1.1,3.21,3.21,0,0,1-1,.17,2.07,2.07,0,0,1-.5-.05,2.35,2.35,0,0,1-.54-.1,3.49,3.49,0,0,1-.94-.43,3.6,3.6,0,0,1-.79-.67,4.15,4.15,0,0,1-.6-.84,3.63,3.63,0,0,1-.36-1,5.82,5.82,0,0,1-.09-.73,3.94,3.94,0,0,1,.08-.77A3.21,3.21,0,0,1,113.48,349.91Z"/><path class="cls-2" d="M192.77,156.79a100.37,100.37,0,0,0-1.62,19.73c0,7.32,1.06,14.55,1.39,21.85.11,2.4,3.86,2.41,3.75,0-.32-7.16-1.42-14.24-1.39-21.41a97.61,97.61,0,0,1,1.48-19.17c.48-2.36-3.13-3.37-3.61-1Z"/><path class="cls-2" d="M53.5,209.26c-.28,12.61-.92,25.33-4.51,37.49-.69,2.32,2.93,3.31,3.61,1,3.69-12.47,4.36-25.56,4.65-38.49,0-2.41-3.7-2.41-3.75,0Z"/><path class="cls-2" d="M78.93,390.78A28.45,28.45,0,0,1,67.32,412a1.93,1.93,0,0,0-.67,2.57,1.88,1.88,0,0,0,2.56.67,32.47,32.47,0,0,0,13.47-24.42c.14-2.41-3.61-2.4-3.75,0Z"/><path class="cls-2" d="M165.35,393.88a35.53,35.53,0,0,0,11.8,19.63,1.92,1.92,0,0,0,2.65,0,1.89,1.89,0,0,0,0-2.65,32.23,32.23,0,0,1-10.83-18c-.51-2.36-4.12-1.36-3.62,1Z"/><path class="cls-2" d="M182.82,188c0,8.66.06,17.73-2.1,26.18a19.22,19.22,0,0,1-2.73,6.56,5.12,5.12,0,0,1-.79,1,11.88,11.88,0,0,1-1.08,1c-.33.29,0,0-.2.16l-.6.41A11.46,11.46,0,0,1,174,224c-.31.15,0,0,0,0l-.42.16c-.18.07-.37.14-.57.2a15.87,15.87,0,0,1-1.58.4l-.71.12c-.36.06-.06,0,0,0l-.5.06c-.58.06-1.16.1-1.74.11a26.56,26.56,0,0,1-3.46-.1c-.11,0-.92-.11-.52-.05l-.66-.11a14.7,14.7,0,0,1-1.62-.39l-.66-.22-.35-.13c-.29-.11.4.19,0,0a12.64,12.64,0,0,1-1.31-.7,6.61,6.61,0,0,1-.55-.37c-.36-.24.13.14-.27-.2A10.81,10.81,0,0,1,158,221.7a7.34,7.34,0,0,1-.51-.6c.24.31-.17-.24-.24-.33a13.6,13.6,0,0,1-.88-1.47,16.1,16.1,0,0,1-1.34-3.24,51.3,51.3,0,0,1-2-11c-.52-5.69-.62-11.43-.62-17.14l-1.88,1.87,29.89,0h4.21a1.88,1.88,0,0,0,0-3.75l-29.89,0h-4.21a1.9,1.9,0,0,0-1.87,1.88c0,9.13-.07,18.75,2.29,27.64,1.29,4.85,3.74,9.68,8.55,11.78A21.91,21.91,0,0,0,174,228c4.92-1.52,7.88-5.5,9.53-10.21a51.64,51.64,0,0,0,2.31-11.87c.6-6,.71-12,.72-17.94A1.88,1.88,0,0,0,182.82,188Z"/><path class="cls-1" d="M151.63,72.36c0-3.62,0-7.24,0-10.85,0-3.13,1.52-11.63,0-14.39s-8-2.73-11.44-3.41c-18.13-3.55-40.7-4.05-58.83-7.59-.65,14.05-1.05,25.43,1.53,39.14-5-1-9.62.21-7.41,9.3,2.41,9.89,6.61,11.93,9.85,11.81,1.71,8.06,4.86,15.8,10,21.83a30.51,30.51,0,0,0,50.95-6.89,57.34,57.34,0,0,0,4.81-18.09c3.07-.3,6.73-2.8,8.92-11.78C162.34,71.78,157,71,151.63,72.36Z"/><path class="cls-2" d="M92.93,67.44a18.32,18.32,0,0,1,12,1.39,1.88,1.88,0,0,0,2.54-.68,1.94,1.94,0,0,0-.67-2.6A22.4,22.4,0,0,0,92,63.78a1.93,1.93,0,0,0-1.3,2.34A1.88,1.88,0,0,0,92.93,67.44Z"/><path class="cls-2" d="M127,68.42A20.66,20.66,0,0,1,140,66c1,.13,1.85-1,1.85-1.9a1.92,1.92,0,0,0-1.85-1.9,24,24,0,0,0-14.82,2.89,2,2,0,0,0-.66,2.61A1.85,1.85,0,0,0,127,68.42Z"/><path class="cls-2" d="M97.05,86.94a5.08,5.08,0,0,0,2,0,2.84,2.84,0,0,0,.76-.1A3.3,3.3,0,0,0,101,81.23a3.35,3.35,0,0,0-.82-.59,3.79,3.79,0,0,0-1.47-.4,3.93,3.93,0,0,0-2.12.52A4.3,4.3,0,0,0,95,82.32a3.3,3.3,0,0,0-.43,1.51A3.07,3.07,0,0,0,95,85.31,3.31,3.31,0,0,0,97.05,86.94Z"/><path class="cls-2" d="M135.72,80.08a3.73,3.73,0,0,0-.57-.78,4,4,0,0,0-.76-.61,3.93,3.93,0,0,0-2-.57,4.57,4.57,0,0,0-.52,0,4.35,4.35,0,0,0-.52.1,3.07,3.07,0,0,0-1,.45,1.53,1.53,0,0,0-.52.49,1.59,1.59,0,0,0-.22.35,1.46,1.46,0,0,0-.47.55c-.09.22-.2.45-.27.68a6.29,6.29,0,0,0-.11.74,3.59,3.59,0,0,0,.08,1,3.7,3.7,0,0,0,.33,1,4.1,4.1,0,0,0,.56.86,3.67,3.67,0,0,0,1.62,1.1,3.14,3.14,0,0,0,1,.17,4.28,4.28,0,0,0,.49,0,2.28,2.28,0,0,0,.52-.1,3.37,3.37,0,0,0,.92-.43,4.12,4.12,0,0,0,.77-.67,3.76,3.76,0,0,0,.58-.85,4,4,0,0,0,.36-1,4.53,4.53,0,0,0,.08-.73,4,4,0,0,0-.08-.78A3.6,3.6,0,0,0,135.72,80.08Z"/><path class="cls-2" d="M126.86,105.68a4.21,4.21,0,0,1-1,1.26,5.67,5.67,0,0,1-1.77,1,14.31,14.31,0,0,1-4.74,1.05,22.08,22.08,0,0,1-4.94-.15,21,21,0,0,1-2.21-.42l-.49-.13-.08,0-.07,0c-.31-.11-.62-.23-.92-.37-2.19-1-3.71,2.48-1.52,3.47a22.28,22.28,0,0,0,11.05,1.38c3.86-.37,8.19-1.73,10.06-5.53C131.32,105.06,127.94,103.5,126.86,105.68Z"/><path class="cls-2" d="M160.2,69.09a7.89,7.89,0,0,0-4.94-1.5c1.55-4.49,4.42-12.42,3.81-23.09-.74-13.24-10.29-21.78-10.29-21.78l8.87-3.18s-2.82-3.44-13.35-5.64c-15.94-4.05-20.92-2.21-20.92-2.21L127.62.32c-3,2.18-11.74,3.59-19.16,5.82a67.9,67.9,0,0,0-11.55,4.79V0S93,4.34,86.17,11.32a18.81,18.81,0,0,0-5.48,13.6,20,20,0,0,0-3.61-1.51,15.31,15.31,0,0,0-8.17-.05,1.43,1.43,0,0,0,.74,2.75,12.29,12.29,0,0,1,6.88.12,16.37,16.37,0,0,1,2.63,1.09C77,29,73.4,36.43,73.4,47.42c0,12.09,3,17.32,5.73,22.35a7.13,7.13,0,0,0-3.85,1.44c-2.56,2-3.21,5.69-1.94,10.9,1.72,7.1,4.63,11.47,8.62,13a8.53,8.53,0,0,0,1.6.44c2,8.4,6.43,18.71,11,24.17,6.29,7.42,14.36,11.57,23.88,11.57A32.8,32.8,0,0,0,123,131c11.07-1.53,19.54-8.51,24.29-18.67a73.62,73.62,0,0,0,5.78-19.17l.45-.14c4-1.52,6.9-5.88,8.62-13C163.41,74.78,162.76,71.12,160.2,69.09ZM88.68,49c2.86,9.93,19.12,8.77,19.12,8.77s-7.7-5.17-6.93-9.21c0,0,4.27,2.81,27.16,4.64,12.84,1,18.7,9,21.38,15.84v.56c0,1.61,0,3.24,0,4.89-.51-1.74-1.31-2.28-2.41-3.55-2.21-2.56-5.53-4-9.61-4.23-5.7-.29-10.56,1.34-13.7,4.59-1.24,1.3-2.17,1.82-2.78,3.53a13.06,13.06,0,0,0-4.7-.48A16.11,16.11,0,0,0,111,75.52a12.35,12.35,0,0,0-3-4c-3.11-2.72-7.67-3.92-12.84-3.37-4.71.49-8.2,2.21-10.37,5.09-.17.23-.33.48-.48.73,0,0,0-4.08,0-4.13C85.8,50.45,88.68,49,88.68,49ZM146.3,78.47c-.46,6.77-6.29,7.84-11.54,7.84h-.09c-5.15,0-10.86-1-10.89-7.6,0-2.59,1.55-3.82,2.52-4.73a15,15,0,0,1,9.83-3.5l1.06,0c3.1.16,5.46,1.15,7,2.95S146.53,75.09,146.3,78.47ZM77.65,81c-.78-3.19-.66-5.39.34-6.18a3.6,3.6,0,0,1,2.22-.58,7.83,7.83,0,0,1,.82.05c.13.66.27,3.32.42,4a59.76,59.76,0,0,0,1.06,12C80.46,88.9,78.79,85.73,77.65,81Zm10-5.45c1.53-2,4.16-3.25,7.82-3.64.7-.07,1.37-.11,2-.11a12,12,0,0,1,8,2.6c1.93,1.69,3,2.12,3.17,5.22,0,.81,0-.44-.09.28a2.18,2.18,0,0,0-.16.76v.06c-1.07,4.71-5.26,7.27-9.56,7.73-5.36.58-11.62,0-12.65-7C85.77,78.11,86.25,77.45,87.68,75.55Zm55.6,34.77c-4.1,8.76-11.29,14.79-20.87,16.12S104.24,124.13,98,116.7c-5.84-6.89-10.56-15.15-11.7-26.94,2.9,3.07,7.09,2.58,11.23,2.58.61,0,1.22,0,1.82-.1a16.25,16.25,0,0,0,6.76-2.3c-.23.86-.24,1.77-.5,2.63-1.25,4.12,1.33,8.61,4.46,9.52a22.07,22.07,0,0,0,7.15.62,20.12,20.12,0,0,0,7.69-1.59,5.45,5.45,0,0,0,2.66-2.38,4.49,4.49,0,0,0-.19-4.18c-1.12-2.16-4.32-.24-3.19,1.92,0,.1.09.19.13.28h0c-.25-.51-.06-.07,0,0a.32.32,0,0,1,0,.14s0,0,0,.06l0,.06s0,0,0,0h0l-.3.27-.29.19c-.19.11-.4.21-.6.31h0l-.3.11-.69.22a14.15,14.15,0,0,1-1.59.38c-.27.06-.54.1-.81.14l-.06,0h0l-.31,0c-.61.07-1.24.12-1.86.15a28.46,28.46,0,0,1-3.33,0c-.44,0-.88-.07-1.32-.12l-.43-.06c-.27,0-.53-.1-.79-.16s-.6-.2-.9-.27l-.08,0c-.06-.18-.5-.52-.61-.67a3.72,3.72,0,0,1-.45-.9,4.45,4.45,0,0,1-.16-2,46.22,46.22,0,0,1,1.55-7.43c.65-1.9,1.21-1.84,1.34-3.86.26-1.23.36-.56.28-2,0-.5-.08-1-.15-1.48a11.5,11.5,0,0,1,4.17-1,7.87,7.87,0,0,1,3.61.46,6.78,6.78,0,0,0,0,1.56c2,8.72,7.91,9.14,14.57,9.18h.1c6.28,0,12.83-1.54,14.73-8.38A62.9,62.9,0,0,1,143.28,110.32Zm14.55-31.43c-1,4.22-2.46,7.19-4.21,8.77.35-5,.35-10.2.25-15.41a5,5,0,0,1,3.62.46C158.49,73.5,158.61,75.7,157.83,78.89Z"/><path class="cls-1" d="M49.23,250,6.79,241.27c-4.28,21.14-8.19,45.2-5.12,52.44,5.37,12.7,39.33,28.83,64,13.92L73,278.56s-23-.73-27.36-3.17C42.23,273.49,46.83,262.08,49.23,250Z"/><path class="cls-2" d="M73.07,276.56c-8.63-.27-23.34-1.3-26.39-2.89-.92-1.46,1-9.23,2.36-14.38.88-3.46,1.81-7.15,2.53-10.77l-3.92-.83c-.7,3.54-1.62,7.19-2.49,10.62-2.56,10.08-4.24,16.74-.49,18.82,3.95,2.2,19.14,3.06,25.79,3.34l-6.52,25.86c-10.46,6-24.19,6.92-37.83,2.5C15.28,305.31,8,298.77,5.51,292.93c-2.75-6.5,1.23-31.42,5.65-53.33l-3.95-.83c-4.36,21.45-8.68,47.93-5.38,55.72,2.93,6.94,11,14.23,23,18.14a58.94,58.94,0,0,0,18.15,3,45.62,45.62,0,0,0,23.68-6.24,2.05,2.05,0,0,0,.91-1.23l7.32-29.07a2,2,0,0,0-1.87-2.49Z"/><path class="cls-2" d="M43.45,272c-7.69-.61-15.93.5-22.36,5.05a2.56,2.56,0,0,0-.89,3.42,2.52,2.52,0,0,0,3.42.9c5.78-4.09,12.92-4.92,19.83-4.37a2.52,2.52,0,0,0,2.5-2.5,2.55,2.55,0,0,0-2.5-2.5Z"/><ellipse class="cls-2" cx="93.16" cy="270.6" rx="4.07" ry="31.02" transform="translate(-152.71 124.15) rotate(-40.22)"/><path class="cls-1" d="M76.78,307.63s-15.65,5.91-14.8-5.71,0-13.62,7.89-23.69,10.69-11,10.69-11l12.11,2.25,9.52,6.43,8.91-2,7,5.4-1.47,10.32-9.4,2.26-3.91,10.75-6.85-1.24-3.71,4.19Z"/><path class="cls-2" d="M81.41,280.49l10.13,4.71c3,1.38,6.33,2.5,8.67,4.85,2.1,2.11,4.24,4.24,7.46,4.1a5.33,5.33,0,0,0,4.92-7,17.81,17.81,0,0,0-2.18-4.39c-.91-1.51-1.87-3-2.93-4.43a34.4,34.4,0,0,0-6.57-6.9,31.47,31.47,0,0,0-18-6.72,12.45,12.45,0,0,0-9.76,3.93c-2.5,2.49-5.16,5.31-5.75,8.94l.65-1.11c-8,8-11.16,20.73-7.09,31.29a2.56,2.56,0,0,0,3.07,1.74,2.51,2.51,0,0,0,1.75-3.07,23.92,23.92,0,0,1,.94-19.29,33.46,33.46,0,0,1,1.91-3.34c.29-.44.58-.88.89-1.31L70,282c.35-.49-.25.3.18-.24s.76-.91,1.16-1.36a4.72,4.72,0,0,0,1.12-2.23,10.77,10.77,0,0,1,2.92-4.52c1.27-1.35,2.59-3,4.41-3.56,3.65-1.18,8.45.24,11.85,1.64a27.22,27.22,0,0,1,9.88,7.09,41.22,41.22,0,0,1,3.92,5.37c.55.88,1.09,1.76,1.6,2.66.31.54,1,1.58.85,2.26,0,.18.1,0-.09.06a2,2,0,0,1-.69,0A4.1,4.1,0,0,1,105,287.8a22.79,22.79,0,0,0-5.84-4.53c-5-2.47-10.16-4.74-15.23-7.1a2.57,2.57,0,0,0-3.42.9,2.51,2.51,0,0,0,.89,3.42Z"/><path class="cls-2" d="M113.28,293.36a7.28,7.28,0,0,0,4.62-1.48,6.67,6.67,0,0,0,1.81-4.27,16.69,16.69,0,0,0-1.08-9.92,11.12,11.12,0,0,0-6.95-5.64c-3.25-1-6.66-.63-10-.22a2.58,2.58,0,0,0-2.5,2.5,2.51,2.51,0,0,0,2.5,2.5c1.37-.17,2.74-.34,4.12-.4a18.68,18.68,0,0,1,2,0c.32,0,.64,0,1,.08h0l.39.07a6.6,6.6,0,0,1,4.6,2.67,9.42,9.42,0,0,1,1.21,6.1,14.74,14.74,0,0,1-.2,1.56c0,.3-.1.59-.17.88,0,.06-.13.75,0,.36-.17.27-.17.28,0,.05s.22-.16.07-.07-.13.08.09,0l-.33.1c-.08,0-.74.14-.48.11s-.51,0-.6,0a2.56,2.56,0,0,0-2.5,2.5,2.51,2.51,0,0,0,2.5,2.5Z"/><polygon class="cls-1" points="56.64 306.41 56.64 313.99 145.32 301.77 66.65 315.94 75.45 318.38 157.53 305.68 159 293.71 56.64 306.41"/><path class="cls-2" d="M75.45,320.38a2,2,0,0,1-.54-.07l-8.79-2.44a2,2,0,0,1-1.47-2,2.11,2.11,0,0,1,.32-1L56.91,316a2,2,0,0,1-2.27-2v-7.58a2,2,0,0,1,1.75-2l102.36-12.71a2,2,0,0,1,1.66.57A2,2,0,0,1,161,294l-1.46,12a2,2,0,0,1-1.68,1.74l-82.09,12.7A1.51,1.51,0,0,1,75.45,320.38Zm69.87-20.61a2,2,0,0,1,.35,4l-69.1,12.45,79.16-12.26,1-7.92L58.64,308.18v3.51l86.4-11.9Z"/><path class="cls-2" d="M102.89,293.3c.6,1.54,1.45,4.52-.56,5.47-.92.44-2-.37-2.78-.84-1.31-.83-2.59-1.72-3.86-2.61-4.94-3.46-9.76-7.12-15.17-9.84-2.87-1.44-5.41,2.87-2.53,4.32,6.62,3.32,12.33,8.07,18.51,12.1,3.08,2,6.72,2.94,9.69.17,2.81-2.61,2.83-6.74,1.52-10.09a2.57,2.57,0,0,0-3.08-1.75,2.51,2.51,0,0,0-1.74,3.07Z"/><path class="cls-1" d="M74.44,296c5.55,2.34,10,6.75,15.62,9a5.5,5.5,0,0,0,2.66.53,3.94,3.94,0,0,0,2.9-2.18,8.58,8.58,0,0,0,.81-3.65"/><path class="cls-2" d="M73.18,298.19c4.89,2.1,8.9,5.69,13.62,8.1,2.57,1.31,5.59,2.64,8.35,1.07s3.64-4.64,3.78-7.61a2.5,2.5,0,0,0-5,0c-.05,1.1-.3,3.35-1.65,3.36a6.77,6.77,0,0,1-2.63-1c-1-.49-2-1-2.89-1.62-3.67-2.25-7.08-4.94-11.05-6.65a2.57,2.57,0,0,0-3.42.9,2.52,2.52,0,0,0,.89,3.42Z"/><path class="cls-1" d="M202.52,249.27c2.34,6.8,3.26,8.77,3.26,8.77-10.26,6.6-21.62,26.87-26.5,27.73s-17.72-3.91-23.21-4-19.4,14.74-19.4,14.74l14.62-1.81S163,292.12,166,292.12s-8.43,13.56-8.43,13.56l-38.47,6.6s3,5.49,15.39,7.2,17.87,11.77,26.67,11.12,32.24-23.52,32.24-23.52c48.86-30.36,49.84-32.18,51.47-49.12.61-6.31-1.14-13.58-3.56-24Z"/><path class="cls-2" d="M239.38,231.69c2.36,10.14,4,20.06,3.46,26.08-1.53,15.94-1.66,17.25-50.53,47.61a1.84,1.84,0,0,0-.34.27c-9.22,9-25.09,22.52-31,23-3.73.27-7-1.87-10.78-4.35-4.15-2.74-8.86-5.83-15.47-6.75-5.84-.81-9.4-2.5-11.45-3.92l34.6-5.93a2,2,0,0,0,1.2-.69c10.5-12.54,9.61-14.44,9.14-15.46a2.42,2.42,0,0,0-2.25-1.38c-3,0-13.43,2.23-15,2.57l-8.82,1.1c5.56-5.37,11.55-10.05,13.86-10.05h0c2.18.05,6,1,9.68,1.9,5.53,1.36,10.75,2.66,13.92,2.1,2.94-.52,6.24-4.54,11.82-11.62,4.84-6.15,10.34-13.13,15.42-16.4a2,2,0,0,0,.79-2.4c-1.1-2.84-2.64-7-4.27-11.76L199.63,247c1.55,4.49,2.93,8.2,3.72,10.29-5.2,3.85-10.41,10.46-15.06,16.35-3.28,4.17-7.78,9.88-9.36,10.16-2.34.4-7.61-.89-12.27-2-4.08-1-7.93-2-10.55-2H156c-6.12,0-18.4,12.8-20.81,15.37a2,2,0,0,0,1.71,3.35l14.61-1.81.18,0c3.47-.75,8.6-1.78,11.81-2.25a101.61,101.61,0,0,1-7.05,9.46l-37.75,6.47a2,2,0,0,0-1.47,1.11,2,2,0,0,0,.06,1.84c.14.26,3.69,6.39,16.86,8.21,5.71.8,9.84,3.51,13.83,6.13s7.67,5,12.29,5c.32,0,.64,0,1,0,9.09-.67,30.24-20.91,33.34-23.93,48-29.83,50.46-32.21,52.22-50.51.64-6.61-1.17-17.24-3.66-27.92Z"/><path class="cls-2" d="M226.16,250.57c-7.7-.61-15.93.5-22.36,5.05a2.56,2.56,0,0,0-.89,3.42,2.52,2.52,0,0,0,3.42.89c5.78-4.09,12.92-4.91,19.83-4.36a2.5,2.5,0,1,0,0-5Z"/><path class="cls-2" d="M134.73,321.32c8.92-.52,18.39-1.2,26-6.38,2-1.35.11-4.6-1.9-3.24-7.07,4.82-15.82,5.39-24.1,5.87-2.4.13-2.42,3.88,0,3.75Z"/><path class="cls-2" d="M149.88,326.8a26.84,26.84,0,0,0,8.87-1.51c2.58-.82,5.42-1.52,7.05-3.86a1.89,1.89,0,0,0-.67-2.56,1.92,1.92,0,0,0-2.57.67c.05-.08-.3.32-.39.4.16-.13-.26.17-.3.19a5.48,5.48,0,0,1-1.1.53c-1.16.44-2.35.81-3.54,1.18a22.74,22.74,0,0,1-7.35,1.21,1.88,1.88,0,1,0,0,3.75Z"/></g></g></svg>