<svg xmlns="http://www.w3.org/2000/svg" viewBox="0 0 260.84 702.49"><defs><style>.cls-1,.cls-5,.cls-6,.cls-7{fill:#fff;}.cls-2{fill:#010101;}.cls-3{fill:#1c4877;}.cls-4{fill:#d2d4d9;}.cls-10,.cls-4,.cls-6,.cls-7,.cls-8,.cls-9{stroke:#010101;}.cls-10,.cls-4,.cls-5,.cls-9{stroke-miterlimit:10;}.cls-10,.cls-4,.cls-5,.cls-8,.cls-9{stroke-width:5px;}.cls-5{stroke:#231f20;}.cls-6,.cls-7,.cls-8{stroke-linejoin:round;}.cls-6,.cls-7{stroke-width:4px;}.cls-7,.cls-8,.cls-9{stroke-linecap:round;}.cls-10,.cls-8,.cls-9{fill:none;}</style></defs><title>illustration5</title><g id="Layer_2" data-name="Layer 2"><g id="Layer_2-2" data-name="Layer 2"><path class="cls-1" d="M204.79,677.47c1.52,12.09-2.28,20.15-13.5,21.72-9.65,1.34-20.81,1.48-29.49-3.49-8.47-4.85-14.66-13.13-21-20.38-7.61-8.75-11.59-15.88-8-27.73Z"/><path class="cls-2" d="M202.29,677.47a28.43,28.43,0,0,1-.18,9.71,11.54,11.54,0,0,1-3.57,6.43,14.86,14.86,0,0,1-7.58,3.12,65.73,65.73,0,0,1-12.3.72,37.94,37.94,0,0,1-12-2.2,33.09,33.09,0,0,1-10.15-6.46,93.16,93.16,0,0,1-8.78-9.21c-2.66-3.09-5.42-6.14-7.91-9.36a27.51,27.51,0,0,1-5.31-10,22.62,22.62,0,0,1,.71-12L132.16,650l24.41,10.14,38.63,16,8.93,3.7a2.51,2.51,0,0,0,3.07-1.74,2.56,2.56,0,0,0-1.74-3.08l-24.41-10.13-38.64-16-8.92-3.71a2.52,2.52,0,0,0-3.07,1.75,28.69,28.69,0,0,0-1.07,12.88,26.81,26.81,0,0,0,4.41,10.49,116,116,0,0,0,8.33,10.32,129.23,129.23,0,0,0,9.25,10.18,43.27,43.27,0,0,0,11,8,39.51,39.51,0,0,0,13.85,3.51,66.53,66.53,0,0,0,13.53-.42c3.7-.45,7.39-1.15,10.52-3.3,6.9-4.75,8-13.37,7.06-21.12a2.57,2.57,0,0,0-2.5-2.5A2.52,2.52,0,0,0,202.29,677.47Z"/><path class="cls-2" d="M170,638.29c7.25,8.71,14.81,16.59,24,23.25,4.91,3.57,11,8.43,13,14.42,2.74,8.28-5.27,12.15-12,14.17a45.23,45.23,0,0,1-27.71-.61c-9.62-3.35-14.95-9.69-21.83-16.69-3-3-7.16-5.15-9.29-8.82-3-5.18-4.3-13.23-2.61-19C137.61,631.08,159.57,636,170,638.29Z"/><path class="cls-2" d="M173.17,649.37a46.2,46.2,0,0,1-7.17.49,12,12,0,0,0-6.79,2"/><path class="cls-1" d="M172.51,647c-2,.41-4.94.24-7.41.46a13.85,13.85,0,0,0-7.15,2.31,2.56,2.56,0,0,0-.89,3.42,2.54,2.54,0,0,0,3.42.9,15.87,15.87,0,0,1,1.42-.87c.16-.08.14-.07-.09,0l.42-.15c.28-.1.57-.19.86-.27.51-.13,1-.23,1.55-.31-.54.08.12,0,.24,0l.9-.07a58.72,58.72,0,0,0,8.06-.59,2.51,2.51,0,0,0,1.74-3.08,2.56,2.56,0,0,0-3.07-1.74Z"/><path class="cls-2" d="M180.69,657c-1.62,0-12.39-.23-16.85,3.21"/><path class="cls-1" d="M180.69,654.52a73.62,73.62,0,0,0-7.57.35c-3.55.39-7.6,1-10.54,3.2a2.58,2.58,0,0,0-.9,3.42,2.53,2.53,0,0,0,3.42.9,16,16,0,0,1,1.92-1.12l-.16.07.36-.14.56-.2c.38-.13.77-.25,1.16-.35.81-.22,1.63-.39,2.45-.54l1.26-.19.16,0,.72-.08c2.39-.24,4.77-.27,7.16-.3a2.5,2.5,0,1,0,0-5Z"/><path class="cls-1" d="M118.69,679.47c1.51,12.09-2.28,18.15-13.5,19.72-9.66,1.34-20.81,1.48-29.49-3.49-8.48-4.85-16.68-11.78-21-20.38-5.26-10.54-.51-19.76,3.08-31.61Z"/><path class="cls-2" d="M116.19,679.47a26,26,0,0,1-.15,9.09,8.51,8.51,0,0,1-1.23,3.05,4.89,4.89,0,0,1-.8,1.1,11.22,11.22,0,0,1-1.38,1.29c.3-.23-.3.2-.39.25s-.49.32-.75.46a14.12,14.12,0,0,1-1.57.76,24.77,24.77,0,0,1-4.4,1.15,65.25,65.25,0,0,1-11.93.86,39.8,39.8,0,0,1-11.87-1.83,40.57,40.57,0,0,1-10.59-5.83c-6.28-4.47-12.74-10.67-15.24-18.17-3-9.13,1.7-18.64,4.33-27.27l-3.67,1.49L77.23,658l32.69,19.21,7.51,4.4c2.78,1.64,5.3-2.68,2.52-4.31L99.26,665.16,66.57,646l-7.5-4.4a2.52,2.52,0,0,0-3.67,1.49c-2.7,8.84-6.88,17.93-5,27.37,1.75,8.84,8.67,16.36,15.56,21.73a53.7,53.7,0,0,0,11.68,7.27,40.59,40.59,0,0,0,13.27,3,68.48,68.48,0,0,0,13.5-.58,24.92,24.92,0,0,0,10-3c6.72-4.14,7.61-12.1,6.74-19.3a2.58,2.58,0,0,0-2.5-2.5A2.51,2.51,0,0,0,116.19,679.47Z"/><path class="cls-2" d="M90.92,638.29c7.24,8.71,10.67,18.73,17,25.25,4.22,4.37,11,8.43,13,14.42,2.75,8.28-5.26,12.15-12,14.17a45.26,45.26,0,0,1-27.72-.61c-9.61-3.35-15.61-9-20.17-17.73-2.16-4.1-1.81-6.11-4-9.78-3-5.18-4.3-13.23-2.61-19C58.51,631.08,80.46,636,90.92,638.29Z"/><path class="cls-1" d="M95,657.17c-6.84-.39-14.21-.57-20.15,3.42a2.56,2.56,0,0,0-.89,3.42,2.52,2.52,0,0,0,3.42.9c5.21-3.5,11.62-3.09,17.62-2.74a2.5,2.5,0,1,0,0-5Z"/><path class="cls-1" d="M92.88,647.27c-3.63.37-7.27-.14-10.91.11a17.1,17.1,0,0,0-9.68,3.38,2.51,2.51,0,0,0,0,3.54,2.56,2.56,0,0,0,3.53,0c1.89-1.48,4.65-1.89,7.06-2,3.34-.11,6.67.28,10-.06a2.57,2.57,0,0,0,2.5-2.5,2.51,2.51,0,0,0-2.5-2.5Z"/><path class="cls-3" d="M115,354.48h74.09L178.46,646.8s-10.06-4.21-24.91-3.32a107.76,107.76,0,0,0-22.91,4.32s8.39-224-5.65-224L113.42,510,100.35,645.8s-14.54-2.69-22.08-2c-10.94,1-26.74,5-26.74,5s1.28-115.11,0-153.46c-1.19-35.26-6.6-140.86-6.6-140.86Z"/><path class="cls-2" d="M92,381a39.74,39.74,0,0,1-16.28,29.68A1.94,1.94,0,0,0,75,413.2a1.89,1.89,0,0,0,2.57.67A43.74,43.74,0,0,0,95.71,381c.13-2.41-3.62-2.4-3.75,0Z"/><path class="cls-2" d="M32.38,126.32,1.93,168.68s-4.35,34.32,0,38.78a54.87,54.87,0,0,0,10.88,8.09s-.73,45.66,0,54.36S15,304.7,23,307.6,52.67,283,52.67,283L45.42,131.47Z"/><path class="cls-4" d="M122.65,112s-21.74-9.32-20.29-23.19,20.29-11.57,20.29-11.57S78.63,53,51.91,74.73c-20.8,17,6.23,43,6.23,43S30.6,123.5,27,141.62s9.43,126.84,8.7,149.31-5.7,71-.62,73.21,67.31,13.77,98.47,10.87,57.89-16,57.89-16l-5.7-152.85s23.92,19.57,38.42,21.74,39.14,2.18,33.34-42S227,122.77,227,122.77s-11.6,17.4-24.65,14.5S191,123.09,191,123.09l-12.57-4.51Z"/><path class="cls-2" d="M100.69,127.65S45.76,89.41,81.45,78.09s1.22-11,1.22-11"/><path class="cls-5" d="M93.28,97.87S82,115.23,110.9,138.17l30-31Z"/><path class="cls-2" d="M58.14,117.7s34.67-6.53,46.93,34.55S35.31,297.61,35.31,297.61l-.5-27.53s52.57-78.21,54-101.4S58.14,117.7,58.14,117.7Z"/><path class="cls-2" d="M185.71,206.13s1.93-68.14-7.25-87.55c-19.08-13.69-18.6,19.17-18.6,19.17l28.22,110.08Z"/><path class="cls-2" d="M144.83,192.05s10.92,100.68,4.88,180.6l10.15-2.24s1.88-143.15-7.52-188.87"/><path class="cls-6" d="M160,52.3s10.52,77.91-23.52,72.78S94.25,97.82,94.25,97.82A21.66,21.66,0,0,1,78.07,80.87c-2.94-14.41,8.17-13.65,17-9.09L92.48,46l41.28-14.79,26.45,5.62Z"/><path class="cls-2" d="M164.12,26c-4.66-8.22-12.67-14.1-28.17-16.66h0L146,0a57.22,57.22,0,0,1-11.84,2.54C127.39,3.26,112.52,8,112.52,8l4-6.46C114.08,3,108,4.48,103.29,6.73a41.48,41.48,0,0,0-8.61,5.56L92.84,5.07c-.67,4.56-8.14,12.27-11.07,15.14-.28.25-.54.52-.8.77l-.38.36h0C76.05,26,73.23,31.87,71.87,40.24c-1.19,7.41-.86,33.43,7.22,45.54A75.55,75.55,0,0,1,89.57,111l1.71-14.13-.43-24.42s2.38,3.13,3.94,3.13c.52,0,1.95,1.23,3,1.38a7.8,7.8,0,0,1,4,2.08S105,68,105,61c0-8.31-8.05-16.63,2-15.59,9.49,1,27.18-4.8,40.16.76-1.92-5.26-3.38-6-9.44-9.28,0,0,19.88,0,27.31,16C165.07,52.82,174.07,43.59,164.12,26Z"/><path class="cls-6" d="M94.25,97.82C71.06,89,76.44,70.16,84.18,67.8s12.36,5,12.36,5a16.89,16.89,0,0,0,2.4,2.38"/><polygon class="cls-2" points="101.6 72.94 101.98 81.9 91.94 70.57 99.64 70.83 101.6 72.94"/><path class="cls-2" d="M158.74,59.83a9.88,9.88,0,0,0-9.25.73c-.73.43-1.54.15-1.85-1a2.9,2.9,0,0,1,.78-2.9,12.22,12.22,0,0,1,11.46-1c.72.31,1,1.69.73,2.74S159.47,60.14,158.74,59.83Z"/><path class="cls-2" d="M134.86,59.1a24.7,24.7,0,0,0-15.35,0A2.17,2.17,0,0,1,117,57.32a2.22,2.22,0,0,1,1.75-2.5,28.64,28.64,0,0,1,17.61.23,2.16,2.16,0,0,1-1.5,4.05Z"/><path class="cls-2" d="M157.8,73.65a5,5,0,0,1-1.93-.13,3,3,0,0,1-.73-.17,3.24,3.24,0,0,1-1.69-1.51,3.19,3.19,0,0,1,1-4,3.48,3.48,0,0,1,.86-.49,3.64,3.64,0,0,1,1.47-.24,3.74,3.74,0,0,1,2,.69,4.06,4.06,0,0,1,1.41,1.61,3.11,3.11,0,0,1,.28,1.47,2.89,2.89,0,0,1-.48,1.37A3.2,3.2,0,0,1,157.8,73.65Z"/><path class="cls-2" d="M128.39,69.27a3.2,3.2,0,0,1,.36-.85,3.45,3.45,0,0,1,.58-.73,3.41,3.41,0,0,1,2.26-1,2.91,2.91,0,0,1,.51,0,3.06,3.06,0,0,1,1,.2,1.36,1.36,0,0,1,.6.33,1.86,1.86,0,0,1,.29.27,1.34,1.34,0,0,1,.56.4,5.89,5.89,0,0,1,.41.57,4.67,4.67,0,0,1,.27.65,3.93,3.93,0,0,1,.16,1,4.07,4.07,0,0,1-.45,1.87,3.43,3.43,0,0,1-2.19,1.77,2.42,2.42,0,0,1-.47.06,2.3,2.3,0,0,1-.52,0,3.27,3.27,0,0,1-1-.19,3.89,3.89,0,0,1-1.61-1.09,3.36,3.36,0,0,1-.56-.83,4.7,4.7,0,0,1-.24-.66,3.56,3.56,0,0,1-.09-.73A2.75,2.75,0,0,1,128.39,69.27Z"/><path class="cls-2" d="M153.31,83.93a5.17,5.17,0,0,0,.9,2.42s.28.53.17.26c0,0,.12.5.09.3s0,.32,0,.32v.19c0-.15,0-.16,0,0a2.53,2.53,0,0,1-.67,1.2,4,4,0,0,1-1.53.84,13.74,13.74,0,0,1-4.56.35,26.55,26.55,0,0,1-5.32-.76,1.88,1.88,0,1,0-1,3.62,31.87,31.87,0,0,0,6.59.9,15,15,0,0,0,5.93-.72,6.68,6.68,0,0,0,4.1-4.15,5.15,5.15,0,0,0,.09-2.78,4.73,4.73,0,0,0-.57-1.35c-.11-.18-.23-.35-.33-.52s-.13-.39-.11-.09a1.88,1.88,0,0,0-3.75,0Z"/><path class="cls-1" d="M130.79,102.23a24.19,24.19,0,0,0,10.05,1.33c3.4-.14,6.79-.59,10.2-.49,0,0-2.49,3.26-4.06,3.12s-8.66-1-11.91-2.28C131.66,102.55,130.79,102.23,130.79,102.23Z"/><path class="cls-2" d="M130.29,104c6.68,2.62,13.83.75,20.75.91l-1.62-2.82c.59-.78,0,0-.15.15-.29.35-.6.68-.92,1a6.89,6.89,0,0,1-.89.77c-.06,0-.6.36-.33.23-.35.17.2,0-.15,0a39.63,39.63,0,0,1-5.09-.68,32.58,32.58,0,0,1-6.67-1.67c-1.31-.52-2.61-1-3.93-1.54a1.89,1.89,0,0,0-2.31,1.31,1.92,1.92,0,0,0,1.31,2.31c1.56.58,3.09,1.26,4.66,1.82a39,39,0,0,0,7.24,1.59c1.2.18,2.39.34,3.59.48a5.64,5.64,0,0,0,2.35,0c1.89-.57,3.36-2.36,4.53-3.87.91-1.19-.35-2.79-1.62-2.82-6.57-.15-13.43,1.71-19.75-.78a1.89,1.89,0,0,0-2.31,1.31A1.93,1.93,0,0,0,130.29,104Z"/><path class="cls-2" d="M138,66.75c1.57,4.35,2.19,10.16-1,14-3.86,4.59-10.35,3.61-14.38-.16a13.06,13.06,0,0,1-4-7,9.75,9.75,0,0,1-.09-2.69,8.48,8.48,0,0,1,.71-2.3,9.24,9.24,0,0,1,3.45-3.72A13,13,0,0,1,127.82,63c3.86-.6,8.2.68,10.33,4.21,1.25,2.07,4.49.19,3.24-1.89-5.31-8.81-19.53-7.8-24.9.44-3.32,5.1-1.63,11.54,2,16,4.56,5.53,12.85,8,19,3.55s6.44-12.91,4.07-19.5C140.77,63.5,137.14,64.47,138,66.75Z"/><path class="cls-2" d="M146.67,71.51a15.66,15.66,0,0,0,7.44,13.18,8.89,8.89,0,0,0,7.52.78A10.66,10.66,0,0,0,167,80.55a20.71,20.71,0,0,0,2.38-7.17,14.38,14.38,0,0,0-.3-7c-1.68-4.49-6.51-6.45-11-6.22a14.33,14.33,0,0,0-7.38,2.31,8,8,0,0,0-3,3.63,15.7,15.7,0,0,0-.9,5.4c-.09,2.42,3.66,2.41,3.75,0a13.84,13.84,0,0,1,.48-3.62,4,4,0,0,1,.65-1.32,3.55,3.55,0,0,1,.88-.79,10.87,10.87,0,0,1,9.5-1.36,6.63,6.63,0,0,1,1.95,1c-.2-.15.21.18.27.23l.4.4a2.72,2.72,0,0,1,.6.82,3,3,0,0,1,.36.78c.07.23.14.45.19.68s.07.38.07.4a15,15,0,0,1,0,2.68,19.06,19.06,0,0,1-1.36,5.78,10.45,10.45,0,0,1-2.84,4.07,4.79,4.79,0,0,1-4.7.61c-3.82-1.4-6.57-6.5-6.48-10.37C150.47,69.1,146.72,69.1,146.67,71.51Z"/><path class="cls-2" d="M148.9,65.73a13.36,13.36,0,0,0-7.39,0A2.6,2.6,0,0,0,140,66.89a2.51,2.51,0,0,0-.25,1.93,2.54,2.54,0,0,0,3.07,1.75,12.4,12.4,0,0,1,1.69-.36l-.67.09a10.65,10.65,0,0,1,2.82,0l-.66-.09a10.44,10.44,0,0,1,1.55.33,2.5,2.5,0,0,0,1.33-4.82Z"/><path class="cls-2" d="M115.17,69.73,96.91,68a2.5,2.5,0,0,0,0,5l18.26,1.69a2.52,2.52,0,0,0,2.5-2.5,2.56,2.56,0,0,0-2.5-2.5Z"/><path class="cls-2" d="M91.65,86.17c.31.23-.19-.17-.25-.23s-.2-.22-.3-.33c.28.33,0,0,0-.08l-.14-.23c-.09-.19-.08-.16,0,.08-.06,0-.09-.32-.11-.37-.12-.37,0,.37,0,0a2.13,2.13,0,0,1,0-.51s-.1.46,0,0L91,84.1c.09-.33-.18.28.06-.13.08-.14.16-.3.25-.44s.33-.46.07-.12a6.37,6.37,0,0,1,.79-.85l.4-.35,0,0L92.9,82A1.88,1.88,0,1,0,91,78.71l-.67.37c-.34.18.21-.06-.23.09l-.47.13c-.36.1.43-.06-.11,0s.46,0,.09,0l-.19,0c.3.14.37.16.2.07s.32.3.09.08.18.28,0,0a1.4,1.4,0,0,1-.09-.17c.11.29.14.36.1.22a2.3,2.3,0,0,0-.1-.35c-.1-.28,0,.48,0,0v-.35a1.94,1.94,0,0,1,0-.24c0-.21,0-.17,0,.12,0,0,.06-.32.07-.39a8.16,8.16,0,0,1,.34-1.06,1.89,1.89,0,0,0-1.31-2.31,1.94,1.94,0,0,0-2.31,1.31c-.71,1.81-.88,4.13.46,5.69,1.59,1.87,4.19,1.16,6,.09L91,78.71c-1.72,1.2-3.45,2.87-3.82,5a5.33,5.33,0,0,0,.38,3.2,6.33,6.33,0,0,0,2.19,2.46,1.87,1.87,0,0,0,2.56-.67,1.94,1.94,0,0,0-.67-2.57Z"/><path class="cls-2" d="M156.31,72.9s9.3-19,19.53-19.35a134.64,134.64,0,0,1,21.4,1.31s4.84,4.28,5.39,6.51-2.23,2.79-2.23,2.79h45s6.14,3.72,6.14,16-4.1,19.53-7.63,19.53-48.75,3.54-48.75,3.54S187.56,111.6,184,112c-7.67.81-27.72-13.58-27.72-13.58Z"/><ellipse class="cls-1" cx="245.52" cy="81.74" rx="3.81" ry="13.67"/><path class="cls-1" d="M204.13,71a54.5,54.5,0,0,0,.36,25.52.62.62,0,0,0,1.2-.33,53,53,0,0,1-.35-24.86c.18-.78-1-1.11-1.21-.33Z"/><path class="cls-1" d="M226.47,70.19a86.6,86.6,0,0,0-12.58,0c-.79.06-.8,1.31,0,1.25a86.6,86.6,0,0,1,12.58,0c.81,0,.8-1.2,0-1.25Z"/><path class="cls-1" d="M226.47,73.15a86.6,86.6,0,0,0-12.58,0c-.79.06-.8,1.31,0,1.25a86.6,86.6,0,0,1,12.58,0c.81,0,.8-1.2,0-1.25Z"/><path class="cls-1" d="M226.47,77.15a86.6,86.6,0,0,0-12.58,0c-.79.06-.8,1.31,0,1.25a86.6,86.6,0,0,1,12.58,0c.81,0,.8-1.2,0-1.25Z"/><path class="cls-1" d="M193.26,68.43A5.88,5.88,0,0,1,195,65.26a3.18,3.18,0,0,1,.64-.46,4.45,4.45,0,0,1,.71-.37,6.86,6.86,0,0,1,1.84-.41.63.63,0,0,0,0-1.25,6.85,6.85,0,0,0-4,1.56,7.07,7.07,0,0,0-2.1,3.76c-.19.79,1,1.12,1.2.34Z"/><path class="cls-1" d="M237.52,69a36.69,36.69,0,0,0,.54,25.52c.29.74,1.5.41,1.21-.34a35.55,35.55,0,0,1-.54-24.85c.26-.76-.95-1.09-1.21-.33Z"/><path class="cls-6" d="M192.66,117.43,191.4,112s-6.88-13.4-5.58-17.64,5.77-1.64,5.77-1.64L200.7,112s-8.08-20.58-8-24.49,4.14,0,4.14,0-1-3.67,1.38-5.74,6.09,1.09,6.91,3,10.12,14.56,10.12,14.56,1.49,5.16,2,4.6a26.83,26.83,0,0,0,1.86-2.45s-.75-6.1,0-8.34,5.77-2,6.51.19,4.28,6.88,3.72,8.37-.74,6.51-7.62,6.7l-2.8,11.35-20.83,6.94Z"/><path class="cls-7" d="M196.8,87.48s7.37,12.55,8.29,17.44"/><path class="cls-6" d="M144.37,94.34S142,84.7,148.65,77.07s6.33-16.74,8.19-18.6,6.43,2.61,5.17,4.29-6.4,15.62-6.4,15.62,14.25-15.45,16.11-18.24S184.37,57,186.05,58s2.6,4.73,0,6.4-9.31,5.21-9.68,10.61c0,0,13.4-9.87,16.75-3.82s-10.05,11.54-10.05,11.54,10.27-6.42,11.65-4.93S198.8,84.7,192,88.05s-8.52,5.4-8.52,5.4,9-5,11.28-1.49-2.91,7.25-10.16,10.42c0,0,.81,4.85-5.83,7.35-1.28.49-4.95,2-7.47,1.27-8.52-2.61-19-3.84-23.72-6.79C146.47,103.54,144.37,94.34,144.37,94.34Z"/><path class="cls-4" d="M141.77,100.06s13.53,19.33,30.44,19.33-50.74,117.9-62.82,117.9-48.32-2.89-66.68-37.2-26.1-63.79-3.39-77.32,47.36,12.08,51.22,29,13.53.49,13.53.49S123.4,114.07,141.77,100.06Z"/><path class="cls-8" d="M209.88,198.64S188.11,156.27,191,123.09"/><path class="cls-9" d="M97.08,159.15s-12.45,3.48-18.32,22.46"/><path class="cls-2" d="M69.58,288.79c15.82,0,31.64.17,47.45-.44q7.2-.28,14.39-.8L129,284.39a19.84,19.84,0,0,0-.47,5.59,24.15,24.15,0,0,1,0,5l2.41-1.83c-20.05,1.74-40.42,3.56-60.45.56l1.83,2.41c.25-3.29-.45-6.57-.2-9.86a2.51,2.51,0,0,0-2.5-2.5,2.56,2.56,0,0,0-2.5,2.5c-.25,3.29.45,6.57.2,9.86a2.51,2.51,0,0,0,1.84,2.41c20.52,3.08,41.22,1.41,61.78-.38a2.55,2.55,0,0,0,2.41-1.84,25.35,25.35,0,0,0,.27-5.64,17,17,0,0,1,.26-5,2.54,2.54,0,0,0-2.42-3.17c-16.11,1.16-32.26,1.27-48.41,1.25q-6.7,0-13.43,0c-3.21,0-3.22,5,0,5Z"/><path class="cls-10" d="M70.73,298s-4.75,45.51.68,46.25,53.66,3.42,56.54-.23,2-49.46,2-49.46"/><path class="cls-2" d="M188.92,289.7q-5.14-.13-10.27-.64l2.5,2.5c.11-3.3-.81-6.54-.7-9.84a2.51,2.51,0,0,0-2.5-2.5,2.56,2.56,0,0,0-2.5,2.5c-.11,3.3.81,6.54.7,9.84a2.55,2.55,0,0,0,2.5,2.5q5.13.51,10.27.64a2.51,2.51,0,0,0,2.5-2.5,2.55,2.55,0,0,0-2.5-2.5Z"/><path class="cls-2" d="M178,284.22l10.56-.53a2.5,2.5,0,0,0,0-5l-10.56.53a2.5,2.5,0,0,0,0,5Z"/><path class="cls-10" d="M179.7,293.4s-2.44,45.7,3,46.15c1,.09,3.32.16,6.54.21"/><path class="cls-2" d="M140.56,98.6l4.25-6.18s12.67,11.92,33.87,17.62c2.6.7-6.3,8.77-6.3,8.77S150.59,113.76,140.56,98.6Z"/><path class="cls-2" d="M193.76,128.81l-2.68-11.42a14.52,14.52,0,0,0,17.42,2c10.15-5.56,11.66-11.38,11.66-11.38L229,122.77l-17.51,13.55S195.21,139,193.76,128.81Z"/></g></g></svg>