<svg xmlns="http://www.w3.org/2000/svg" viewBox="0 0 221.33 714.45"><defs><style>.cls-1{fill:#d1d4d9;}.cls-2,.cls-4,.cls-5{fill:#fff;}.cls-3{fill:#010101;}.cls-4,.cls-5,.cls-7{stroke:#010101;}.cls-4{stroke-miterlimit:10;stroke-width:5px;}.cls-5,.cls-7{stroke-linejoin:round;stroke-width:4px;}.cls-6{fill:#1c4877;}.cls-7{fill:none;stroke-linecap:round;}</style></defs><title>Asset 13</title><g id="Layer_2" data-name="Layer 2"><g id="Layer_1-2" data-name="Layer 1"><polyline class="cls-1" points="89.46 157.44 100.35 165.36 122.42 146.91 135.44 230.49 135.44 358.86 126.58 378.12 68.53 373.1 67.42 235.24 89.46 159.94"/><path class="cls-2" d="M11.75,693.44c-1.52,12.08,5.28,16.14,16.5,17.71,9.65,1.35,20.81,1.48,29.49-3.49,8.47-4.85,14.66-13.13,21-20.38,7.62-8.75,11.6-15.88,8-27.73Z"/><path class="cls-3" d="M9.25,693.44A19.53,19.53,0,0,0,10.54,704a14.19,14.19,0,0,0,6.15,6.37,29.85,29.85,0,0,0,9.72,3,76,76,0,0,0,13.64,1.06,43.72,43.72,0,0,0,13.57-2.2A38.26,38.26,0,0,0,65.78,705a87.19,87.19,0,0,0,9.41-9.71c3-3.45,6-6.86,8.78-10.47a31.2,31.2,0,0,0,5.94-11.56,27.87,27.87,0,0,0-.79-14.32,2.54,2.54,0,0,0-3.67-1.49L60.06,668.87,19.67,687.13l-9.19,4.15a2.52,2.52,0,0,0-.89,3.42,2.56,2.56,0,0,0,3.42.89l25.38-11.47,40.4-18.26L88,661.71l-3.67-1.49a23.2,23.2,0,0,1,1,10.7,24,24,0,0,1-4,9.11,113,113,0,0,1-7.48,9.18c-2.74,3.23-5.49,6.47-8.53,9.44A41.32,41.32,0,0,1,55.59,706,31.56,31.56,0,0,1,44,709.22a63.83,63.83,0,0,1-12.74-.2,42.72,42.72,0,0,1-9.64-1.94,15.74,15.74,0,0,1-3.78-1.93,9.61,9.61,0,0,1-2.32-2.5,7.46,7.46,0,0,1-.75-1.55,14.15,14.15,0,0,1-.56-2.22,22.16,22.16,0,0,1,.07-5.44,2.51,2.51,0,0,0-2.5-2.5A2.55,2.55,0,0,0,9.25,693.44Z"/><path class="cls-4" d="M49.52,650.26c-7.25,8.7-14.81,16.58-24,23.24-4.91,3.57-11,8.44-13,14.42-2.74,8.28,5.27,12.15,12,14.17a45.26,45.26,0,0,0,27.72-.61c9.62-3.34,15-9.69,21.83-16.69,3-3,7.16-5.14,9.29-8.82,3-5.17,4.3-13.23,2.61-19C81.92,643,60,648,49.52,650.26Z"/><path class="cls-2" d="M42.29,658.88a46.67,46.67,0,0,0,7.19-.07,12,12,0,0,1,6.92,1.49A3.56,3.56,0,0,1,58,662.24"/><path class="cls-3" d="M42.29,661.38c2.83.34,5.65-.16,8.48-.07a8.56,8.56,0,0,1,3.14.52l.47.18c-.21-.08-.18-.06.1.07l.66.38q.36.25.06,0c.12.11.24.21.35.33-.14-.21-.13-.19,0,0s.15.27,0,0a2.5,2.5,0,0,0,4.83-1.33c-1.16-3.52-5-4.83-8.37-5.19s-6.51.38-9.77,0a2.5,2.5,0,0,0-2.5,2.5,2.57,2.57,0,0,0,2.5,2.5Z"/><path class="cls-2" d="M34.85,666c1.62,0,15.12-1.54,16.85,3.21"/><path class="cls-3" d="M34.85,668.48c2.65,0,5.28-.3,7.94-.19l1.33.08.71.07c.15,0,1,.13.2,0a16.93,16.93,0,0,1,2.43.51l.58.19.28.1-.19-.08s.79.42.84.45c.55.32-.26-.28,0,0a3.73,3.73,0,0,0,.35.34c.28.24-.3-.56,0,0,.09.19.3.71,0-.07a2.57,2.57,0,0,0,3.07,1.75,2.52,2.52,0,0,0,1.75-3.08c-1.2-3.1-4.32-4.36-7.41-4.84a44.92,44.92,0,0,0-9.13-.34c-.9,0-1.81.15-2.72.14a2.5,2.5,0,0,0,0,5Z"/><path class="cls-2" d="M28,672.36a27.28,27.28,0,0,1,20.51,4.14"/><path class="cls-3" d="M28.64,674.77a25.6,25.6,0,0,1,18.59,3.89,2.5,2.5,0,0,0,2.52-4.32A30.84,30.84,0,0,0,27.31,670,2.51,2.51,0,0,0,25.57,673a2.55,2.55,0,0,0,3.07,1.75Z"/><path class="cls-2" d="M200.9,693.44c1.51,12.08-5.28,16.14-16.5,17.71-9.66,1.35-20.81,1.48-29.49-3.49s-14.61-13.06-21-20.38c-7.61-8.75-11.59-15.88-8-27.73"/><path class="cls-3" d="M198.4,693.44a22.89,22.89,0,0,1,.11,5.1,12.44,12.44,0,0,1-.33,1.68,7.15,7.15,0,0,1-.55,1.57,10.77,10.77,0,0,1-.94,1.56c-.16.23,0,0,0,0-.1.13-.2.25-.31.37s-.49.53-.75.78a11.71,11.71,0,0,1-2.92,1.91,31.46,31.46,0,0,1-8.67,2.31,69.36,69.36,0,0,1-12.3.73,37.89,37.89,0,0,1-12-2.21,33.2,33.2,0,0,1-10.21-6.49,92,92,0,0,1-8.72-9.16c-2.66-3.1-5.41-6.15-7.91-9.37a27.63,27.63,0,0,1-5.31-10,22.53,22.53,0,0,1,.71-12c.91-3.09-3.91-4.41-4.83-1.33a28.83,28.83,0,0,0-1.06,12.88,26.81,26.81,0,0,0,4.41,10.49,116.35,116.35,0,0,0,8.34,10.34,127.92,127.92,0,0,0,9.19,10.14,43.54,43.54,0,0,0,11,8,39.51,39.51,0,0,0,13.85,3.51,65.14,65.14,0,0,0,13.53-.42,41.08,41.08,0,0,0,10.74-2.4,15.8,15.8,0,0,0,8-6.49c2-3.47,2.26-7.63,1.8-11.52a2.57,2.57,0,0,0-2.5-2.5,2.51,2.51,0,0,0-2.5,2.5Z"/><path class="cls-4" d="M163.13,650.26c7.25,8.7,14.8,16.58,24,23.24,4.91,3.57,11,8.44,13,14.42,2.74,8.28-5.27,12.15-12,14.17a45.23,45.23,0,0,1-27.71-.61c-9.62-3.34-15-9.69-21.83-16.69-2.95-3-7.16-5.14-9.3-8.82-3-5.17-4.29-13.23-2.6-19C130.72,643,152.68,648,163.13,650.26Z"/><path class="cls-2" d="M170.36,658.88a46.67,46.67,0,0,1-7.19-.07,12,12,0,0,0-6.93,1.49,3.6,3.6,0,0,0-1.61,1.94"/><path class="cls-3" d="M170.36,656.38c-3.26.39-6.52-.33-9.78,0s-7.2,1.67-8.36,5.19a2.51,2.51,0,0,0,1.75,3.07,2.54,2.54,0,0,0,3.07-1.74c-.12.23-.11.22,0,0s.17-.26,0,0c.11-.12.22-.22.34-.33-.16.13-.17.14,0,0s.5-.3.76-.45.3-.15.09-.07l.48-.18a8.49,8.49,0,0,1,3.14-.52c2.83-.09,5.65.41,8.48.07a2.57,2.57,0,0,0,2.5-2.5c-.06-1.22-1.11-2.67-2.5-2.5Z"/><path class="cls-2" d="M177.8,666c-1.62,0-15.13-1.54-16.85,3.21"/><path class="cls-3" d="M177.8,663.48c-2.09,0-4.18-.24-6.27-.23a23.46,23.46,0,0,0-9.47,1.57,6.56,6.56,0,0,0-3.52,3.7,2.52,2.52,0,0,0,1.74,3.08,2.56,2.56,0,0,0,3.08-1.75c-.3.78-.09.26,0,.07.27-.53-.32.27,0,0a2.81,2.81,0,0,0,.35-.34c.26-.27-.54.33,0,0l.84-.45-.2.08.28-.1.59-.19a16.65,16.65,0,0,1,2.43-.51c-.76.12,0,0,.2,0l.7-.07,1.34-.08c2.66-.11,5.29.21,7.94.19a2.5,2.5,0,0,0,0-5Z"/><path class="cls-2" d="M184.67,672.36a27.27,27.27,0,0,0-20.51,4.14"/><path class="cls-3" d="M185.33,670a30.84,30.84,0,0,0-22.44,4.39,2.55,2.55,0,0,0-.89,3.42,2.52,2.52,0,0,0,3.42.9A25.56,25.56,0,0,1,184,674.77a2.58,2.58,0,0,0,3.08-1.75,2.51,2.51,0,0,0-1.75-3.07Z"/><path class="cls-5" d="M82.75,107.3v36.21s10.32,23.24,20.19,21.78c9.44-1.4,23.48-26.77,23.48-26.77v-32.7Z"/><path class="cls-2" d="M137.64,69.36c0-3.62,0-7.24,0-10.85,0-3.13,1.55-11.63,0-14.39s-8.19-2.73-11.76-3.41c-18.64-3.55-41.83-4.05-60.47-7.59C64.76,47.17,64.35,58.55,67,72.26c-5.14-1-9.89.21-7.61,9.3,2.47,9.89,6.79,11.93,10.11,11.81,1.77,8.06,5,15.8,10.25,21.83,14.85,17.06,42.69,13.25,52.37-6.89a56,56,0,0,0,4.95-18.09c3.16-.3,6.92-2.8,9.16-11.78C148.65,68.78,143.13,68,137.64,69.36Z"/><path class="cls-3" d="M77.31,60.44a19.33,19.33,0,0,1,12.33,1.39,2,2,0,0,0,2.6-.68,1.92,1.92,0,0,0-.68-2.6A23.63,23.63,0,0,0,76.3,56.78a1.9,1.9,0,1,0,1,3.66Z"/><path class="cls-3" d="M112.34,56.42A21.73,21.73,0,0,1,125.65,54a1.91,1.91,0,0,0,1.9-1.9,1.94,1.94,0,0,0-1.9-1.9,25.27,25.27,0,0,0-15.23,2.89,1.9,1.9,0,1,0,1.92,3.29Z"/><path class="cls-3" d="M80.54,75.94a5.39,5.39,0,0,0,2,0,3,3,0,0,0,.78-.1,3.56,3.56,0,0,0,1.91-1.41,3.36,3.36,0,0,0-.64-4.24,3.5,3.5,0,0,0-.85-.59,3.94,3.94,0,0,0-1.51-.4,4.08,4.08,0,0,0-2.17.52,4.22,4.22,0,0,0-1.63,1.56A3.19,3.19,0,0,0,78,72.83a3,3,0,0,0,.37,1.48A3.42,3.42,0,0,0,80.54,75.94Z"/><path class="cls-3" d="M120.29,69.08a3.48,3.48,0,0,0-.59-.78,4.05,4.05,0,0,0-.77-.61,4.21,4.21,0,0,0-2-.57,4.93,4.93,0,0,0-.54,0,4.51,4.51,0,0,0-.53.1,3.07,3.07,0,0,0-1,.45,1.5,1.5,0,0,0-.54.49,1.63,1.63,0,0,0-.23.35,1.49,1.49,0,0,0-.48.55,4.37,4.37,0,0,0-.27.68,4.75,4.75,0,0,0-.12.74,3.59,3.59,0,0,0,.08,1,3.73,3.73,0,0,0,.34,1,3.82,3.82,0,0,0,.58.86,3.73,3.73,0,0,0,1.66,1.1,3.32,3.32,0,0,0,1,.17,4.23,4.23,0,0,0,.5,0,2.56,2.56,0,0,0,.54-.1,3.63,3.63,0,0,0,.94-.43,4.66,4.66,0,0,0,.8-.67,4.21,4.21,0,0,0,.6-.85,4,4,0,0,0,.36-1,4.53,4.53,0,0,0,.08-.73,4,4,0,0,0-.08-.78A3.62,3.62,0,0,0,120.29,69.08Z"/><path class="cls-3" d="M113.69,101.76a4.44,4.44,0,0,1-.86,1.37,6,6,0,0,1-1.68,1.27,14.65,14.65,0,0,1-4.7,1.64,22.52,22.52,0,0,1-5,.48,19.87,19.87,0,0,1-2.31-.13l-.51-.07h-.16q-.51-.1-1-.24c-2.35-.71-3.47,2.93-1.13,3.63a23.48,23.48,0,0,0,11.45,0c3.89-.86,8.14-2.76,9.57-6.77C118.15,100.57,114.51,99.46,113.69,101.76Z"/><path class="cls-3" d="M146.45,68.09a8.25,8.25,0,0,0-5.08-1.5c1.6-4.49,4.54-14.42,3.93-25.09a23.53,23.53,0,0,0-10.58-18.78l9.11-3.18s-2.9-3.44-13.72-5.64c-16.38-4.05-21.5-2.21-21.5-2.21L113,.32c-3,2.18-12.07,3.59-19.7,5.82A71,71,0,0,0,81.4,10.93V0s-4.05,4.34-11,11.32a18.46,18.46,0,0,0-5.64,13.6A20.71,20.71,0,0,0,61,23.41a16.13,16.13,0,0,0-8.39-.05c-1.78.45-1,3.2.76,2.75a13,13,0,0,1,7.08.12,17.52,17.52,0,0,1,2.7,1.09c-2.25,1.68-5.93,6.11-5.93,17.1,0,12.09,3.07,20.32,5.89,25.35a7.43,7.43,0,0,0-3.95,1.44c-2.63,2-3.3,5.69-2,10.9,1.78,7.1,4.76,11.47,8.87,13a8.5,8.5,0,0,0,1.64.44c2.09,8.4,5.6,15.71,10.35,21.17a33.76,33.76,0,0,0,25.54,11.57,34.81,34.81,0,0,0,4.65-.31,33.59,33.59,0,0,0,26-18.67,56.58,56.58,0,0,0,4.94-17.17l.46-.14c4.11-1.52,7.09-5.88,8.87-13C149.75,73.78,149.08,70.12,146.45,68.09ZM72.94,40c2.94,9.93,17.65,11.77,17.65,11.77s-5.91-8.17-5.12-12.21c0,0,4.39,4.81,27.92,6.64,13.19,1,19.22,9,22,15.84v.56c0,1.61,0,3.24,0,4.89a12.06,12.06,0,0,0-2.49-4.55c-2.27-2.56-5.68-4-9.87-4.23-5.86-.29-10.86,1.34-14.08,4.59a12.59,12.59,0,0,0-2.86,4.53,13.82,13.82,0,0,0-4.83-.48,16.77,16.77,0,0,0-5.36,1.17,12.61,12.61,0,0,0-3.1-4c-3.2-2.72-7.89-3.92-13.19-3.37-4.85.49-8.43,2.21-10.66,5.09a7.25,7.25,0,0,0-.5.73.51.51,0,0,1,0-.13C70,47.45,72.94,40,72.94,40Zm59.23,33.47c-.48,6.77-6.47,9.84-11.87,9.84h-.08c-5.3,0-10.82-3-11.2-9.6A9.68,9.68,0,0,1,111.61,66c2.23-2.25,5.87-3.5,10.1-3.5l1.09,0c3.19.16,5.62,1.15,7.22,2.95S132.41,70.09,132.17,73.47ZM61.6,81c-.8-3.19-.67-5.39.35-6.18a3.79,3.79,0,0,1,2.28-.58,8.4,8.4,0,0,1,.85.05c.13.66.28,1.32.43,2a79.54,79.54,0,0,0,1.08,14C64.49,88.9,62.78,85.73,61.6,81ZM71.91,68.55c1.57-2,4.28-3.25,8-3.64.72-.07,1.41-.11,2.09-.11a12.59,12.59,0,0,1,8.25,2.6,9.81,9.81,0,0,1,3.26,7.22,11.33,11.33,0,0,1-.09,2.28,1.81,1.81,0,0,0-.16.76s0,0,0,.06c-1.09,4.71-5.41,7.27-9.82,7.73-5.52.58-11.94-2-13-9C70,73.11,70.44,70.45,71.91,68.55Zm58.15,38.77a29.52,29.52,0,0,1-48.59,6.38c-6-6.89-9.85-17.15-11-28.94A16.11,16.11,0,0,0,82,89.34c.63,0,1.26,0,1.88-.1a17.06,17.06,0,0,0,6.95-2.3,13.91,13.91,0,0,0-.52,2.63c-.3,3.21,1.37,6.61,4.59,7.52a23.22,23.22,0,0,0,7.34.62,21.19,21.19,0,0,0,7.91-1.59,5.63,5.63,0,0,0,2.74-2.38,4.4,4.4,0,0,0-.2-4.18c-1.15-2.16-4.44-.24-3.29,1.92l.14.28h0c-.26-.51-.06-.07,0,0a.22.22,0,0,1,0,.14.11.11,0,0,1,0,.06l0,.06,0,0h0l-.31.27-.29.19c-.2.11-.42.21-.62.31h0l-.3.11-.71.22a15.39,15.39,0,0,1-1.63.38c-.28.06-.56.1-.84.14l-.06,0h0l-.31,0q-1,.1-1.92.15a30,30,0,0,1-3.42,0c-.46,0-.91-.07-1.36-.12l-.45-.06c-.27,0-.54-.1-.8-.16s-.62-.2-.93-.27l-.08,0c-.07-.18-.52-.52-.63-.67a3.82,3.82,0,0,1-.46-.9,4.31,4.31,0,0,1-.17-2,26.27,26.27,0,0,1,1.6-5.43,22.74,22.74,0,0,0,1.38-5.86,15.2,15.2,0,0,0,.28-4c0-.5-.08-1-.15-1.48a12.06,12.06,0,0,1,4.28-1,8.31,8.31,0,0,1,3.72.46c0,.51,0,1,0,1.56.53,9,8.13,13.14,15,13.18h.11c6.45,0,13.18-3.54,15.14-10.38C135.44,87.51,134.59,97.9,130.06,107.32Zm14-29.43c-1.05,4.22-2.54,7.19-4.33,8.77.36-5,.36-10.2.26-15.41a5.24,5.24,0,0,1,3.72.46C144.69,72.5,144.82,74.7,144,77.89Z"/><path class="cls-3" d="M104.64,363.45H34.56L47.18,650.77s13.93,5.24,18.81,6c4.69.73,19,0,19,0s5.61-224,19.64-224,19.65,224,19.65,224h17.08c5.18,0,20.74-6,20.74-6l12.62-287.32Z"/><path class="cls-6" d="M221.25,262.9c-.72-5.34-4.22-18-4.22-18s-2.41-33-4.63-56.14c-2.26-23.57-40.86-40.46-40.86-40.46-9-5.26-21.93-6.64-23.89-9.79-2.39-3.86-12.21-10.25-18.16-11.43-1.28-.25-1.4.69-2.17,1.9-2.46,11.18-9.44,16.59-9.44,16.59l5.3,7.24S122.07,248,123,275.88c.86,26.3-3.35,105.21-3.35,105.21s-.19,14.15,5.82,16.3c15.11,5.38,55.27-8.6,55.27-8.6-2.48-9.67-2.24-29.2-2.57-58.5-.38-32.5-5.77-71.06-4.93-101.53,2.52,9.28-2.78,36.45-4.13,37.81-3.33,3.38,4.43,23.76,13.34,26.52,9.53,3,24.81-2.25,30.46-7.71C217.21,281.21,222,268.81,221.25,262.9Z"/><path class="cls-6" d="M27,156.09v67.33c3.3,1.08,4.43,3.12,4.53,6.41,0,0-1,0-1,0,1.9,60.93-2.65,133.59-4.35,163.19,0,0,42,11.46,56.57,2.88,5.09-3,3.55-13.71,3.55-13.72s-13-168.36,7.27-218.08c2.33-5.71,3.19-8.75-1.72-11C87.56,151.1,78.3,143.7,81,125c0,0-17.74,10.6-19.33,16.53"/><path class="cls-5" d="M81.58,129.32s.43-9.76,4-11.47,3.68,9.32,3.68,9.32Z"/><path class="cls-2" d="M129.07,144.27a2,2,0,0,0-.39-.53,2.65,2.65,0,0,0-1.86-.78,2.09,2.09,0,0,0-.36,0,1.51,1.51,0,0,0-.36.06,2.09,2.09,0,0,0-.64.3,1,1,0,0,0-.36.33,1.14,1.14,0,0,0-.15.23.87.87,0,0,0-.32.37,3,3,0,0,0-.19.45,4.13,4.13,0,0,0-.07.49,2.21,2.21,0,0,0,0,.68,2.59,2.59,0,0,0,.23.64,2.7,2.7,0,0,0,.38.57,2.51,2.51,0,0,0,1.11.73,1.94,1.94,0,0,0,.68.11,1.23,1.23,0,0,0,.33,0,1.91,1.91,0,0,0,.36-.07,2.4,2.4,0,0,0,.63-.29,2.48,2.48,0,0,0,.53-.44,3.17,3.17,0,0,0,.4-.56,2.68,2.68,0,0,0,.24-.67c0-.16.05-.32.06-.49a3,3,0,0,0-.06-.51A2,2,0,0,0,129.07,144.27Z"/><path class="cls-2" d="M131.77,175.49a2.83,2.83,0,0,0-.39-.52,2.57,2.57,0,0,0-.52-.4,2.77,2.77,0,0,0-1.35-.38l-.36,0a2.29,2.29,0,0,0-.36.07,2.2,2.2,0,0,0-.64.3,1,1,0,0,0-.36.33.91.91,0,0,0-.15.23.85.85,0,0,0-.32.36,2.58,2.58,0,0,0-.18.46,2.78,2.78,0,0,0-.08.49,2.21,2.21,0,0,0,0,.68,2.59,2.59,0,0,0,.23.64,2.63,2.63,0,0,0,.38.56,2.45,2.45,0,0,0,1.11.74,2,2,0,0,0,.68.11l.34,0a2.29,2.29,0,0,0,.36-.07,2.5,2.5,0,0,0,.62-.29,2.82,2.82,0,0,0,.53-.44,2.54,2.54,0,0,0,.4-.57,2.61,2.61,0,0,0,.24-.66,3.86,3.86,0,0,0,.06-.49,2.84,2.84,0,0,0-.06-.51A2.45,2.45,0,0,0,131.77,175.49Z"/><path class="cls-2" d="M131.08,207.49a2.44,2.44,0,0,0-.39-.52,2.65,2.65,0,0,0-1.87-.78l-.36,0a2,2,0,0,0-.35.07,2.14,2.14,0,0,0-.65.3.93.93,0,0,0-.35.33.73.73,0,0,0-.16.23,1,1,0,0,0-.32.36c-.06.15-.13.3-.18.46a4.17,4.17,0,0,0-.08.49,3.07,3.07,0,0,0,0,.68,2.8,2.8,0,0,0,.23.63,2.5,2.5,0,0,0,.39.57,2.4,2.4,0,0,0,1.11.74,1.92,1.92,0,0,0,.67.11c.12,0,.23,0,.34,0a2.29,2.29,0,0,0,.36-.07,2.56,2.56,0,0,0,.63-.29,2.75,2.75,0,0,0,.52-.44,2.54,2.54,0,0,0,.4-.57,2.28,2.28,0,0,0,.24-.66,2.63,2.63,0,0,0,.06-.49,2.84,2.84,0,0,0-.05-.51A2.48,2.48,0,0,0,131.08,207.49Z"/><path class="cls-2" d="M131.77,239.86a2.9,2.9,0,0,0-.39-.53,2.57,2.57,0,0,0-.52-.4,2.77,2.77,0,0,0-1.35-.38,2.2,2.2,0,0,0-.36,0,1.51,1.51,0,0,0-.36.06,2.2,2.2,0,0,0-.64.3,1,1,0,0,0-.36.33,1.14,1.14,0,0,0-.15.23.87.87,0,0,0-.32.37,2.23,2.23,0,0,0-.18.45,2.78,2.78,0,0,0-.08.49,2.21,2.21,0,0,0,0,.68,2.59,2.59,0,0,0,.23.64,2.7,2.7,0,0,0,.38.57,2.51,2.51,0,0,0,1.11.73,2,2,0,0,0,.68.11,1.34,1.34,0,0,0,.34,0,2.29,2.29,0,0,0,.36-.07,2.15,2.15,0,0,0,.62-.28,2.53,2.53,0,0,0,.53-.45,2.73,2.73,0,0,0,.4-.56,2.68,2.68,0,0,0,.24-.67,3.93,3.93,0,0,0,.06-.48,3,3,0,0,0-.06-.52A2.26,2.26,0,0,0,131.77,239.86Z"/><path class="cls-2" d="M131.08,310.27a2.44,2.44,0,0,0-.39-.52,2.65,2.65,0,0,0-1.87-.78,2.2,2.2,0,0,0-.36,0,1.35,1.35,0,0,0-.35.06,2.14,2.14,0,0,0-.65.3.93.93,0,0,0-.35.33.73.73,0,0,0-.16.23,1,1,0,0,0-.32.37,4.69,4.69,0,0,0-.18.45,4.17,4.17,0,0,0-.08.49,2.51,2.51,0,0,0,.28,1.32,2.44,2.44,0,0,0,.39.56,2.4,2.4,0,0,0,1.11.74,1.92,1.92,0,0,0,.67.11c.12,0,.23,0,.34,0a2.29,2.29,0,0,0,.36-.07,2.56,2.56,0,0,0,.63-.29,2.75,2.75,0,0,0,.52-.44,2.54,2.54,0,0,0,.4-.57,2.28,2.28,0,0,0,.24-.66,2.63,2.63,0,0,0,.06-.49,2.84,2.84,0,0,0-.05-.51A2.48,2.48,0,0,0,131.08,310.27Z"/><path class="cls-2" d="M130.26,342.25a2.44,2.44,0,0,0-.39-.52A2.65,2.65,0,0,0,128,341c-.13,0-.25,0-.37,0a2,2,0,0,0-.35.07,2.26,2.26,0,0,0-.65.3,1,1,0,0,0-.35.33.91.91,0,0,0-.15.23.85.85,0,0,0-.32.36,3.71,3.71,0,0,0-.19.46,2.76,2.76,0,0,0-.07.49,2.21,2.21,0,0,0,0,.68,3,3,0,0,0,.22.64,2.68,2.68,0,0,0,.39.56,2.45,2.45,0,0,0,1.11.74,1.94,1.94,0,0,0,.68.11l.33,0a1.91,1.91,0,0,0,.36-.07,2.4,2.4,0,0,0,.63-.29,2.82,2.82,0,0,0,.53-.44,2.91,2.91,0,0,0,.4-.57,2.61,2.61,0,0,0,.24-.66,3.87,3.87,0,0,0,.05-.49,2.15,2.15,0,0,0-.05-.51A2.48,2.48,0,0,0,130.26,342.25Z"/><path class="cls-5" d="M37.94,248.88S27,272.07,66.29,275.57c29.5,2.62,34.65-81.74,31.13-93.72,0,0,9.15-13.69,7.29-20.72s14.65-6.46,14-11.35-1.32-5.8-2.66-5.61c0,0,3.43-4.6-2.62-6.64,0,0,2.88-7.72-2.21-9.58s-6.15-1.24-6.15-1.24,3.88-5.13-1-6.41-22.17,7.22-25.13,12-3.19,27.21-.62,31.83-22.44,48.74-25.74,54.62Z"/><path class="cls-5" d="M170.65,252.94s-59.92,18.53-74.25,25.17c-14.16,3.63-22.65-2.34-22.65-2.34S57.27,269.66,50,284.91c-3.37,7.08,5.19,8.17,16.4,9.45,12.92,1.48,29,2.55,29,2.55s51.55,6.4,90.22-8C195.73,268.27,170.65,252.94,170.65,252.94Z"/><path class="cls-2" d="M150.63,410.78a31.78,31.78,0,0,0,13.15,23.88c1.31.94,2.56-1.22,1.27-2.16a29.08,29.08,0,0,1-11.92-21.72c-.09-1.6-2.59-1.61-2.5,0Z"/><path class="cls-2" d="M60.32,411.05a32.75,32.75,0,0,1-11,18.25c-1.23,1,.54,2.79,1.77,1.77a35,35,0,0,0,11.64-19.36c.33-1.57-2.08-2.24-2.41-.66Z"/><path class="cls-6" d="M31,154.09S2,163.94.38,178.59c-.65,5.71-.41,15.07.3,18.77s19.19,73.88,22.87,76.88,25.76,31.95,45,18,18.65-16.82,18.16-29.1c0,0-5.48,12.21-19,7.4-16.25-5.75-21-9.88-25.09-12.22-3.79-2.14-7.58-12.56-4.91-15.22s9.77-23.34,9.77-23.34Z"/><path class="cls-3" d="M30.94,165.14c4.73,8.21,7.92,17,10.94,26,3.2,9.49,4.83,19.38,7.57,29,.65,2.31,4.27,1.33,3.61-1-2.16-7.59-3.59-15.36-5.7-22.95A177.68,177.68,0,0,0,40,175.1a106.94,106.94,0,0,0-5.85-11.86c-1.21-2.09-4.45-.2-3.24,1.9Z"/><path class="cls-3" d="M27.11,260.43a16.87,16.87,0,0,1,1.25-2.38c.23-.37.49-.73.74-1.09s-.21.26.16-.2c.15-.2.31-.39.47-.57.51-.59,1.05-1.15,1.62-1.69.3-.27.6-.54.92-.81l.46-.38.2-.16c-.16.12-.15.12,0,0a29.24,29.24,0,0,1,3.5-2.24c.53-.29,1.06-.56,1.6-.81l.32-.14c.18-.08.46-.33,0,0a2.5,2.5,0,0,1,.61-.24,1.93,1.93,0,0,0,1.31-2.31,1.88,1.88,0,0,0-2.3-1.31c-5.91,2.26-11.6,6.55-14.16,12.47a1.93,1.93,0,0,0,.67,2.56,1.88,1.88,0,0,0,2.57-.67Z"/><path class="cls-3" d="M70.58,279.86C59.81,279,49.05,274.56,42,266.18c-1.56-1.85-4.2.82-2.65,2.65C47,278,58.87,282.68,70.58,283.61c2.4.19,2.39-3.56,0-3.75Z"/><path class="cls-3" d="M187.4,241.43c7.53,1.89,13.25,6.88,16.92,13.64,3.44,6.35,5.12,13.64,6,20.78.25,2.11.83,4.35.1,6.41a6.53,6.53,0,0,1-1.73,2.7c-1.78,1.65.88,4.29,2.65,2.66a10.81,10.81,0,0,0,3-9.66c-.58-4-1-7.93-1.93-11.85-1.87-7.84-5.21-15.75-11.17-21.37a28.73,28.73,0,0,0-12.78-6.93c-2.34-.58-3.34,3-1,3.62Z"/><path class="cls-3" d="M174.39,253.41c.48-7.08.32-14.23.43-21.32.15-9.11.28-18.26,1.09-27.35.29-3.19.42-6.29,1.63-9.38a1.9,1.9,0,0,0-1.31-2.31,1.93,1.93,0,0,0-2.31,1.31,33.37,33.37,0,0,0-1.58,8.53c-.45,4.27-.67,8.56-.84,12.85-.38,9.23-.45,18.47-.59,27.71,0,3.32,0,6.65-.27,10-.17,2.41,3.58,2.4,3.75,0Z"/><path class="cls-3" d="M173.7,254.24a36.86,36.86,0,0,1,25-16.27c2.38-.39,1.37-4-1-3.62a40.49,40.49,0,0,0-27.23,18c-1.31,2,1.93,3.91,3.23,1.89Z"/><path class="cls-6" d="M174.43,253.16l-4.82,2.22S188.9,278.88,181,292.5H189l3.63-19.6-6.7-16.18Z"/><path class="cls-3" d="M173.72,253.46a31.83,31.83,0,0,1,6.62,5.12,13.93,13.93,0,0,1,2.23,2.85q.26.44.48.87l.2.4s.23.54.1.21a13.08,13.08,0,0,1,.58,1.87,1.88,1.88,0,1,0,3.62-1c-1.43-6.15-6.84-10.41-11.94-13.56a1.88,1.88,0,1,0-1.89,3.24Z"/><path class="cls-3" d="M148.07,140.83a43.05,43.05,0,0,1-2.26,3.82c-.36.53-.88,1.27-1.17,1.64l-.2.25-.35.42c-.23.28-.47.55-.71.82-.45.48-.91.94-1.39,1.37-.26.24-.53.46-.8.68.29-.24-.14.1-.16.12l-.42.29a13.41,13.41,0,0,1-1.6.94l-.45.21c-.49.23.34-.12-.17.07-.31.11-.62.22-.95.31a1.88,1.88,0,1,0,1,3.62c6.07-1.79,10-7.35,12.87-12.66a1.88,1.88,0,1,0-3.24-1.9Z"/><path class="cls-3" d="M176.14,246.35c3.92-9.33,9.66-20.09,19.61-24.08a1.93,1.93,0,0,0,1.31-2.3,1.89,1.89,0,0,0-2.31-1.31c-11.37,4.56-17.71,16-22.23,26.7a1.88,1.88,0,0,0,1.31,2.3,1.93,1.93,0,0,0,2.31-1.31Z"/><path class="cls-7" d="M32.56,281.74S49.73,295.29,64.42,296"/></g></g></svg>