<svg xmlns="http://www.w3.org/2000/svg" viewBox="0 0 280.46 538.71"><defs><style>.cls-1{fill:#fff;}</style></defs><title>Asset 1</title><g id="Layer_2" data-name="Layer 2"><g id="Layer_1-2" data-name="Layer 1"><g id="aYHtco.tif"><path d="M47.56,28.44c-3.79-.6-4.19-1.32-3-4.9C47.6,14.13,56,9.13,65.63,11.2c2.7.58,4.21.12,6-2.14,6-7.44,14.07-10.26,23.4-8.6s15,7.67,17.81,16.37c1.14,3.5,1.33,7.32,1.93,11,.23,1.39.37,2.8.61,4.19.2,1.14.6,2.27.7,3.42.38,4.74,1,8.94,4.17,13.27,5.29,7.24,2.17,16.22-5.87,20.33a5.11,5.11,0,0,0-3,4.13c-1.23,6.54-4.16,12.09-9.85,15.91-2.14,1.44-1.15,3.63-1.07,5.49,0,.44,1.65,1.07,2.58,1.16,5.16.47,9.06,3.47,13.06,6.31a16.1,16.1,0,0,0,3.33,2.11c6,2.29,12.06,4.38,18,6.69,2.12.83,2.75.1,3.24-1.85q6.71-26.91,13.59-53.76c.86-3.35,1.76-6.88,3.54-9.77,4-6.46,12.16-9.41,19.73-7.51C198.78,43.26,219.9,48.68,241,54c8.07,2.05,16.14,4.1,24.22,6.06,11.6,2.81,17.36,12,14.48,23.5q-11.93,47.49-24,94.94Q249,205.29,242.27,232a18.07,18.07,0,0,1-22.08,13.36q-15.41-3.78-30.76-7.74c-1.78-.46-3.07-.38-4.48,1a10.8,10.8,0,0,1-4.24,2.51c-6,1.87-12,2.64-18.1.22-2.94-1.16-6.05-1.86-9-2.93-2.32-.83-4.54-1.92-7.06-3-.07,1.13-.21,2.26-.2,3.38q.16,20.87.38,41.73a14.87,14.87,0,0,1-3.2,9.75,6.42,6.42,0,0,0-1.1,3.45q-1.95,40.05-3.78,80.1c-.92,19.46-1.8,38.93-2.8,58.39-.84,16.38-1.46,32.79-2.93,49.12a30.77,30.77,0,0,0,4.92,19.85c1.34,2.15,3.35,3.89,5.11,5.77,4.15,4.41,6.78,9.44,6.63,15.67-.16,6.93-3.46,11.66-9.92,14.14-13.45,5.17-28.64-.65-34.38-13.52-1.93-4.34-3.08-8.63-7.23-12-4-3.23-5.06-8.74-4.36-14,.73-5.59,2-11.11,2.63-16.71.59-5.45.64-11,.87-16.46.74-18.05,1.53-36.1,2.17-54.16.38-10.72,1.22-21.5.55-32.18-.69-11-2.93-21.94-4.54-32.9S92.06,323,90.4,312c-.3-2-.7-3.93-1-5.9-.3-1.78-1.14-2.95-3.13-2.83s-3.95.2-4.41,2.73c-.91,5.08-1.94,10.14-2.68,15.25-2.52,17.31-5.27,34.59-7.25,52-1.26,11.14-1.41,22.42-1.89,33.65-.67,15.63-1.19,31.28-1.75,46.92-.32,8.66-.62,17.31-.84,26a6,6,0,0,0,.88,2.5c.69,1.4,1.87,2.69,2.14,4.16.87,4.75,1.57,9.54,2,14.34.45,4.48-2,7.71-5.56,9.93-2.81,1.75-4,4-4.49,7.21-2,12.06-14.5,21.5-27.18,20.7a34.89,34.89,0,0,1-7.61-1.27c-12.39-3.66-13.34-15.38-9.59-23.26a26.13,26.13,0,0,1,5.53-7.61c4.54-4.29,6.78-9.67,9.05-15.29,2.06-5.11,1.66-10.22,1.58-15.39q-.55-35.71-1.25-71.45t-1.31-71.44c-.24-13.16-.38-26.32-.76-39.47-.09-3.13-1.09-6.22-1.46-9.35a177.46,177.46,0,0,1,1.35-51.75c1.16-6.63,1.6-13.39,2.32-20.09a13.93,13.93,0,0,0-.26-2.58,56,56,0,0,1-6,4.14C20,217.25,13.09,216.3,6.68,213c-4.46-2.3-5.94-7-6.45-11.81-.76-7.08.45-13.95,2.4-20.71,5.45-18.87,11-37.7,16.4-56.58,1.22-4.29,3.47-7.16,7.73-8.64,10.54-3.68,21-7.48,31.51-11.28a5.73,5.73,0,0,0,2.2-1.44c1.24-1.35,2.17-3,3.49-4.24,2.45-2.27,2.22-5,1.8-7.86A2.37,2.37,0,0,0,65,89c-5-3.47-7.35-8.69-9.16-14.21-.54-1.64-1.17-2.56-3.2-2.69a9.36,9.36,0,0,1-8.27-6,20.24,20.24,0,0,1-.46-14.63,4.33,4.33,0,0,1,1.35-2.34c2.47-1.5,2.06-3.46,1.56-5.78C45.68,38.34,45.42,33.32,47.56,28.44ZM58.07,168.76c-.68,1-1.42,2-2,3.12-5.17,9-10.15,18.16-15.56,27a18.3,18.3,0,0,0-3.18,10.64,140.72,140.72,0,0,1-2.2,24.28,179.68,179.68,0,0,0-.94,51.72c.52,4.14,2.38,5,5.86,2.65a12.41,12.41,0,0,0,3.64-3.34,73.49,73.49,0,0,0,6.15-10.79,218.72,218.72,0,0,0,12-39c1.91-8.83,4-17.85,4.1-26.8.15-16-1.17-32.08-1.89-48.12a8.16,8.16,0,0,0-.48-1.68l-.71-.11q-2.41,5.26-4.84,10.52ZM276.14,79.6c0-8-4.43-13.31-11.07-15l-43.54-11C206.69,49.8,191.86,46,177,42.31c-7.94-2-15.47,2.25-17.41,9.8-3.35,13-6.61,26.13-9.9,39.2q-8.07,32.07-16.15,64.13c-3.92,15.56-7.69,31.16-11.85,46.66-1.7,6.34,2.56,14.38,10.23,16.52,3.92,1.1,7.89,2.07,11.85,3,4.24,1,4.21,1,5.25-3.2.61-2.45,1.29-5.46,4.06-5.76,3.28-.36,6.88-1.13,9.88-.47s6.1,1.91,9.36,2.42c1.54.25,2.54,3,4.18,3.7,1.87.75,4.17.95,4.77,3a23.07,23.07,0,0,1,.78,7.49c-.11,1.8.21,2.52,2,2.95,12.2,3,24.35,6.22,36.56,9.17,8.62,2.08,15.58-2.38,17.71-11q1.35-5.44,2.73-10.89,6.91-27.19,13.84-54.38,9.25-36.66,18.43-73.34C274.4,87,275.43,82.5,276.14,79.6ZM126,273.35c-2-2.59-4.43-4.83-5.86-7.56A167.55,167.55,0,0,1,112,248.14c-5.37-14-9.52-28.55-10.61-43.53-.92-12.5-.35-25.13,0-37.69.32-13.23,1.1-26.44,1.66-39.66a7.08,7.08,0,0,0-.41-1.66c-9.83,8.45-21.48,6.39-32.79,6.71a5.07,5.07,0,0,0,.34,1.24c2.28,4.11,2,8-.72,11.84a3.33,3.33,0,0,0-.58,1.1c-.36,1.51-1,3-.92,4.54.8,12.71,2.07,25.4,2.52,38.12.35,10,.63,20.08-.68,29.9-2.19,16.34-6.74,32.24-12.17,47.84-.94,2.71-1.9,5.42-2.85,8.13C65.51,279.06,118.75,277.76,126,273.35ZM50,127.1c-.66.93-1,1.36-1.31,1.85-5.6,10.23-11.21,20.45-16.75,30.7-3.68,6.81-7,13.82-13.16,18.94-1.33,1.1-2.56,2.57-4.23.92s-.3-2.78.77-4.07c2.82-3.36,6.05-6.52,8.18-10.28,8-14.06,15.54-28.33,23.3-42.5a7.09,7.09,0,0,1,2.46-3c4.17-2.11,6.17-5.11,6-10.33-9.85,3.84-19.54,7.56-29.16,11.45a4.43,4.43,0,0,0-1.91,2.67Q15.52,152.66,7,181.9C5.22,188,4,194.22,4.75,200.63c.36,3.2,1.23,6.25,4,8.27,4.76,3.41,14,3.16,18.26-.81a49.57,49.57,0,0,0,7-8.06C46.64,182,55.73,162,65.59,142.44c1-1.89-.18-2.42-1.46-2.88C58,137.34,52.9,133.81,50,127.1Zm60.28,100.31a22.16,22.16,0,0,1,3.93-1.52c.62-.11,1.38.59,2.08.92-.41.65-.69,1.66-1.26,1.87a24.32,24.32,0,0,1-4.31.79c1.49,4.74,2.82,9.46,4.46,14.06,4,11.16,7.94,22.39,18.31,29.63a4.28,4.28,0,0,1,.7.71c2.52,2.89,5,5.79,7.78,8.92a17.66,17.66,0,0,0,.23-2.3c-.12-4.07-.39-8.15-.41-12.22-.05-13.25-.07-26.49,0-39.73,0-2.13-.58-3.19-2.75-3.56-2.54-.43-5-1.15-7.52-1.83a19.26,19.26,0,0,1-12.86-10.26c-2.42-4.87-1.83-9.74-.52-14.82,4.64-17.87,9.06-35.79,13.59-53.69,2.16-8.55,4.32-17.09,6.56-25.62.48-1.85.3-3-1.83-3.48a38.16,38.16,0,0,1-4.48-1.53l-13.8-4.94a59.75,59.75,0,0,0,1.14,7.41c.9,3.2-.32,5.49-2.46,7.58L115.55,125a11.06,11.06,0,0,1,2.07,2c.54.94,1.2,2.17,1,3.1-3,13.49-6.11,26.93-9.1,40.41-2.12,9.56-5.33,19-4,29,.79,6.18,1.64,12.36,2.65,18.51C108.63,221.22,109.54,224.31,110.26,227.41Zm-46-122.16.5.5c.81-.41,1.63-.81,2.42-1.25A66.75,66.75,0,0,1,91.7,96.32c4.7-.56,4.21-.51,4-4.67-.16-3.19.56-5.49,3.71-6.72a6.13,6.13,0,0,0,1.76-1.36c4.39-4.26,5.92-9.72,6.44-15.57.21-2.28,1.27-3.24,3.54-3.18a5.07,5.07,0,0,0,2.55-.68c4-2.36,5.31-6.76,3.49-11.78-.66-1.8-1.42-4-3.79-3.63s-2.18,2.61-2.47,4.4c0,.32.1.74-.06,1a14.06,14.06,0,0,1-1.85,2.4,11.57,11.57,0,0,1-2.38,1.64c-1.64.92-3.23,2.16-5,2.53a40.12,40.12,0,0,1-8.2.67c-7.72,0-8.74-.93-10-8.78-1.21.23-3.35.24-3.47.74-.33,1.37-1.47,3.15.54,4.48.38.26.33,1.68,0,2.36-1.38,3.13-1.41,3.07,1.64,4a2.08,2.08,0,0,1,1.28,1.46c0,.48-.78,1.24-1.35,1.39a4.45,4.45,0,0,1-5.77-4c-.1-.7-.14-1.41-.21-2.15a9.43,9.43,0,0,0-1.2,0,30.69,30.69,0,0,1-20.22-3A3.2,3.2,0,0,1,53.34,56a13.34,13.34,0,0,1-.22-3.23c0-1.42-.83-2.16-2-1.69s-2.5,1.25-2.88,2.24a13.6,13.6,0,0,0,.46,11.13,5.63,5.63,0,0,0,5.75,3.2c4.1-.2,4.08,0,5.23,3.9,1.66,5.69,3.55,11.33,9.41,14.38a3.27,3.27,0,0,1,1.24,2.24c.26,1.81.17,3.66.33,5.48a8.19,8.19,0,0,1-2.17,6.42C67,101.72,65.67,103.52,64.3,105.25Zm37.82-4-.27-1.08a31.2,31.2,0,0,0-3.87,0c-3.63.46-7.26.94-10.87,1.58-13.63,2.46-24,10.17-32.72,20.48a2.39,2.39,0,0,0-.46,1.94,15.75,15.75,0,0,0,6.59,8.51,1.79,1.79,0,0,0,2.77-.45,37.57,37.57,0,0,1,3.83-4.59c.72-.68,2.24-1.34,3-1,4.8,2,9.69,1,14.55.76a17.61,17.61,0,0,0,4.89-.85c2.18-.75,2.62-2.22,1.42-4.2-.94-1.55-.55-2.81.43-4.13.36-.47.81-1.23.67-1.67-.81-2.47-1.73-4.9-2.71-7.3-.85-2.08-.45-3.35,1.69-4.11,2.59-.92,5.24-1.63,7.85-2.51C100,102.3,101,101.75,102.12,101.29Zm24.32,407.07.12-.63a52.7,52.7,0,0,1-5.28.61,9.56,9.56,0,0,1-2.79-.83c.74-.74,1.36-1.85,2.25-2.14a33.34,33.34,0,0,1,5.3-.9l-.09-.76c-2.43.25-4.85.54-7.29.72a11.21,11.21,0,0,1-2.33-.34c.17-.73.32-1.47.5-2.2a9.55,9.55,0,0,1,.32-.93,12.22,12.22,0,0,0-2.18-.1c-3.08.44-5.21-.86-7-3.32a55.35,55.35,0,0,0-5.18-6.07,3.44,3.44,0,0,0-2.59-1c-.55.07-1.25,1.24-1.36,2a35,35,0,0,0-.64,7.68c.34,3.95,1.35,8.14,5.33,9.8a24.25,24.25,0,0,1,11.4,9.55,12.67,12.67,0,0,0,7.51,5.39,25.12,25.12,0,0,0,13.81-.07c5.59-1.54,7.91-9.31,4.19-13.7-3.25-3.84-6.5-7.66-9.91-11.67l-2.24,1.37c1.4,1.1,2.84,2.05.89,3.8,1.81.84,2.73,1.94,1.46,3.79a4.54,4.54,0,0,1,1.43.38c.82.63,1.56,1.37,2.33,2.06a10.42,10.42,0,0,1-3,1,65.52,65.52,0,0,1-7.67-.24c-.77-.06-1.48-.73-2.22-1.12.64-.67,1.16-1.59,1.94-1.93A9.12,9.12,0,0,1,126.44,508.36ZM57.78,43c.69-.16,1.39-.3,2.08-.49a20.18,20.18,0,0,1,11.08-.42c3.38,1,7.11,1.32,8.59,5.45.46,1.29,3.53.77,4.49-.34a14.2,14.2,0,0,1,4.07-3.68A19.46,19.46,0,0,1,101.23,42c1.18.27,2.38.49,4,.82a42.47,42.47,0,0,0-4.27-12.15,11.05,11.05,0,0,0-9.17-6.47c-4-.38-8.1-.13-12.15-.27a41.77,41.77,0,0,1-4.77-.72c.11,1.7-1.34,2.15-3.18,2.47a25.8,25.8,0,0,0-5.5,1.58C60.46,29.61,56.46,37.06,57.78,43Zm-8.85,458.2.61,2.85a25.44,25.44,0,0,1-3,.25c-2.26-.07-4.52-.25-6.79-.39l0,.64a27.76,27.76,0,0,1,5.12.82c1,.33,1.66,1.48,2.47,2.26l-3.08.76c-.23.06-.45.14-.73.23.25,1.16,1.75,2.81-.64,3.06A93.49,93.49,0,0,1,33,512a2.23,2.23,0,0,1-1.52-1.28c-.13-.33.49-1.18,1-1.47a13.54,13.54,0,0,1,2.48-.9l-.61-.47,1.84-3.64c-1.68-1.57.24-2.4,1.47-3.5l-2.93-1.45c-1.43,2.22-2.62,4.42-4.15,6.36s-3.58,3.71-5.26,5.66c-3.74,4.34-1.21,12.3,4.46,13.51a37.71,37.71,0,0,0,9.88.78c3.85-.22,7.81-1.23,10.12-4.64,3.87-5.7,9-9.94,14.49-13.88,3-2.15,4.4-4.86,3.58-8.6-.36-1.62-.41-3.31-.76-4.93-.17-.82-.59-2.11-1.08-2.2a4.4,4.4,0,0,0-2.71.81,10.89,10.89,0,0,0-1.71,1.8C58,497.59,55,502.12,48.93,501.16Zm127.91-278c-.89,1.83-1.66,3.17-2.2,4.59s-1.27,3-3.16,2.27c-2.06-.74-1.49-2.38-1-4a30.77,30.77,0,0,0,1.09-5.3c.07-.63-.55-1.33-.86-2-.65.42-1.58.69-1.9,1.29a50.9,50.9,0,0,0-2,4.82c-.56,1.35-1.15,2.77-3,2.19s-1.64-2.13-1.25-3.53,1.24-2.78,1.44-4.23c.11-.76-.74-1.65-1.16-2.49-.65.37-1.68.59-1.9,1.14a56.11,56.11,0,0,0-1.77,5.7c-.43,1.49-.88,3.13-2.89,2.7s-1.88-2-1.48-3.61a37.66,37.66,0,0,0,.92-3.88c.07-.52-.34-1.11-.54-1.67-.47.37-1.18.64-1.38,1.13a16.39,16.39,0,0,0-.83,3.13c-1,4.91-1,4.91-5.86,5.9-.13,0-.22.22-.64.66,2,2.58,4.11,5,7.42,6,3.65,1.17,7.34,2.2,10.93,3.51,4.91,1.78,9.67,1,14.44-.43a11.76,11.76,0,0,0,2.11-1.26l-2.86-.85a8.52,8.52,0,0,1-2.37-.73c-.68-.44-1.49-1.23-1.54-1.92a2.84,2.84,0,0,1,1.23-2.14C178.14,228.77,178.77,226.41,176.84,223.15ZM108.62,102.62l-2.82,65.64.8.09c.17-.51.38-1,.5-1.52,2.46-10.7,4.71-21.45,7.44-32.08,1-3.91.62-6.65-2.84-8.92-.76-.5-.94-1.89-1.38-2.88,1.05,0,2.11,0,3.16,0,.16,0,.31-.06.07,0,3.5-2.88,2.82-6.33,2.11-9.8a25,25,0,0,1-.49-3.2C114.9,106.15,112.19,104.55,108.62,102.62ZM58,516.93l-.57-.33A28.78,28.78,0,0,0,54.56,520c-4,6.51-10,8.92-17.29,8.94-6.33,0-12.41-.6-15.77-7.18,0-.07-.28,0-.43-.05a9.07,9.07,0,0,0,5.54,10.26c8.29,3.73,16.27,3,23.45-2.63C54.07,526.18,57.32,522.3,58,516.93Zm87,5.25c-2.49,1.91-4.65,4.2-7.3,5.42-2.31,1.06-5.17,1.19-7.81,1.26-7.44.21-14-1.56-18.25-8.48a30.09,30.09,0,0,0-2.92-3.5,2.13,2.13,0,0,0-.33,1.74c4.34,14.35,21.51,19.64,32.81,12.15C144.38,528.64,144.88,525.36,145,522.18ZM95.07,56.72l3.24-.2c4.75-.28,6.09-1.68,6.44-6.4.11-1.56-.28-2.4-1.88-2.94a17.54,17.54,0,0,0-12.4.27,3,3,0,0,0-2.07,3c-.3,6,0,6.36,5.93,6.29ZM74.88,50.07c.32-.89-.18-1.75-1.54-2.37A16.69,16.69,0,0,0,60,47.39a2.35,2.35,0,0,0-1.24,1.07c-1.29,3.15,1.25,7.59,4.68,7.91a68.57,68.57,0,0,0,8.72.15c2.79-.11,3.24-1,2.54-3.18-1.52.47-3.09,1.48-4.46,1.26-2-.32-1.85-2.46-1.52-3.94.23-1,1.46-2.7,2-2.61C72.15,48.31,73.46,49.33,74.88,50.07Zm28.58,56.12c-1.17.35-2.33.72-3.51,1-5.72,1.56-5.74,1.79-3.53,7.31.55,1.37.15,3.14.12,4.73s-.17,2.93-.29,4.9C103.17,119.76,105.52,113.51,103.46,106.19Zm21.93,385.05H109.45c2.09,4.31,3.56,5.22,7.65,5,1.58-.09,3.16-.24,4.74-.25C126.41,496,126.65,495.67,125.39,491.24Zm-69.15,1.27-.2-.8c-4.81,0-9.62-.08-14.42.1-.57,0-1.41,1.42-1.49,2.25a2.39,2.39,0,0,0,1.52,1.8c2.55.3,5.16.13,7.72.44C52.72,496.72,54.56,494.83,56.24,492.51Zm77.14-180a11.67,11.67,0,0,0-.52-1.1c-3.08-4.72-6.14-9.45-9.28-14.13-.34-.51-1.11-.74-1.69-1.09,0,.73-.3,1.62,0,2.16q3.61,6.26,7.48,12.36a7.78,7.78,0,0,0,2.32,2.21C132,313.1,132.75,312.66,133.38,312.49ZM53.5,298.36a5.26,5.26,0,0,0-.63-.84,4,4,0,0,0-1.66,1.1q-4,6.45-7.79,13a8.65,8.65,0,0,0-.56,2.37c.73-.38,1.76-.58,2.14-1.19,2.78-4.41,5.43-8.91,8.11-13.39A7,7,0,0,0,53.5,298.36Zm49-276.25.66-.52a6,6,0,0,0-.84-2A16,16,0,0,0,87.55,15c-.58.1-1,.78-1.58,1.19.69.26,1.41.82,2,.73A14.42,14.42,0,0,1,101,21.14,8.6,8.6,0,0,0,102.52,22.11ZM91.68,9.16a4.2,4.2,0,0,0-1.23,0c-.78.26-1.52.64-2.28,1a7,7,0,0,0,2.37,1,13.23,13.23,0,0,1,8.57,2.76c.48.37,1.31.28,2,.4-.23-.69-.25-1.62-.73-2A12.66,12.66,0,0,0,91.68,9.16ZM63.17,17.39c-3.45.23-6.08.93-7.81,3.39-.32.45-.11,1.28-.14,1.94.56-.21,1.13-.4,1.68-.64l5.73-2.51c.76-.33,1.54-.62,2.31-.92Z"/><path class="cls-1" d="M276.14,79.6c-.71,2.9-1.74,7.35-2.85,11.77Q264.1,128,254.86,164.71,248,191.91,241,219.09q-1.38,5.44-2.73,10.89c-2.13,8.62-9.09,13.08-17.71,11-12.21-2.95-24.36-6.15-36.56-9.17-1.74-.43-2.06-1.15-2-2.95a23.07,23.07,0,0,0-.78-7.49c-.6-2.08-2.9-2.28-4.77-3-1.64-.67-2.64-3.45-4.18-3.7-3.26-.51-6.27-1.74-9.36-2.42s-6.6.11-9.88.47c-2.77.3-3.45,3.31-4.06,5.76-1,4.18-1,4.22-5.25,3.2-4-1-7.93-1.93-11.85-3-7.67-2.14-11.93-10.18-10.23-16.52,4.16-15.5,7.93-31.1,11.85-46.66q8.08-32.06,16.15-64.13c3.29-13.07,6.55-26.15,9.9-39.2,1.94-7.55,9.47-11.78,17.41-9.8,14.84,3.71,29.67,7.49,44.51,11.24l43.54,11C271.71,66.29,276.1,71.61,276.14,79.6ZM162.6,159.22a20.41,20.41,0,0,0-2.78-2.84,8.44,8.44,0,0,0-2.62-.71,6.85,6.85,0,0,0,.34,2.65,13.56,13.56,0,0,0,2.59,3,3.52,3.52,0,0,1,1,4c-1.93,6.63-3.73,13.3-5.54,20-.42,1.59-1.24,1.95-2.76,1.42s-3.22-.85-4.82-1.29c-3.6-1-3.6-1-2.67-4.69.06-.24.14-.48.2-.72,2.5-10.1,5-20.19,7.45-30.32.17-.75-.62-1.74-1-2.62-.67.57-1.35,1.12-2,1.73-.15.15-.13.47-.19.71q-4.08,16.49-8.14,33c-.91,3.69-.53,4.3,3.12,5.29q20.12,5.44,40.23,10.93c12.92,3.51,25.84,7.06,38.8,10.48,1,.26,2.22-.37,3.33-.58a28.91,28.91,0,0,0-2.39-2.31,4.54,4.54,0,0,0-1.66-.5c-7.14-2-14.26-4-21.44-5.81-1.7-.44-1.92-1.28-1.59-2.67a60.53,60.53,0,0,0,1.54-6.56c.53-4.55,2.86-7.19,7.26-8.55A57.06,57.06,0,0,0,218,178.1c.7-.36,1-1.47,1.52-2.24-.95-.21-1.89-.46-2.84-.6-.27,0-.59.27-.89.41l-9.53,4.4a2.49,2.49,0,0,1-2.81-.31,16.5,16.5,0,0,0-6.71-2.19c-.81-.1-1.86,1.65-3,2.73-.39-.23-1-.64-1.64-1-3.5-1.78-5.42-4.12-3.41-8.28a2.86,2.86,0,0,0-.84-2.66c-3.95-2.5-6.77-1.86-9.35,2-2-1.06-4-2.2-6.1-3.21-1.29-.64-1.44-1.41-1.1-2.8,1.55-6.44,2-5.36-4.6-7.29C164.9,156.59,163.4,156.56,162.6,159.22Zm2.87-16.05a12.1,12.1,0,0,0,2.12-2.16,8.62,8.62,0,0,0,.82-2.86c.36-1.84.69-3.55,3-4.12.48-.12.61-1.63.9-2.5-1.57-.41-1.71-1.61-2-3a3.19,3.19,0,0,0-2-1.93c-3.26-1-6.58-1.78-9.9-2.55-1.61-.37-3.11,0-3.61,1.81-1,3.67-2,7.37-2.72,11.11-.17.92.65,2.73,1.39,3C157.19,141.19,161,142,165.47,143.17Zm3.32-58.47a2.93,2.93,0,0,0-3.27,2.51c-.79,3.31-1.65,6.6-2.42,9.91-.57,2.42.15,3.6,2.54,4.22,2.57.67,5.16,1.25,7.73,1.92,3.95,1,4.73.58,5.72-3.45.53-2.16.8-4.43,3.54-5.17.34-.1.35-1.42.52-2.18-1.94-.41-1.79-2-2-3.44a2.14,2.14,0,0,0-1.29-1.34C176.16,86.62,172.47,85.68,168.79,84.7Zm-6.88,19.36c-.74.83-1.93,1.61-2.25,2.65-1,3.33-1.73,6.76-2.55,10.15-.54,2.22.35,3.5,2.55,4,2.75.64,5.49,1.33,8.23,2,3.57.91,4.3.43,5.17-3.24.52-2.19.59-4.69,3.55-5.41.36-.09.63-2.11.58-2.12-1.82-.59-1.81-2.09-2-3.57a1.88,1.88,0,0,0-1.12-1.2C170.21,106.27,166.36,105.26,161.91,104.06Zm55.48,120.83c.5-.37,1.42-.71,1.52-1.22a2.25,2.25,0,0,0-1-1.74,9.16,9.16,0,0,0-2.57-.93l-39.14-11c-10-2.83-20-5.71-30-8.44-1-.26-2.18.42-3.29.66.82.75,1.52,1.86,2.48,2.18,4.19,1.38,8.44,2.55,12.68,3.75q26.05,7.4,52.12,14.76C212.49,223.55,214.82,224.18,217.39,224.89Zm-71-31.25c-.51.3-1.63.68-1.62,1a2.92,2.92,0,0,0,1.08,2,7,7,0,0,0,2.34.81l34.55,9.79c11.51,3.26,23,6.57,34.56,9.73,1,.28,2.33-.39,3.5-.62-.82-.74-1.54-1.89-2.5-2.17Q186.7,205.06,155,196.1ZM248.62,79.71l-.76.12c-1.36-3.24-2.63-6.54-4.15-9.71-.46-1-1.63-2.22-2.44-2.2s-2,1.35-2.3,2.34c-1.42,4.33-2.55,8.76-3.88,13.13-.49,1.62-.64,3.1,1.26,3.65s2.5-.74,2.93-2.26c.68-2.36,1.41-4.71,2.33-7.78.66,1.36,1,2,1.33,2.75,1.19,2.84,2.26,5.73,3.6,8.48a3.35,3.35,0,0,0,2.38,1.65c.67,0,1.73-1.06,2-1.85,1.41-4.51,2.66-9.07,3.92-13.63.4-1.47.43-3-1.42-3.42s-2.48.89-2.91,2.33C249.85,75.44,249.24,77.57,248.62,79.71Zm-5.68,61.41,1.51-1.45c-.72-.65-1.35-1.68-2.18-1.89q-31.72-7.89-63.47-15.64c-1.16-.29-2.57-.72-2.73,1-.06.64,1.08,1.81,1.87,2,3.51,1,7.1,1.78,10.65,2.65l35.14,8.62Zm-70.53.31c-.36.31-1.3.74-1.38,1.29s.65,1.31,1.19,1.76a4.3,4.3,0,0,0,1.66.49l50.93,12.51c4,1,8.07,2,12.14,2.88.75.16,1.68-.53,2.53-.83-.55-.7-1.06-1.43-1.66-2.08-.19-.2-.62-.19-.94-.27q-24-5.9-48-11.79C183.53,144.08,178.18,142.81,172.41,141.43Zm76.53-19.91,1.45-1.28c-.75-.71-1.4-1.86-2.27-2.08q-31.12-7.74-62.31-15.28c-1.33-.33-3.32-1.53-3.85.58-.57,2.31,1.9,2.07,3.25,2.41q25.68,6.41,51.39,12.7C240.55,119.54,244.52,120.46,248.94,121.52ZM230.13,80.24c-.63-4.33-1.29-9.28-2.15-14.19a3.67,3.67,0,0,0-1.84-2.31c-.51-.25-1.81.35-2.29.95-3.37,4.24-6.68,8.52-9.81,12.93-.47.65.11,2,.2,3.1,1.11-.18,2.22-.33,3.31-.58.26-.06.44-.49.64-.75.81-1,1.35-2.49,3.12-1.73s4.51.38,4.48,3.65c0,1.45.39,3.19,2.53,3S230.26,82.39,230.13,80.24ZM185.46,66.32c5.19.31,7.86-2,7.8-6.45,0-4.31-3.06-7.36-7.91-8.16-1.87-.3-3,.21-3.59,2.12-.84,3-1.82,5.87-2.64,8.83a42.2,42.2,0,0,0-1.55,6.79c-.09.82,1,1.77,1.5,2.66a22.33,22.33,0,0,0,2.62-1.72c.31-.27.31-.92.41-1.41C182.53,67,183.2,65.37,185.46,66.32Zm19.95-6.74c-.62-.6-1.36-1.84-2-1.8a3.36,3.36,0,0,0-2.53,1.73c-1.53,4.4-2.79,8.89-4.16,13.35a2.54,2.54,0,0,0,1.67,3.42,64.28,64.28,0,0,0,8.39,2.41,2.84,2.84,0,0,0,2.38-1.48,3.15,3.15,0,0,0-1.24-2.55,11.32,11.32,0,0,0-3.28-1.1c-3.23-1-3.23-1-2.24-4.21S204.3,63.15,205.41,59.58Z"/><path class="cls-1" d="M126,273.35c-7.2,4.41-60.44,5.71-71.26,1.67,1-2.71,1.91-5.42,2.85-8.13,5.43-15.6,10-31.5,12.17-47.84,1.31-9.82,1-19.94.68-29.9-.45-12.72-1.72-25.41-2.52-38.12-.09-1.49.56-3,.92-4.54a3.33,3.33,0,0,1,.58-1.1c2.67-3.8,3-7.73.72-11.84a5.07,5.07,0,0,1-.34-1.24c11.31-.32,23,1.74,32.79-6.71a7.08,7.08,0,0,1,.41,1.66c-.56,13.22-1.34,26.43-1.66,39.66-.3,12.56-.87,25.19,0,37.69,1.09,15,5.24,29.48,10.61,43.53a167.55,167.55,0,0,0,8.14,17.65C121.52,268.52,123.9,270.76,126,273.35Z"/><path class="cls-1" d="M50,127.1c2.92,6.71,8,10.24,14.15,12.46,1.28.46,2.42,1,1.46,2.88C55.73,162,46.64,182,34.08,200a49.57,49.57,0,0,1-7,8.06c-4.31,4-13.5,4.22-18.26.81-2.8-2-3.67-5.07-4-8.27C4,194.22,5.22,188,7,181.9q8.54-29.24,17.16-58.43a4.43,4.43,0,0,1,1.91-2.67c9.62-3.89,19.31-7.61,29.16-11.45.18,5.22-1.82,8.22-6,10.33a7.09,7.09,0,0,0-2.46,3c-7.76,14.17-15.34,28.44-23.3,42.5-2.13,3.76-5.36,6.92-8.18,10.28-1.07,1.29-2.3,2.55-.77,4.07s2.9.18,4.23-.92c6.12-5.12,9.48-12.13,13.16-18.94,5.54-10.25,11.15-20.47,16.75-30.7C48.94,128.46,49.32,128,50,127.1Z"/><path class="cls-1" d="M110.26,227.41c-.72-3.1-1.63-6.19-2.14-9.34-1-6.15-1.86-12.33-2.65-18.51-1.28-10,1.93-19.44,4-29,3-13.48,6.14-26.92,9.1-40.41.2-.93-.46-2.16-1-3.1a11.06,11.06,0,0,0-2.07-2l1.31-1.24c2.14-2.09,3.36-4.38,2.46-7.58a59.75,59.75,0,0,1-1.14-7.41l13.8,4.94a38.16,38.16,0,0,0,4.48,1.53c2.13.47,2.31,1.63,1.83,3.48-2.24,8.53-4.4,17.07-6.56,25.62-4.53,17.9-8.95,35.82-13.59,53.69-1.31,5.08-1.9,10,.52,14.82a19.26,19.26,0,0,0,12.86,10.26c2.49.68,5,1.4,7.52,1.83,2.17.37,2.76,1.43,2.75,3.56-.09,13.24-.07,26.48,0,39.73,0,4.07.29,8.15.41,12.22a17.66,17.66,0,0,1-.23,2.3c-2.74-3.13-5.26-6-7.78-8.92a4.28,4.28,0,0,0-.7-.71c-10.37-7.24-14.32-18.47-18.31-29.63-1.64-4.6-3-9.32-4.46-14.06a24.32,24.32,0,0,0,4.31-.79c.57-.21.85-1.22,1.26-1.87-.7-.33-1.46-1-2.08-.92A22.16,22.16,0,0,0,110.26,227.41Zm-.83-19.88,3.27-3.15c-.64-.38-1.46-1.23-1.91-1.07a19.53,19.53,0,0,0-3.4,2Z"/><path class="cls-1" d="M58,168.83l4.84-10.52.71.11A8.16,8.16,0,0,1,64,160.1c.72,16,2,32.09,1.89,48.12-.08,8.95-2.19,18-4.1,26.8a218.72,218.72,0,0,1-12,39,73.49,73.49,0,0,1-6.15,10.79A12.41,12.41,0,0,1,40,288.2c-3.48,2.31-5.34,1.49-5.86-2.65a179.68,179.68,0,0,1,.94-51.72,140.72,140.72,0,0,0,2.2-24.28,18.3,18.3,0,0,1,3.18-10.64c5.41-8.87,10.39-18,15.56-27,.61-1.08,1.35-2.08,2-3.12.68,4.4,1.29,8.81,2.11,13.18.1.56,1.25.92,1.91,1.37.34-.74,1.06-1.54,1-2.22-.53-3.51-1.36-7-1.92-10.49C60.8,168.53,59.77,168.14,58,168.83Zm6.88,38.23c0-2.07-1-3.39-2.84-3.33-2.14.05-2.84,1.54-2.85,3.35s.56,3.35,2.76,3.39S64.92,209.29,64.89,207.06ZM54.42,235.69c0,2.41.86,3.41,2.76,3.36,2.15-.05,2.81-1.46,2.87-3.3.07-2-1.33-3.64-3-3.45C55,232.52,54.28,233.91,54.42,235.69Z"/><path class="cls-1" d="M64.3,105.25c1.37-1.73,2.67-3.53,4.14-5.17a8.19,8.19,0,0,0,2.17-6.42c-.16-1.82-.07-3.67-.33-5.48A3.27,3.27,0,0,0,69,85.94c-5.86-3-7.75-8.69-9.41-14.38-1.15-3.92-1.13-4.1-5.23-3.9a5.63,5.63,0,0,1-5.75-3.2,13.6,13.6,0,0,1-.46-11.13c.38-1,1.78-1.81,2.88-2.24s2,.27,2,1.69A13.34,13.34,0,0,0,53.34,56a3.2,3.2,0,0,0,1.34,1.89,30.69,30.69,0,0,0,20.22,3,9.43,9.43,0,0,1,1.2,0c.07.74.11,1.45.21,2.15a4.45,4.45,0,0,0,5.77,4c.57-.15,1.34-.91,1.35-1.39a2.08,2.08,0,0,0-1.28-1.46c-3.05-.94-3-.88-1.64-4,.3-.68.35-2.1,0-2.36-2-1.33-.87-3.11-.54-4.48.12-.5,2.26-.51,3.47-.74,1.31,7.85,2.33,8.76,10,8.78a40.12,40.12,0,0,0,8.2-.67c1.76-.37,3.35-1.61,5-2.53A11.57,11.57,0,0,0,109,56.51a14.06,14.06,0,0,0,1.85-2.4c.16-.24,0-.66.06-1,.29-1.79.18-4.08,2.47-4.4s3.13,1.83,3.79,3.63c1.82,5,.52,9.42-3.49,11.78a5.07,5.07,0,0,1-2.55.68c-2.27-.06-3.33.9-3.54,3.18-.52,5.85-2.05,11.31-6.44,15.57a6.13,6.13,0,0,1-1.76,1.36c-3.15,1.23-3.87,3.53-3.71,6.72.2,4.16.69,4.11-4,4.67a66.75,66.75,0,0,0-24.48,8.18c-.79.44-1.61.84-2.42,1.25Zm17.5-28.2A23.93,23.93,0,0,0,86,75.61c.62-.34.82-1.41,1.21-2.15-.77-.23-1.74-.87-2.27-.61a6.56,6.56,0,0,1-6.41-.26c-.55-.3-1.49.12-2.24.22.26.8.28,2,.83,2.33A32.24,32.24,0,0,0,81.8,77.05Zm35-20.44a15.64,15.64,0,0,0-.94-3.37c-.31-.59-1.2-.87-1.83-1.29a7,7,0,0,0-1,2,43.64,43.64,0,0,0-.52,5.47,7.82,7.82,0,0,0,.53,2.17c.72-.26,1.79-.32,2.09-.83A28.39,28.39,0,0,0,116.77,56.61Zm-65.07.71.31,0a5.56,5.56,0,0,0,.05-1.72c-.15-.54-.64-1.44-.91-1.42-.64.06-1.58.43-1.79.94a7.91,7.91,0,0,0,.49,7.56c.33.53,1.35.63,2,.92a6.49,6.49,0,0,0,.6-2.17A35.52,35.52,0,0,0,51.7,57.32Z"/><path class="cls-1" d="M102.12,101.29c-1.08.46-2.13,1-3.24,1.38-2.61.88-5.26,1.59-7.85,2.51-2.14.76-2.54,2-1.69,4.11,1,2.4,1.9,4.83,2.71,7.3.14.44-.31,1.2-.67,1.67-1,1.32-1.37,2.58-.43,4.13,1.2,2,.76,3.45-1.42,4.2a17.61,17.61,0,0,1-4.89.85c-4.86.21-9.75,1.28-14.55-.76-.73-.31-2.25.35-3,1a37.57,37.57,0,0,0-3.83,4.59,1.79,1.79,0,0,1-2.77.45,15.75,15.75,0,0,1-6.59-8.51,2.39,2.39,0,0,1,.46-1.94c8.72-10.31,19.09-18,32.72-20.48,3.61-.64,7.24-1.12,10.87-1.58a31.2,31.2,0,0,1,3.87,0Z"/><path class="cls-1" d="M126.44,508.36a9.12,9.12,0,0,0-2.94.26c-.78.34-1.3,1.26-1.94,1.93.74.39,1.45,1.06,2.22,1.12a65.52,65.52,0,0,0,7.67.24,10.42,10.42,0,0,0,3-1c-.77-.69-1.51-1.43-2.33-2.06a4.54,4.54,0,0,0-1.43-.38c1.27-1.85.35-2.95-1.46-3.79,1.95-1.75.51-2.7-.89-3.8l2.24-1.37c3.41,4,6.66,7.83,9.91,11.67,3.72,4.39,1.4,12.16-4.19,13.7a25.12,25.12,0,0,1-13.81.07,12.67,12.67,0,0,1-7.51-5.39,24.25,24.25,0,0,0-11.4-9.55c-4-1.66-5-5.85-5.33-9.8a35,35,0,0,1,.64-7.68c.11-.75.81-1.92,1.36-2a3.44,3.44,0,0,1,2.59,1,55.35,55.35,0,0,1,5.18,6.07c1.78,2.46,3.91,3.76,7,3.32a12.22,12.22,0,0,1,2.18.1,9.55,9.55,0,0,0-.32.93c-.18.73-.33,1.47-.5,2.2a11.21,11.21,0,0,0,2.33.34c2.44-.18,4.86-.47,7.29-.72l.09.76a33.34,33.34,0,0,0-5.3.9c-.89.29-1.51,1.4-2.25,2.14a9.56,9.56,0,0,0,2.79.83,52.7,52.7,0,0,0,5.28-.61Z"/><path class="cls-1" d="M57.78,43c-1.32-5.9,2.68-13.35,8.38-15.73a25.8,25.8,0,0,1,5.5-1.58c1.84-.32,3.29-.77,3.18-2.47a41.77,41.77,0,0,0,4.77.72c4,.14,8.13-.11,12.15.27a11.05,11.05,0,0,1,9.17,6.47,42.47,42.47,0,0,1,4.27,12.15c-1.59-.33-2.79-.55-4-.82a19.46,19.46,0,0,0-13.14,1.51A14.2,14.2,0,0,0,84,47.16c-1,1.11-4,1.63-4.49.34-1.48-4.13-5.21-4.5-8.59-5.45a20.18,20.18,0,0,0-11.08.42C59.17,42.66,58.47,42.8,57.78,43Zm33.87-6.57a43.73,43.73,0,0,0-4.76,2.09c-.5.28-.51,1.4-.75,2.14.75.15,1.74.68,2.19.38A7.58,7.58,0,0,1,95,40.23c.6.17,1.41-.45,2.12-.7-.43-.71-.7-1.75-1.33-2.07A21,21,0,0,0,91.65,36.39Zm-17.12,4a18,18,0,0,0-1.68-2.23c-1.95-1.7-6.86-2.07-9-.59-.56.4-.74,1.32-1.09,2,.73.24,1.57.85,2.17.68a7.79,7.79,0,0,1,6.68.66C72.16,41.24,73.19,40.68,74.53,40.41Z"/><path class="cls-1" d="M48.93,501.16c6.06,1,9.08-3.57,12.61-7.19a10.89,10.89,0,0,1,1.71-1.8,4.4,4.4,0,0,1,2.71-.81c.49.09.91,1.38,1.08,2.2.35,1.62.4,3.31.76,4.93.82,3.74-.58,6.45-3.58,8.6C58.74,511,53.6,515.27,49.73,521c-2.31,3.41-6.27,4.42-10.12,4.64a37.71,37.71,0,0,1-9.88-.78c-5.67-1.21-8.2-9.17-4.46-13.51,1.68-1.95,3.67-3.65,5.26-5.66s2.72-4.14,4.15-6.36l2.93,1.45c-1.23,1.1-3.15,1.93-1.47,3.5l-1.84,3.64.61.47a13.54,13.54,0,0,0-2.48.9c-.48.29-1.1,1.14-1,1.47A2.23,2.23,0,0,0,33,512a93.49,93.49,0,0,0,9.91-.37c2.39-.25.89-1.9.64-3.06.28-.09.5-.17.73-.23l3.08-.76c-.81-.78-1.5-1.93-2.47-2.26a27.76,27.76,0,0,0-5.12-.82l0-.64c2.27.14,4.53.32,6.79.39a25.44,25.44,0,0,0,3-.25Z"/><path class="cls-1" d="M176.84,223.15c1.93,3.26,1.3,5.62-1,7a2.84,2.84,0,0,0-1.23,2.14c.05.69.86,1.48,1.54,1.92a8.52,8.52,0,0,0,2.37.73l2.86.85a11.76,11.76,0,0,1-2.11,1.26c-4.77,1.4-9.53,2.21-14.44.43-3.59-1.31-7.28-2.34-10.93-3.51-3.31-1.07-5.45-3.46-7.42-6,.42-.44.51-.63.64-.66,4.86-1,4.86-1,5.86-5.9a16.39,16.39,0,0,1,.83-3.13c.2-.49.91-.76,1.38-1.13.2.56.61,1.15.54,1.67a37.66,37.66,0,0,1-.92,3.88c-.4,1.58-.5,3.18,1.48,3.61s2.46-1.21,2.89-2.7a56.11,56.11,0,0,1,1.77-5.7c.22-.55,1.25-.77,1.9-1.14.42.84,1.27,1.73,1.16,2.49-.2,1.45-1,2.8-1.44,4.23s-.6,3,1.25,3.53,2.46-.84,3-2.19a50.9,50.9,0,0,1,2-4.82c.32-.6,1.25-.87,1.9-1.29.31.68.93,1.38.86,2a30.77,30.77,0,0,1-1.09,5.3c-.48,1.61-1.05,3.25,1,4,1.89.69,2.58-.74,3.16-2.27S176,225,176.84,223.15Z"/><path class="cls-1" d="M108.62,102.62c3.57,1.93,6.28,3.53,6.55,7.35a25,25,0,0,0,.49,3.2c.71,3.47,1.39,6.92-2.11,9.8.24,0,.09,0-.07,0-1,0-2.11,0-3.16,0,.44,1,.62,2.38,1.38,2.88,3.46,2.27,3.85,5,2.84,8.92-2.73,10.63-5,21.38-7.44,32.08-.12.52-.33,1-.5,1.52l-.8-.09Z"/><path class="cls-1" d="M58,516.93c-.64,5.37-3.89,9.25-7.9,12.37-7.18,5.6-15.16,6.36-23.45,2.63a9.07,9.07,0,0,1-5.54-10.26c.15,0,.4,0,.43.05,3.36,6.58,9.44,7.2,15.77,7.18,7.27,0,13.32-2.43,17.29-8.94a28.78,28.78,0,0,1,2.83-3.36Z"/><path class="cls-1" d="M145,522.18c-.07,3.18-.57,6.46-3.8,8.59-11.3,7.49-28.47,2.2-32.81-12.15a2.13,2.13,0,0,1,.33-1.74,30.09,30.09,0,0,1,2.92,3.5c4.21,6.92,10.81,8.69,18.25,8.48,2.64-.07,5.5-.2,7.81-1.26C140.3,526.38,142.46,524.09,145,522.18Z"/><path class="cls-1" d="M95.07,56.72h-.74c-6,.07-6.23-.28-5.93-6.29a3,3,0,0,1,2.07-3,17.54,17.54,0,0,1,12.4-.27c1.6.54,2,1.38,1.88,2.94-.35,4.72-1.69,6.12-6.44,6.4Zm-5.64-5.16c0,1.87.55,3.39,2.78,3.29S95,53.17,95,51.2,94,48,92.1,47.79C90.46,47.61,89.4,49.22,89.43,51.56Z"/><path class="cls-1" d="M74.88,50.07c-1.42-.74-2.73-1.76-4.18-2-.52-.09-1.75,1.59-2,2.61-.33,1.48-.46,3.62,1.52,3.94,1.37.22,2.94-.79,4.46-1.26.7,2.19.25,3.07-2.54,3.18a68.57,68.57,0,0,1-8.72-.15c-3.43-.32-6-4.76-4.68-7.91A2.35,2.35,0,0,1,60,47.39a16.69,16.69,0,0,1,13.34.31C74.7,48.32,75.2,49.18,74.88,50.07Z"/><path class="cls-1" d="M103.46,106.19c2.06,7.32-.29,13.57-7.21,18,.12-2,.25-3.43.29-4.9s.43-3.36-.12-4.73c-2.21-5.52-2.19-5.75,3.53-7.31C101.13,106.91,102.29,106.54,103.46,106.19Z"/><path class="cls-1" d="M125.39,491.24c1.26,4.43,1,4.74-3.55,4.76-1.58,0-3.16.16-4.74.25-4.09.21-5.56-.7-7.65-5Z"/><path class="cls-1" d="M56.24,492.51c-1.68,2.32-3.52,4.21-6.87,3.79-2.56-.31-5.17-.14-7.72-.44a2.39,2.39,0,0,1-1.52-1.8c.08-.83.92-2.23,1.49-2.25,4.8-.18,9.61-.1,14.42-.1Z"/><path class="cls-1" d="M133.38,312.49c-.63.17-1.37.61-1.67.41a7.78,7.78,0,0,1-2.32-2.21q-3.85-6.1-7.48-12.36c-.32-.54,0-1.43,0-2.16.58.35,1.35.58,1.69,1.09,3.14,4.68,6.2,9.41,9.28,14.13A11.67,11.67,0,0,1,133.38,312.49Z"/><path class="cls-1" d="M53.5,298.36a7,7,0,0,1-.39,1.05c-2.68,4.48-5.33,9-8.11,13.39-.38.61-1.41.81-2.14,1.19a8.65,8.65,0,0,1,.56-2.37q3.81-6.56,7.79-13a4,4,0,0,1,1.66-1.1A5.26,5.26,0,0,1,53.5,298.36Z"/><path class="cls-1" d="M102.52,22.11a8.6,8.6,0,0,1-1.57-1A14.42,14.42,0,0,0,88,16.89c-.64.09-1.36-.47-2-.73.53-.41,1-1.09,1.58-1.19a16,16,0,0,1,14.79,4.58,6,6,0,0,1,.84,2Z"/><path class="cls-1" d="M91.68,9.16a12.66,12.66,0,0,1,8.68,3.08c.48.41.5,1.34.73,2-.67-.12-1.5,0-2-.4a13.23,13.23,0,0,0-8.57-2.76,7,7,0,0,1-2.37-1c.76-.33,1.5-.71,2.28-1A4.2,4.2,0,0,1,91.68,9.16Z"/><path class="cls-1" d="M63.17,17.39l1.77,1.26c-.77.3-1.55.59-2.31.92L56.9,22.08c-.55.24-1.12.43-1.68.64,0-.66-.18-1.49.14-1.94C57.09,18.32,59.72,17.62,63.17,17.39Z"/><path d="M162.6,159.22c.8-2.66,2.3-2.63,4.1-2.11,6.56,1.93,6.15.85,4.6,7.29-.34,1.39-.19,2.16,1.1,2.8,2.07,1,4.09,2.15,6.1,3.21,2.58-3.88,5.4-4.52,9.35-2a2.86,2.86,0,0,1,.84,2.66c-2,4.16-.09,6.5,3.41,8.28.65.33,1.25.74,1.64,1,1.13-1.08,2.18-2.83,3-2.73a16.5,16.5,0,0,1,6.71,2.19,2.49,2.49,0,0,0,2.81.31l9.53-4.4c.3-.14.62-.45.89-.41,1,.14,1.89.39,2.84.6-.5.77-.82,1.88-1.52,2.24a57.06,57.06,0,0,1-9.09,4.13c-4.4,1.36-6.73,4-7.26,8.55a60.53,60.53,0,0,1-1.54,6.56c-.33,1.39-.11,2.23,1.59,2.67,7.18,1.83,14.3,3.85,21.44,5.81a4.54,4.54,0,0,1,1.66.5,28.91,28.91,0,0,1,2.39,2.31c-1.11.21-2.34.84-3.33.58-13-3.42-25.88-7-38.8-10.48q-20.12-5.47-40.23-10.93c-3.65-1-4-1.6-3.12-5.29q4.06-16.5,8.14-33c.06-.24,0-.56.19-.71.64-.61,1.32-1.16,2-1.73.35.88,1.14,1.87,1,2.62-2.41,10.13-5,20.22-7.45,30.32-.06.24-.14.48-.2.72-.93,3.69-.93,3.7,2.67,4.69,1.6.44,3.25.75,4.82,1.29s2.34.17,2.76-1.42c1.81-6.66,3.61-13.33,5.54-20a3.52,3.52,0,0,0-1-4,13.56,13.56,0,0,1-2.59-3,6.85,6.85,0,0,1-.34-2.65,8.44,8.44,0,0,1,2.62.71A20.41,20.41,0,0,1,162.6,159.22Zm7.49,10.35c-.38,1.19-.69,2-.92,2.89-1.36,5.13-2.75,10.26-4,15.41-.17.69.34,2.21.66,2.25,2.32.25,4.4,2.63,6.93.85.11-.08.14-.29.18-.45,1.54-5.08,3.13-10.15,4.55-15.26a2.54,2.54,0,0,0-.93-2.16C174.62,171.86,172.51,170.87,170.09,169.57Zm20,27.27c1.09-4,2.08-7.61,3-11.23.12-.5.08-1.35-.24-1.61-1.94-1.59-4-3.05-6.34-4.81-1.6,5.46-3,10.22-4.48,15.35Z"/><path d="M165.47,143.17c-4.46-1.15-8.28-2-12-3.2-.74-.25-1.56-2.06-1.39-3,.7-3.74,1.7-7.44,2.72-11.11.5-1.78,2-2.18,3.61-1.81,3.32.77,6.64,1.56,9.9,2.55a3.19,3.19,0,0,1,2,1.93c.27,1.37.41,2.57,2,3-.29.87-.42,2.38-.9,2.5-2.29.57-2.62,2.28-3,4.12a8.62,8.62,0,0,1-.82,2.86A12.1,12.1,0,0,1,165.47,143.17Zm-5.08-6.48a28.87,28.87,0,0,1-1.52-3.92,2,2,0,0,1,.68-1.83c.48-.2,1.32.28,1.91.63.3.18.3.82.59,1.06.51.41,1.43,1.09,1.66.92a4.37,4.37,0,0,0,1.52-2.05c.09-.29-.78-1.15-1.35-1.34-4.88-1.67-5-1.6-6.35,3.3l-.06.24C156.79,136.27,157.06,136.6,160.39,136.69Z"/><path d="M168.79,84.7c3.68,1,7.37,1.92,11,3A2.14,2.14,0,0,1,181.11,89c.25,1.46.1,3,2,3.44-.17.76-.18,2.08-.52,2.18-2.74.74-3,3-3.54,5.17-1,4-1.77,4.48-5.72,3.45-2.57-.67-5.16-1.25-7.73-1.92-2.39-.62-3.11-1.8-2.54-4.22.77-3.31,1.63-6.6,2.42-9.91A2.93,2.93,0,0,1,168.79,84.7Zm2.55,12.92a13.54,13.54,0,0,1-1.12-2.74,17.65,17.65,0,0,1,.11-3.16c.86.56,1.73,1.1,2.59,1.67.54.36,1.36,1.19,1.53,1.06A3.72,3.72,0,0,0,176,92.52c.09-.4-.79-1.33-1.39-1.53-4.85-1.61-4.87-1.57-6.13,3.42,0,.08,0,.16,0,.24C167.8,97.24,168,97.46,171.34,97.62Z"/><path d="M161.91,104.06c4.45,1.2,8.3,2.21,12.13,3.31a1.88,1.88,0,0,1,1.12,1.2c.22,1.48.21,3,2,3.57.05,0-.22,2-.58,2.12-3,.72-3,3.22-3.55,5.41-.87,3.67-1.6,4.15-5.17,3.24-2.74-.7-5.48-1.39-8.23-2-2.2-.52-3.09-1.8-2.55-4,.82-3.39,1.53-6.82,2.55-10.15C160,105.67,161.17,104.89,161.91,104.06Zm3.47,13.13a13.06,13.06,0,0,1-1.1-2.75,16.6,16.6,0,0,1,.12-3.14c.85.57,1.7,1.15,2.57,1.7.54.36,1.31,1.07,1.64.92a2.87,2.87,0,0,0,1.4-1.73,2,2,0,0,0-1-1.59c-4.15-1.81-5.09-1.36-6.35,2.82-.07.24-.12.48-.18.72C161.78,116.74,162,117,165.38,117.19Z"/><path d="M217.39,224.89c-2.57-.71-4.9-1.34-7.22-2q-26.05-7.37-52.12-14.76c-4.24-1.2-8.49-2.37-12.68-3.75-1-.32-1.66-1.43-2.48-2.18,1.11-.24,2.32-.92,3.29-.66,10,2.73,20,5.61,30,8.44l39.14,11a9.16,9.16,0,0,1,2.57.93,2.25,2.25,0,0,1,1,1.74C218.81,224.18,217.89,224.52,217.39,224.89Z"/><path d="M146.41,193.64,155,196.1q31.66,9,63.29,18.06c1,.28,1.68,1.43,2.5,2.17-1.17.23-2.47.9-3.5.62-11.55-3.16-23-6.47-34.56-9.73l-34.55-9.79a7,7,0,0,1-2.34-.81,2.92,2.92,0,0,1-1.08-2C144.78,194.32,145.9,193.94,146.41,193.64Z"/><path d="M248.62,79.71c.62-2.14,1.23-4.27,1.87-6.4.43-1.44,1.09-2.77,2.91-2.33s1.82,2,1.42,3.42C253.56,79,252.31,83.52,250.9,88c-.25.79-1.31,1.87-2,1.85a3.35,3.35,0,0,1-2.38-1.65c-1.34-2.75-2.41-5.64-3.6-8.48-.3-.71-.67-1.39-1.33-2.75-.92,3.07-1.65,5.42-2.33,7.78-.43,1.52-1.17,2.78-2.93,2.26s-1.75-2-1.26-3.65c1.33-4.37,2.46-8.8,3.88-13.13.32-1,1.49-2.32,2.3-2.34s2,1.24,2.44,2.2c1.52,3.17,2.79,6.47,4.15,9.71Z"/><path d="M242.94,141.12l-19.21-4.71-35.14-8.62c-3.55-.87-7.14-1.63-10.65-2.65-.79-.23-1.93-1.4-1.87-2,.16-1.68,1.57-1.25,2.73-1q31.74,7.8,63.47,15.64c.83.21,1.46,1.24,2.18,1.89Z"/><path d="M172.41,141.43c5.77,1.38,11.12,2.65,16.45,4q24,5.88,48,11.79c.32.08.75.07.94.27.6.65,1.11,1.38,1.66,2.08-.85.3-1.78,1-2.53.83-4.07-.84-8.1-1.89-12.14-2.88L173.88,145a4.3,4.3,0,0,1-1.66-.49c-.54-.45-1.26-1.22-1.19-1.76S172.05,141.74,172.41,141.43Z"/><path d="M248.94,121.52c-4.42-1.06-8.39-2-12.34-3q-25.71-6.33-51.39-12.7c-1.35-.34-3.82-.1-3.25-2.41.53-2.11,2.52-.91,3.85-.58q31.17,7.58,62.31,15.28c.87.22,1.52,1.37,2.27,2.08Z"/><path d="M230.13,80.24c.13,2.15.35,3.82-1.81,4s-2.55-1.52-2.53-3c0-3.27-2.66-2.87-4.48-3.65s-2.31.73-3.12,1.73c-.2.26-.38.69-.64.75-1.09.25-2.2.4-3.31.58-.09-1-.67-2.45-.2-3.1,3.13-4.41,6.44-8.69,9.81-12.93.48-.6,1.78-1.2,2.29-.95A3.67,3.67,0,0,1,228,66.05C228.84,71,229.5,75.91,230.13,80.24Z"/><path d="M185.46,66.32c-2.26-.95-2.93.67-3.36,2.66-.1.49-.1,1.14-.41,1.41a22.33,22.33,0,0,1-2.62,1.72c-.53-.89-1.59-1.84-1.5-2.66a42.2,42.2,0,0,1,1.55-6.79c.82-3,1.8-5.87,2.64-8.83.54-1.91,1.72-2.42,3.59-2.12,4.85.8,7.87,3.85,7.91,8.16C193.32,64.33,190.65,66.63,185.46,66.32Zm-1-4.94c1.78.37,3.48,1.15,4.11-.86s-.57-3.2-2.73-3.76Z"/><path d="M205.41,59.58c-1.11,3.57-2.06,6.67-3,9.77s-1,3.22,2.24,4.21a11.32,11.32,0,0,1,3.28,1.1,3.15,3.15,0,0,1,1.24,2.55,2.84,2.84,0,0,1-2.38,1.48,64.28,64.28,0,0,1-8.39-2.41,2.54,2.54,0,0,1-1.67-3.42c1.37-4.46,2.63-9,4.16-13.35a3.36,3.36,0,0,1,2.53-1.73C204.05,57.74,204.79,59,205.41,59.58Z"/><path d="M109.43,207.53l-2-2.22a19.53,19.53,0,0,1,3.4-2c.45-.16,1.27.69,1.91,1.07Z"/><path d="M58,168.83c1.76-.69,2.79-.3,3.12,1.77.56,3.51,1.39,7,1.92,10.49.1.68-.62,1.48-1,2.22-.66-.45-1.81-.81-1.91-1.37-.82-4.37-1.43-8.78-2.11-13.18Z"/><path d="M64.89,207.06c0,2.23-.84,3.44-2.93,3.41s-2.78-1.6-2.76-3.39.71-3.3,2.85-3.35C63.92,203.67,64.92,205,64.89,207.06Z"/><path d="M54.42,235.69c-.14-1.78.53-3.17,2.58-3.39,1.72-.19,3.12,1.43,3,3.45-.06,1.84-.72,3.25-2.87,3.3C55.28,239.1,54.43,238.1,54.42,235.69Z"/><path d="M81.8,77.05a32.24,32.24,0,0,1-4.65-1.91c-.55-.32-.57-1.53-.83-2.33.75-.1,1.69-.52,2.24-.22a6.56,6.56,0,0,0,6.41.26c.53-.26,1.5.38,2.27.61-.39.74-.59,1.81-1.21,2.15A23.93,23.93,0,0,1,81.8,77.05Z"/><path d="M116.77,56.61a28.39,28.39,0,0,1-1.67,4.11c-.3.51-1.37.57-2.09.83a7.82,7.82,0,0,1-.53-2.17,43.64,43.64,0,0,1,.52-5.47,7,7,0,0,1,1-2c.63.42,1.52.7,1.83,1.29A15.64,15.64,0,0,1,116.77,56.61Z"/><path d="M51.7,57.32a35.52,35.52,0,0,1,.8,4.06,6.49,6.49,0,0,1-.6,2.17c-.7-.29-1.72-.39-2-.92a7.91,7.91,0,0,1-.49-7.56c.21-.51,1.15-.88,1.79-.94.27,0,.76.88.91,1.42A5.56,5.56,0,0,1,52,57.27Z"/><path d="M91.65,36.39a21,21,0,0,1,4.14,1.07c.63.32.9,1.36,1.33,2.07-.71.25-1.52.87-2.12.7a7.58,7.58,0,0,0-6.67.77c-.45.3-1.44-.23-2.19-.38.24-.74.25-1.86.75-2.14A43.73,43.73,0,0,1,91.65,36.39Z"/><path d="M74.53,40.41c-1.34.27-2.37.83-2.88.52A7.79,7.79,0,0,0,65,40.27c-.6.17-1.44-.44-2.17-.68.35-.68.53-1.6,1.09-2,2.1-1.48,7-1.11,9,.59A18,18,0,0,1,74.53,40.41Z"/><path d="M89.43,51.56c0-2.34,1-4,2.67-3.77C94,48,95,49.21,95,51.2s-.49,3.55-2.77,3.65S89.45,53.43,89.43,51.56Z"/><path class="cls-1" d="M170.09,169.57c2.42,1.3,4.53,2.29,6.47,3.53a2.54,2.54,0,0,1,.93,2.16c-1.42,5.11-3,10.18-4.55,15.26,0,.16-.07.37-.18.45-2.53,1.78-4.61-.6-6.93-.85-.32,0-.83-1.56-.66-2.25,1.25-5.15,2.64-10.28,4-15.41C169.4,171.6,169.71,170.76,170.09,169.57Z"/><path class="cls-1" d="M190.09,196.84l-8.06-2.3c1.5-5.13,2.88-9.89,4.48-15.35,2.36,1.76,4.4,3.22,6.34,4.81.32.26.36,1.11.24,1.61C192.17,189.23,191.18,192.83,190.09,196.84Z"/><path class="cls-1" d="M160.39,136.69c-3.33-.09-3.6-.42-2.92-3l.06-.24c1.37-4.9,1.47-5,6.35-3.3.57.19,1.44,1.05,1.35,1.34a4.37,4.37,0,0,1-1.52,2.05c-.23.17-1.15-.51-1.66-.92-.29-.24-.29-.88-.59-1.06-.59-.35-1.43-.83-1.91-.63a2,2,0,0,0-.68,1.83A28.87,28.87,0,0,0,160.39,136.69Z"/><path class="cls-1" d="M171.34,97.62c-3.36-.16-3.54-.38-2.91-3,0-.08,0-.16,0-.24,1.26-5,1.28-5,6.13-3.42.6.2,1.48,1.13,1.39,1.53a3.72,3.72,0,0,1-1.55,1.93c-.17.13-1-.7-1.53-1.06-.86-.57-1.73-1.11-2.59-1.67a17.65,17.65,0,0,0-.11,3.16A13.54,13.54,0,0,0,171.34,97.62Z"/><path class="cls-1" d="M165.38,117.19c-3.42-.23-3.6-.45-2.94-3,.06-.24.11-.48.18-.72,1.26-4.18,2.2-4.63,6.35-2.82a2,2,0,0,1,1,1.59,2.87,2.87,0,0,1-1.4,1.73c-.33.15-1.1-.56-1.64-.92-.87-.55-1.72-1.13-2.57-1.7a16.6,16.6,0,0,0-.12,3.14A13.06,13.06,0,0,0,165.38,117.19Z"/><path class="cls-1" d="M184.43,61.38l1.38-4.62c2.16.56,3.36,1.76,2.73,3.76S186.21,61.75,184.43,61.38Z"/></g></g></g></svg>