<svg width="184" height="184" xmlns="http://www.w3.org/2000/svg"><g fill="none" fill-rule="evenodd"><path d="M92 0C14.234 0 0 37.189 0 91.997 0 146.811 14.234 184 92 184c77.772 0 92-37.189 92-92.003C184 37.19 169.772 0 92 0" fill="#7AABCA" opacity=".2"/><path d="M126.017 106.757c-4.285 3.478-9.003 6.36-14.12 8.391l9.303 16.112 9.229 3.942a2.737 2.737 0 0 0 3.792-2.19l1.201-9.964-9.405-16.29zm7.269-16.175c.831-1.312.323-3.078-1.035-3.83l-4.802-2.664c-1.28-.71-2.841-.25-3.637.979a38.356 38.356 0 0 1-32.18 17.513c-4.094 0-8.08-.727-11.873-1.972l11.522-19.96c.12.003.23.036.35.036.119 0 .23-.033.348-.036l8.74 15.14a32.584 32.584 0 0 0 14.131-8.37l-8.859-15.345c1.274-2.332 2.063-4.966 2.063-7.811 0-9.07-7.352-16.422-16.422-16.422S75.21 55.192 75.21 64.262c0 2.845.789 5.48 2.061 7.81l-11.683 20.24c-2.147-1.987-4.099-4.207-5.762-6.672-.819-1.215-2.39-1.646-3.657-.912l-4.747 2.749c-1.343.777-1.818 2.549-.965 3.844 2.664 4.044 5.934 7.562 9.576 10.609L47.84 123.05l1.2 9.964a2.737 2.737 0 0 0 3.793 2.19l9.23-3.942 12.11-20.977c5.507 2.093 11.407 3.243 17.459 3.243 16.944 0 32.652-8.726 41.654-22.946zM91.632 58.788a5.475 5.475 0 1 1-.001 10.95 5.475 5.475 0 0 1 .001-10.95z" fill="#7BACCB" fill-rule="nonzero"/></g></svg>