<svg width="50" height="50" viewBox="0 0 50 50" fill="none" xmlns="http://www.w3.org/2000/svg">
<path opacity="0.2" fill-rule="evenodd" clip-rule="evenodd" d="M25 0C3.86783 0 0 10.1056 0 24.9992C0 39.8944 3.86783 50 25 50C46.1337 50 50 39.8944 50 24.9992C50 10.1056 46.1337 0 25 0" fill="#7AABCA"/>
<g clip-path="url(#clip0_102_11)">
<path d="M34.1198 25.3663C34.5755 25.3663 34.9062 24.9878 34.9062 24.5309C34.9062 24.0741 34.6198 23.6955 34.1198 23.6955C33.6641 23.6955 33.3333 24.0741 33.3333 24.5309C33.3333 24.9878 33.7083 25.3663 34.1198 25.3663ZM24.9531 21.1894C27.4792 21.1894 29.4896 19.127 29.4896 16.5947C29.4896 14.0624 27.526 12 24.9531 12C22.3802 12 20.4167 14.0624 20.4167 16.5947C20.4167 19.127 22.474 21.1894 24.9531 21.1894ZM14.1667 25.3663C14.6224 25.3663 14.9531 24.9878 14.9531 24.5309C14.9531 24.0741 14.6224 23.6955 14.1667 23.6955C13.7109 23.6955 13.3333 24.0767 13.3333 24.5309C13.3333 24.9852 13.7109 25.3663 14.1667 25.3663ZM13.9536 31.5848C13.9864 31.5609 16.1213 30.0571 19.1672 28.9716L19.1667 34.5557H30.7865L30.7864 28.9794C33.8239 30.0654 35.9692 31.5634 36 31.5853C36.4896 31.8981 36.9948 32.0495 37.4948 32.0495C38.275 32.0495 39.0432 31.684 39.5318 31.0006C40.3344 29.8733 40.074 28.3085 38.9505 27.5039C38.8487 27.4313 37.8516 26.7296 36.251 25.8932C35.8073 26.5777 35.0365 27.0371 34.1198 27.0371C32.7526 27.0371 31.6667 25.9015 31.6667 24.5309C31.6667 24.3456 31.6909 24.1659 31.7301 23.9916C29.7187 23.3405 27.4167 22.8601 25 22.8601C21.9078 22.8601 19.0573 23.6439 16.6615 24.5659C16.6458 25.9198 15.5208 27.0371 14.1667 27.0371C13.5948 27.0371 13.0698 26.8283 12.6458 26.4993C11.7026 27.045 11.1224 27.4506 11.0469 27.505C9.92395 28.3095 9.66353 29.8743 10.4656 31.0016C11.2672 32.1278 12.8281 32.3837 13.9536 31.5848ZM27.4531 29.961C28.1432 29.961 28.6562 30.5223 28.6562 31.2141C28.6562 31.9059 28.0964 32.4672 27.4531 32.4672C26.763 32.4672 26.25 31.9059 26.25 31.2141C26.25 30.5223 26.8073 29.961 27.4531 29.961ZM22.5 24.9486C23.1901 24.9486 23.7031 25.5099 23.7031 26.2017C23.7031 26.8935 23.1927 27.4548 22.5 27.4548C21.8099 27.4548 21.2969 26.8935 21.2969 26.2017C21.2969 25.5099 21.8125 24.9486 22.5 24.9486ZM39.1198 36.2265H10.8333C10.3776 36.2265 10.0469 36.605 10.0469 37.0619L10.0468 37.8973C10.0468 38.3541 10.4244 38.7327 10.8332 38.7327H39.1197C39.5754 38.7327 39.9062 38.3541 39.9062 37.8973L39.9531 37.0619C39.9531 36.6076 39.6198 36.2265 39.1198 36.2265Z" fill="#7BACCB"/>
</g>
<defs>
<clipPath id="clip0_102_11">
<rect width="30" height="26.7327" fill="white" transform="translate(10 12)"/>
</clipPath>
</defs>
</svg>
