<svg width="184" height="184" xmlns="http://www.w3.org/2000/svg"><g fill="none" fill-rule="evenodd"><path d="M92 0C14.234 0 0 37.189 0 91.997 0 146.811 14.234 184 92 184c77.772 0 92-37.189 92-92.003C184 37.19 169.772 0 92 0" fill="#7AABCA" opacity=".2"/><path d="M80.426 92.599a2.737 2.737 0 0 0 3.871 0l1.935-1.935a2.737 2.737 0 0 0 0-3.871l-6.11-6.109 6.108-6.11a2.737 2.737 0 0 0 0-3.871l-1.934-1.935a2.737 2.737 0 0 0-3.872 0l-9.98 9.98a2.737 2.737 0 0 0 0 3.87l9.982 9.98zm16.424-1.934l1.934 1.935a2.737 2.737 0 0 0 3.872 0l9.98-9.98a2.737 2.737 0 0 0 0-3.87l-9.98-9.98a2.737 2.737 0 0 0-3.872 0l-1.934 1.934a2.737 2.737 0 0 0 0 3.871l6.108 6.109-6.108 6.11a2.737 2.737 0 0 0 0 3.871zm46.693 28.337h-41.476c-.126 3.389-2.516 5.474-5.6 5.474H86.066c-3.197 0-5.648-2.988-5.606-5.474H39.537a2.745 2.745 0 0 0-2.737 2.737v2.737c0 6.021 4.927 10.948 10.948 10.948h87.584c6.021 0 10.948-4.927 10.948-10.948v-2.737a2.745 2.745 0 0 0-2.737-2.737zm-8.211-62.951c0-4.516-3.695-8.211-8.211-8.211H55.959c-4.516 0-8.211 3.695-8.211 8.211v57.477h87.584V56.051zm-10.948 46.529H58.696V58.788h65.688v43.792z" fill="#7BACCB" fill-rule="nonzero"/></g></svg>