<svg xmlns="http://www.w3.org/2000/svg" viewBox="0 0 249.22 706.5"><defs><style>.cls-1,.cls-3,.cls-6{fill:#fff;}.cls-2{fill:#010101;}.cls-3,.cls-5,.cls-6{stroke:#010101;stroke-linejoin:round;stroke-width:4px;}.cls-4{fill:#7babca;}.cls-5{fill:none;}.cls-5,.cls-6{stroke-linecap:round;}</style></defs><title>Asset 5</title><g id="Layer_2" data-name="Layer 2"><g id="Layer_1-2" data-name="Layer 1"><path class="cls-1" d="M35.67,681.48c-1.51,12.08,2.28,20.15,13.51,21.71,9.65,1.35,20.8,1.49,29.48-3.48,8.48-4.86,14.67-13.13,21-20.38,7.61-8.75,11.59-15.88,8-27.73Z"/><path class="cls-2" d="M33.17,681.48c-.81,6.74-.23,14.56,5,19.49a18.17,18.17,0,0,0,9.15,4.44A67,67,0,0,0,61,706.49a44,44,0,0,0,13.57-2.2A38.48,38.48,0,0,0,86.71,697a88.18,88.18,0,0,0,9.41-9.72c3-3.45,6-6.85,8.78-10.46a31,31,0,0,0,5.93-11.56,27.76,27.76,0,0,0-.78-14.32,2.51,2.51,0,0,0-3.08-1.75l-24.4,10.13-38.64,16L35,679.07a2.59,2.59,0,0,0-1.75,3.08,2.52,2.52,0,0,0,3.08,1.74l24.4-10.13,38.64-16L108.3,654l-3.07-1.74a23.18,23.18,0,0,1,1,10.7,24,24,0,0,1-4,9.11,111.21,111.21,0,0,1-7.48,9.17c-2.74,3.24-5.5,6.48-8.53,9.45A41.61,41.61,0,0,1,76.51,698a31.51,31.51,0,0,1-11.61,3.23,62.46,62.46,0,0,1-12.75-.2c-3.14-.33-6.25-.83-8.83-2.41a11,11,0,0,1-4.68-6.37,26.62,26.62,0,0,1-.47-10.8,2.51,2.51,0,0,0-2.5-2.5A2.57,2.57,0,0,0,33.17,681.48Z"/><path class="cls-2" d="M70.44,642.3c-7.24,8.71-14.8,16.59-23.95,23.25-4.92,3.57-11,8.43-13,14.42-2.75,8.28,5.27,12.15,12,14.17a45.33,45.33,0,0,0,27.72-.61c9.62-3.35,15-9.7,21.82-16.69,3-3,7.16-5.15,9.3-8.82,3-5.18,4.3-13.23,2.61-19C102.85,635.09,80.9,640,70.44,642.3Z"/><path class="cls-2" d="M67.29,653.38a46.37,46.37,0,0,0,7.17.49,11.92,11.92,0,0,1,6.79,2"/><path class="cls-1" d="M66.63,655.79a58.6,58.6,0,0,0,8.06.59l.79.06c.11,0,.9.12.35,0,.52.09,1,.18,1.55.32.29.08.57.17.85.27s.63.27.23.08a9.8,9.8,0,0,1,1.53.91,2.5,2.5,0,0,0,3.42-.89,2.57,2.57,0,0,0-.9-3.42,13.85,13.85,0,0,0-7.15-2.31c-1.27-.11-2.56-.11-3.83-.15-.63,0-1.25,0-1.87-.08-.35,0-.71-.05-1.06-.1.38,0-.55-.11-.64-.13a2.5,2.5,0,1,0-1.33,4.82Z"/><path class="cls-2" d="M59.78,661c1.62,0,12.38-.22,16.85,3.22"/><path class="cls-1" d="M59.78,663.52c2.39,0,4.77.07,7.15.31l.62.07c.07,0,.74.09.39,0s.33,0,.4.06l.73.12c.83.15,1.65.32,2.46.54.39.1.78.22,1.16.35l.56.2c.24.09.5.21.11,0a10.7,10.7,0,0,1,2,1.15,2.5,2.5,0,0,0,3.42-.89,2.56,2.56,0,0,0-.89-3.42c-2.94-2.21-7-2.81-10.55-3.21-2.52-.28-5-.31-7.56-.35a2.5,2.5,0,1,0,0,5Z"/><path class="cls-1" d="M121.78,683.48c-1.52,12.08,2.28,18.15,13.5,19.71,9.65,1.35,20.81,1.49,29.49-3.48,8.47-4.86,16.68-11.78,21-20.38,5.25-10.54.5-19.76-3.08-31.61Z"/><path class="cls-2" d="M119.28,683.48c-.76,6.24-.37,13.57,4.83,17.92a19.47,19.47,0,0,0,8.86,3.93,68.29,68.29,0,0,0,13.08,1.17,46,46,0,0,0,13.64-1.9,43.63,43.63,0,0,0,11.83-6.22c7.43-5.21,14.49-12.11,17.67-20.79,3.76-10.28-1.14-20.76-4.12-30.53a2.53,2.53,0,0,0-3.67-1.5l-20.69,12.16L128,676.92l-7.5,4.4c-2.78,1.63-.26,6,2.52,4.32l20.69-12.15,32.69-19.2,7.5-4.41-3.67-1.49c1.31,4.32,2.9,8.56,4.07,12.92,1,3.67,1.7,7.6,1,11.39-1.45,8-7.58,14.53-13.7,19.41a52.19,52.19,0,0,1-10.1,6.46A32.92,32.92,0,0,1,150,701.35a65.86,65.86,0,0,1-12.32-.35,37.12,37.12,0,0,1-5-.87,13.63,13.63,0,0,1-3.53-1.35,8.53,8.53,0,0,1-2.86-2.33c-.27-.3.19.27,0-.05-.11-.15-.23-.32-.33-.48a8.3,8.3,0,0,1-.49-.81,5.67,5.67,0,0,1-.65-1.55c-1-3.18-.86-6.58-.43-10.08a2.52,2.52,0,0,0-2.5-2.5A2.56,2.56,0,0,0,119.28,683.48Z"/><path class="cls-2" d="M149.55,642.3c-7.25,8.71-10.67,18.72-17,25.25-4.22,4.37-11,8.43-13,14.42-2.74,8.28,5.27,12.15,12,14.17a45.3,45.3,0,0,0,27.71-.61c9.62-3.35,15.61-9,20.18-17.73,2.15-4.1,1.81-6.11,3.94-9.78,3-5.18,4.3-13.23,2.61-19C182,635.09,160,640,149.55,642.3Z"/><polygon class="cls-3" points="103.77 99.35 103.77 135.56 130.91 164.93 147.57 130.56 147.57 97.86 103.77 99.35"/><path class="cls-3" d="M125.57,355.5H55.49L68.11,642.82a75.35,75.35,0,0,1,18.9.68,87.48,87.48,0,0,1,18.91,5.32s5.62-224,19.65-224l19.65,219s9.53.31,17.08,1c10.93,1,23.74,5,23.74,5s-.28-115.11,1-153.46c1.2-35.26,8.61-140.86,8.61-140.86Z"/><path class="cls-4" d="M53.45,221.88c11-1.83-.21-7.49,0,0v0c1.91,60.93.44,132-5.34,153.19,0,0,55.08,11.92,69.64,3.34,5.1-3,7.82-4.33,7.82-4.33s1.8,4.18,7.82,6.33c15.11,5.38,72.27-6.68,72.27-6.68.2-9.09-6.24-22.12-6.58-51.42l-.35-73.88,48.88-10.32S237,203.43,233.33,180.82c-3.75-23.39-40.87-40.46-40.87-40.46-9-5.26-22.91-6.22-23.88-9.8-1.45-5.31-19.33-25.12-19.33-13.53s-23.68,39.63-23.68,39.63-23.68-28-23.68-39.63S84,125.25,82.56,130.56c-1.19,4.37-18.06,7.11-28.91,14h0s-14.74,7.65-18.44,11.65C21.7,170.81,7.13,209.6,1.33,228.3l49.29,19Z"/><path class="cls-5" d="M82.56,130.56S94.89,157,106.17,161.39l4.72-13.91,14.68,12.18-2,32.71-1,46.39,1,46.07v47l1,42.25"/><path class="cls-5" d="M168.58,130.56s-13.4,27.45-21,30.35L142,147.23l-16.43,12.43"/><path class="cls-2" d="M135.13,214.32a3.22,3.22,0,0,0-.58-.79,4.43,4.43,0,0,0-.77-.6,4.14,4.14,0,0,0-2-.57,4.93,4.93,0,0,0-.54,0,5.12,5.12,0,0,0-.54.1,3.12,3.12,0,0,0-1,.45,1.39,1.39,0,0,0-.53.49,1.18,1.18,0,0,0-.23.35,1.22,1.22,0,0,0-.48.55,5.11,5.11,0,0,0-.28.68,3.58,3.58,0,0,0-.11.73,3.87,3.87,0,0,0,.07,1,4.06,4.06,0,0,0,.34,1,4.41,4.41,0,0,0,.58.85,3.73,3.73,0,0,0,1.66,1.1,3.21,3.21,0,0,0,1,.17,4,4,0,0,0,.5-.05,2.35,2.35,0,0,0,.54-.1,3.49,3.49,0,0,0,.94-.43,4.25,4.25,0,0,0,.8-.67,4.53,4.53,0,0,0,.59-.84,3.63,3.63,0,0,0,.36-1,4.55,4.55,0,0,0,.09-.73,4.13,4.13,0,0,0-.08-.78A3.16,3.16,0,0,0,135.13,214.32Z"/><path class="cls-2" d="M135.13,259.53a3.17,3.17,0,0,0-.58-.78,4.05,4.05,0,0,0-.77-.61,4.13,4.13,0,0,0-2-.56,2.47,2.47,0,0,0-.54.05,3.38,3.38,0,0,0-.54.09,3.12,3.12,0,0,0-1,.45,1.47,1.47,0,0,0-.53.49,1.32,1.32,0,0,0-.23.35,1.27,1.27,0,0,0-.48.55,5.72,5.72,0,0,0-.28.68,3.67,3.67,0,0,0-.11.74,3.9,3.9,0,0,0,.07,1,4,4,0,0,0,.92,1.8,3.75,3.75,0,0,0,1.66,1.11,3.2,3.2,0,0,0,1,.16,2.74,2.74,0,0,0,.5,0,4.32,4.32,0,0,0,.54-.1,3.52,3.52,0,0,0,.94-.44,3.9,3.9,0,0,0,.8-.67,4.22,4.22,0,0,0,.59-.84,3.63,3.63,0,0,0,.36-1,4.41,4.41,0,0,0,.09-.73,3.94,3.94,0,0,0-.08-.77A3.21,3.21,0,0,0,135.13,259.53Z"/><path class="cls-2" d="M135.13,304.74a3.37,3.37,0,0,0-.58-.78,4,4,0,0,0-.77-.6,4,4,0,0,0-2-.57,3.29,3.29,0,0,0-.54,0,2.87,2.87,0,0,0-1.5.55,1.39,1.39,0,0,0-.53.49,1.27,1.27,0,0,0-.23.34,1.33,1.33,0,0,0-.48.55,5.72,5.72,0,0,0-.28.68,3.78,3.78,0,0,0-.11.74,3.9,3.9,0,0,0,.07,1,4,4,0,0,0,.34,1,4.19,4.19,0,0,0,.58.86,3.82,3.82,0,0,0,1.66,1.1,3.52,3.52,0,0,0,1,.17,4,4,0,0,0,.5-.05,3,3,0,0,0,.54-.1,3.52,3.52,0,0,0,.94-.44,4.19,4.19,0,0,0,.8-.66,4.6,4.6,0,0,0,.59-.85,3.57,3.57,0,0,0,.36-1,4.55,4.55,0,0,0,.09-.73,4,4,0,0,0-.08-.78A3.32,3.32,0,0,0,135.13,304.74Z"/><path class="cls-2" d="M136.13,350a3.22,3.22,0,0,0-.58-.79,4.43,4.43,0,0,0-.77-.6,4.14,4.14,0,0,0-2-.57,4.93,4.93,0,0,0-.54.05,3.41,3.41,0,0,0-.54.1,3.12,3.12,0,0,0-1,.45,1.39,1.39,0,0,0-.53.49,1.27,1.27,0,0,0-.23.34,1.29,1.29,0,0,0-.48.56,5.11,5.11,0,0,0-.28.68,3.58,3.58,0,0,0-.11.73,3.87,3.87,0,0,0,.07,1,4.06,4.06,0,0,0,.34,1,4.41,4.41,0,0,0,.58.85,3.73,3.73,0,0,0,1.66,1.1,3.21,3.21,0,0,0,1,.17,4,4,0,0,0,.5-.05,2.35,2.35,0,0,0,.54-.1,3.49,3.49,0,0,0,.94-.43,4.66,4.66,0,0,0,.8-.67,4.6,4.6,0,0,0,.59-.85,3.46,3.46,0,0,0,.36-1,4.55,4.55,0,0,0,.09-.73,4,4,0,0,0-.08-.78A3.16,3.16,0,0,0,136.13,350Z"/><path class="cls-2" d="M137.13,170.1a3.37,3.37,0,0,0-.58-.78,4.43,4.43,0,0,0-.77-.6,4,4,0,0,0-2-.57,4.93,4.93,0,0,0-.54,0,2.56,2.56,0,0,0-.54.1,3.12,3.12,0,0,0-1,.45,1.39,1.39,0,0,0-.53.49,1.27,1.27,0,0,0-.23.34,1.33,1.33,0,0,0-.48.55,6.5,6.5,0,0,0-.28.68,3.78,3.78,0,0,0-.11.74,3.7,3.7,0,0,0,.41,2,4.19,4.19,0,0,0,.58.86,3.82,3.82,0,0,0,1.66,1.1,3.21,3.21,0,0,0,1,.17,4,4,0,0,0,.5-.05,3,3,0,0,0,.54-.1,3.49,3.49,0,0,0,.94-.43,4.66,4.66,0,0,0,.8-.67,4.6,4.6,0,0,0,.59-.85,3.57,3.57,0,0,0,.36-1,4.55,4.55,0,0,0,.09-.73,4,4,0,0,0-.08-.78A3.32,3.32,0,0,0,137.13,170.1Z"/><path class="cls-2" d="M53.23,157.84A97.57,97.57,0,0,1,54.71,177c0,7.18-1.07,14.26-1.39,21.42-.11,2.41,3.64,2.4,3.75,0,.33-7.3,1.42-14.53,1.39-21.85a100.31,100.31,0,0,0-1.62-19.73c-.47-2.36-4.09-1.36-3.61,1Z"/><path class="cls-2" d="M192.36,209.31c.29,12.93,1,26,4.65,38.48.68,2.31,4.3,1.33,3.61-1-3.59-12.17-4.23-24.88-4.51-37.49-.05-2.41-3.8-2.42-3.75,0Z"/><path class="cls-1" d="M145.49,666.17c6-.34,12.4-.75,17.62,2.75a2.5,2.5,0,0,0,2.52-4.32c-5.94-4-13.3-3.82-20.14-3.43a2.56,2.56,0,0,0-2.5,2.5,2.51,2.51,0,0,0,2.5,2.5Z"/><path class="cls-1" d="M147.58,656.27c3.33.35,6.67,0,10,.07,2.41.08,5.17.49,7.06,2a2.59,2.59,0,0,0,3.54,0,2.53,2.53,0,0,0,0-3.54,17.11,17.11,0,0,0-9.68-3.39c-3.64-.24-7.28.27-10.92-.11a2.52,2.52,0,0,0-2.5,2.5,2.55,2.55,0,0,0,2.5,2.5Z"/><path class="cls-2" d="M85.06,145.57l15.38,96.05a1.89,1.89,0,0,0,2.09,1.58l11.09-1.33a1.88,1.88,0,0,0,1.66-2.05l-9.08-96.71a1.88,1.88,0,0,0-2.09-1.7l-17.4,2A1.89,1.89,0,0,0,85.06,145.57Z"/><path class="cls-2" d="M166.93,390.83a32.47,32.47,0,0,0,13.47,24.42c2,1.41,3.83-1.84,1.89-3.24a28.45,28.45,0,0,1-11.61-21.18c-.13-2.4-3.89-2.42-3.75,0Z"/><path class="cls-2" d="M80.64,392.93a32.21,32.21,0,0,1-10.83,18,1.87,1.87,0,1,0,2.65,2.65,35.54,35.54,0,0,0,11.8-19.62c.5-2.36-3.11-3.36-3.62-1Z"/><path class="cls-3" d="M11,232.53S-4.43,279.4,21.66,293.41s59-66.38,59.44-78.85c0,0,13.05-10.06,13.53-17.31s16-1.45,16.91-6.28.61-5.92-.72-6.16c0,0,4.71-3.26-.37-7.13,0,0,5.2-6.4,1-9.78s-5.44-3.14-5.44-3.14,5.32-3.63,1.09-6.41-23.31-.24-27.66,3.39-11.72,24.76-10.75,30S32.9,231.08,30.6,236.52Z"/><path class="cls-3" d="M237.28,237.75s5.32,42-8.7,46.15-60.64-13.32-77.31-29.75c0,0-14-3.84-17.4-8.67s-24.8-3.67-27.3-6.52c-1.85-2.1-.24-5.8,11.35-6.28l11.6-.49s-13.85-5-25.37-2c-12.8,5.08-14.49-6.21,0-7.9s21.51-1.94,21.51-1.94a51.63,51.63,0,0,0-14.25-2.65c-6.75-.17-13.8,1.89-16,2-3.43.13-8.45-5.55.73-8.7a43.87,43.87,0,0,1,13.49-2.26c2.78.06,9.29-.59,10.43-.18,0,0-10.87-4.35-22-2.18,0,0-2.41,0-2.41-3.14,0-4.83,8.69-4.62,16.43-3.17s25.61,4.86,28.75,11.63,7.49,14.49,14.49,16.18,47.36,13.53,54.85,20.78Z"/><polygon class="cls-4" points="210.11 246.06 212.01 250.03 249.22 243.39 247.61 238.14 243.31 223.33 210.11 246.06"/><path class="cls-6" d="M209.38,247.83s5.4,4.7,7.19,7.78"/><polygon class="cls-4" points="4.19 219.58 0 231.55 30.29 239.16 28.99 230.58 4.19 219.58"/><path class="cls-5" d="M38.29,227.27a78.61,78.61,0,0,0-5.94,6.37c-.88,1.12-5.24,9.27-5.24,9.27"/><path class="cls-3" d="M84.38,47.66s-17.68,76.61,16.7,74.64S145.6,99.06,145.6,99.06a21.67,21.67,0,0,0,17.68-15.39c4.25-14.07-6.88-14.34-16-10.61l4.91-25.4L85.56,32.28Z"/><path class="cls-2" d="M79.25,47.72s-8.45-9.87,4.32-25.51S102.23,0,102.23,0V10S113.49,3.63,118.6,2.5A164.8,164.8,0,0,1,136.28,0l-3.93,7.58a54.33,54.33,0,0,1,25,8.84c9.89,6.53,14.92,14.1,15.82,27.37.51,7.5-2.22,33.37-11.39,44.68A75.48,75.48,0,0,0,149,112.62l-.39-14.23,2.69-24.28s-2.67,2.9-4.22,2.75c-.52,0-2.05,1-3.08,1.11a7.78,7.78,0,0,0-4.16,1.7s-.45-12.67-1.64-19.62c-.79-4.6-1.71-7.21-6-10.45-7.16-5.39-20.51-9.19-31.9-11.7a74.27,74.27,0,0,0,8.84,8.48S92.08,47,87.5,39.13c0,0,.44,11.59,2,15C89.46,54.12,84.48,53.66,79.25,47.72Z"/><path class="cls-3" d="M145.6,99.06c23.91-6.64,20.29-25.89,12.8-29s-12.77,3.8-12.77,3.8a16.52,16.52,0,0,1-2.6,2.15"/><polygon class="cls-2" points="140.58 73.61 139.37 82.5 150.42 72.14 142.73 71.69 140.58 73.61"/><path class="cls-2" d="M84.89,55.28A9.92,9.92,0,0,1,94,56.85c.69.5,1.52.3,1.93-.77a2.87,2.87,0,0,0-.51-2.95,12.17,12.17,0,0,0-11.32-2c-.74.23-1.18,1.58-1,2.65S84.14,55.52,84.89,55.28Z"/><path class="cls-2" d="M108.74,56.75A24.69,24.69,0,0,1,124,58.15a2.18,2.18,0,0,0,2.66-1.52A2.21,2.21,0,0,0,125.17,54a28.72,28.72,0,0,0-17.54-1.4,2.16,2.16,0,1,0,1.11,4.17Z"/><path class="cls-2" d="M84.55,69.13a5.08,5.08,0,0,0,1.94,0,2.76,2.76,0,0,0,.75-.1,3.31,3.31,0,0,0,1.82-1.34,3.21,3.21,0,0,0-.61-4,3.49,3.49,0,0,0-.81-.57,3.79,3.79,0,0,0-1.44-.37,3.83,3.83,0,0,0-2.07.5,4,4,0,0,0-1.55,1.48,2.83,2.83,0,0,0-.07,2.85A3.26,3.26,0,0,0,84.55,69.13Z"/><path class="cls-2" d="M114.25,67.48a3.57,3.57,0,0,0-.8-1.66,3.82,3.82,0,0,0-1.64-1.13,4.07,4.07,0,0,0-.5-.13,3,3,0,0,0-.51-.07,2.88,2.88,0,0,0-1,.11,1.47,1.47,0,0,0-.63.27,2.34,2.34,0,0,0-.31.24,1.34,1.34,0,0,0-.6.35,5.72,5.72,0,0,0-.45.53,3.69,3.69,0,0,0-.33.62,3.45,3.45,0,0,0-.23,1.9,3.36,3.36,0,0,0,.26.94,3.47,3.47,0,0,0,1.15,1.5,2.89,2.89,0,0,0,.86.47,3.57,3.57,0,0,0,.47.11,3,3,0,0,0,.51.07,3.24,3.24,0,0,0,1-.1,3.78,3.78,0,0,0,1.71-.93,3.92,3.92,0,0,0,.63-.78,5.18,5.18,0,0,0,.3-.63,4.41,4.41,0,0,0,.16-.72A3.42,3.42,0,0,0,114.25,67.48Z"/><path class="cls-2" d="M84.4,79.11c-.05.33.09,0-.09.29a4.59,4.59,0,0,1-.35.47,5.43,5.43,0,0,0-.82,1.47,5.23,5.23,0,0,0-.13,2.8,6.5,6.5,0,0,0,3.54,4.37,16.16,16.16,0,0,0,6.1,1.34,31.88,31.88,0,0,0,6.69-.34,1.89,1.89,0,0,0,1.31-2.31,1.94,1.94,0,0,0-2.31-1.31,26.38,26.38,0,0,1-5.18.24,13.23,13.23,0,0,1-4.57-.78,5.63,5.63,0,0,1-1.31-.87c-.32-.29,0,.15-.19-.22l-.24-.41c-.09-.15,0,.13-.08-.16l-.12-.45c-.05-.19,0,.19,0-.15,0,0,0-.59,0-.23,0,0,.12-.48.06-.3s.12-.23.15-.27A6.43,6.43,0,0,0,88,80.1a1.93,1.93,0,0,0-1.31-2.3,1.89,1.89,0,0,0-2.31,1.31Z"/><path class="cls-1" d="M108.81,100.08a24.12,24.12,0,0,1-10.12.39C95.31,100,92,99.26,88.58,99.05c0,0,2.17,3.47,3.74,3.47s8.72-.18,12.07-1.16C107.91,100.32,108.81,100.08,108.81,100.08Z"/><path class="cls-2" d="M108.32,98.27c-6.49,1.87-13.23-.64-19.74-1.1A1.88,1.88,0,0,0,87,100c1,1.6,2.39,3.51,4.23,4.18a6.16,6.16,0,0,0,2.34.21c1.13,0,2.25-.08,3.37-.15a40.42,40.42,0,0,0,7.6-1c1.62-.41,3.2-1,4.81-1.39,2.33-.63,1.34-4.24-1-3.61-1.36.37-2.71.77-4.06,1.17a31,31,0,0,1-6.57,1c-1.79.13-3.58.12-5.37.22.28,0,0-.11.15,0s-.47-.33-.28-.17a7.64,7.64,0,0,1-1.08-1.12,12.94,12.94,0,0,1-.92-1.27l-1.61,2.82c6.93.49,13.8,3,20.73,1C111.63,101.21,110.64,97.59,108.32,98.27Z"/><path class="cls-2" d="M101.57,62.47c-2.6,5.55-3.64,12.84.26,18.07,4.45,6,12.65,6.38,18.53,2.35,4.93-3.38,8.67-9.62,6.91-15.71-1.39-4.8-5.79-8.15-10.48-9.41-5.61-1.52-11.68-.09-15.22,4.7a1.89,1.89,0,0,0,.68,2.57,1.92,1.92,0,0,0,2.56-.67c2.1-2.86,6-3.85,9.36-3.34,3.72.58,7.17,2.51,8.89,5.69a7.84,7.84,0,0,1,.78,5,12.38,12.38,0,0,1-3.57,6.43c-3.75,3.67-10,5.34-14.21,1.49s-3.47-10.55-1.25-15.28a1.93,1.93,0,0,0-.67-2.57A1.9,1.9,0,0,0,101.57,62.47Z"/><path class="cls-2" d="M92.1,67.85a10.19,10.19,0,0,1-.66,2.7A14,14,0,0,1,90,73.16a11,11,0,0,1-4.5,4c-3.51,1.55-6.3-.76-7.54-4a18,18,0,0,1-1.17-5.72,18.45,18.45,0,0,1,.09-2.88c0-.23,0,0,0,0,0-.1,0-.19,0-.29s.07-.42.12-.63.1-.4.16-.6a2.81,2.81,0,0,1,.14-.38A5.65,5.65,0,0,1,78,61.52c-.16.21.11-.14.17-.19s.34-.35.52-.52-.07,0,.19-.16.35-.24.54-.35L79.9,60a1.07,1.07,0,0,1,.41-.18,9.52,9.52,0,0,1,4.88-.47c-.22,0,.33.06.41.08l.81.18a13,13,0,0,1,1.46.47,11.39,11.39,0,0,1,1,.48,12.89,12.89,0,0,1,1.27.8l.39.33c.16.15.33.3.49.47a3.24,3.24,0,0,1,.76,1.32,12.13,12.13,0,0,1,.28,4.33c-.13,2.41,3.62,2.41,3.75,0,.17-3.12-.06-6.39-2.49-8.64A13.78,13.78,0,0,0,87.3,56c-4.15-1-9.32-.46-12.15,3.09-3,3.72-2.46,9.72-1.12,14a13.31,13.31,0,0,0,3.66,6.15,8.62,8.62,0,0,0,7.44,1.91C91,80,95.44,73.54,95.85,67.85a1.88,1.88,0,0,0-3.75,0Z"/><path class="cls-2" d="M95.26,66.93l.65-.11-.67.09a11.17,11.17,0,0,1,2.83,0l-.67-.09a11.38,11.38,0,0,1,2.56.68A2.49,2.49,0,0,0,103,65.76a2.47,2.47,0,0,0-.25-1.92l-.39-.51a2.5,2.5,0,0,0-1.1-.64,13.29,13.29,0,0,0-7.36-.58,2.54,2.54,0,0,0-1.5,1.15,2.51,2.51,0,0,0,.9,3.42,2.8,2.8,0,0,0,1.93.25Z"/><path class="cls-2" d="M127.14,74.15h18.33c3.22,0,3.22-5,0-5H127.14c-3.22,0-3.22,5,0,5Z"/><path class="cls-3" d="M82.27,106.42c3.66-5.32,13.37-5,17-1.13s17.45,23.61-2.39,43.34c0,0-15.5-2.92-18.07-19.7S82.27,106.42,82.27,106.42Z"/><polygon class="cls-2" points="85.55 148.63 83.61 140.44 105.88 137 106.52 146.49 85.55 148.63"/><path class="cls-2" d="M151.26,79c.06.17.11.35.16.53a2.84,2.84,0,0,0,.06.31c.07.22,0-.35,0-.12s0,.31,0,.47a.88.88,0,0,0,0,.28c0-.07.08-.42,0-.17l-.11.41c-.08.28,0-.16.07-.15a2.09,2.09,0,0,0-.13.23l-.12.2c.16-.25-.13.12-.21.2a.79.79,0,0,0-.17.14c0-.06.34-.23.11-.09s-.25.17-.39.24l-.26.14c-.2.12.34-.12.11,0l-.48.16c-.19.06-.39.11-.58.15l-.28,0c-.31.07.08,0,.08,0a7.17,7.17,0,0,1-1.36.07,1.89,1.89,0,0,0-1.87,1.87,1.91,1.91,0,0,0,1.87,1.88l.34,0c-.26,0-.17,0,0,0a5.23,5.23,0,0,1,.54.12l.3.09c.26.08-.09,0-.13-.06a1,1,0,0,0,.36.2c.26.14-.24-.24-.13-.09l.13.12c.14.1-.24-.33-.14-.19a1,1,0,0,1,.08.14c.08.19-.13-.48-.08-.2a.74.74,0,0,0,0,.14c.09.21-.06-.23,0-.27s0,.15,0,.19c0,.36.12-.45,0-.09a1,1,0,0,0,0,.16c-.07.29,0-.09.08-.16a2.55,2.55,0,0,0-.17.33c-.06.09-.34.46-.13.22s-.1.11-.16.17-.23.24-.35.35-.34.23-.35.3c0-.14.31-.21.05,0l-.25.17a1.87,1.87,0,0,0,1.89,3.23c1.6-1,3.25-2.73,3.18-4.79-.1-2.7-2.77-3.65-5.06-3.83v3.75a8.33,8.33,0,0,0,5.95-2A5.56,5.56,0,0,0,154.88,78a1.88,1.88,0,1,0-3.62,1Z"/><path class="cls-2" d="M112.11,166.38a19.32,19.32,0,0,0-4.85-1.24,63.46,63.46,0,0,0-7.14-.71,39.5,39.5,0,0,0-6.79.19,10.18,10.18,0,0,0-5.24,1.8,1.9,1.9,0,0,0,0,2.65,1.92,1.92,0,0,0,2.66,0c-.55.44.74-.31.22-.1a7.39,7.39,0,0,1,.94-.31,14.52,14.52,0,0,1,2.18-.38,43.87,43.87,0,0,1,6.28-.09c2,.1,4.06.28,5.89.56.85.14,1.7.29,2.54.48.31.08.62.15.93.25s1.08.39.49.14a2,2,0,0,0,2.57-.68,1.88,1.88,0,0,0-.68-2.56Z"/><path class="cls-2" d="M112.78,177.36c-2.74-2.32-6.35-3.21-9.85-3.6a22.9,22.9,0,0,0-10.8,1.13,2,2,0,0,0-1.31,2.31,1.89,1.89,0,0,0,2.31,1.31,20.16,20.16,0,0,1,9.28-1c2.66.24,5.92,1,7.72,2.55a1.92,1.92,0,0,0,2.65,0,1.89,1.89,0,0,0,0-2.65Z"/><path class="cls-2" d="M110.18,183.58c-4.65-.17-9.69-1-14.14.81a1.94,1.94,0,0,0-1.31,2.31A1.91,1.91,0,0,0,97,188c4.08-1.67,8.73-.84,13.14-.68a1.88,1.88,0,0,0,0-3.75Z"/></g></g></svg>