<svg xmlns="http://www.w3.org/2000/svg" viewBox="0 0 289.73 710.66"><defs><style>.cls-1,.cls-3,.cls-7{fill:#fff;}.cls-2{fill:#010101;}.cls-3,.cls-6,.cls-7{stroke:#010101;stroke-linejoin:round;stroke-width:4px;}.cls-4{fill:#d1d4d9;}.cls-5{fill:#1b6492;}.cls-6{fill:none;}.cls-6,.cls-7{stroke-linecap:round;}</style></defs><title>Asset 18</title><g id="Layer_2" data-name="Layer 2"><g id="Layer_1-2" data-name="Layer 1"><path class="cls-1" d="M76.18,685.64c-1.51,12.08,2.28,20.14,13.5,21.71,9.66,1.35,20.81,1.48,29.49-3.49,8.48-4.85,14.67-13.12,21-20.37,7.61-8.76,11.59-15.89,8-27.73Z"/><path class="cls-2" d="M73.68,685.64c-.82,6.74-.23,14.56,5,19.49a18.17,18.17,0,0,0,9.15,4.44,66.93,66.93,0,0,0,13.63,1.07,43.65,43.65,0,0,0,13.56-2.2,38.58,38.58,0,0,0,12.17-7.28,88.18,88.18,0,0,0,9.41-9.72c3-3.45,6-6.85,8.78-10.47a31.07,31.07,0,0,0,5.93-11.55,27.86,27.86,0,0,0-.78-14.32c-.35-1.18-1.81-2.28-3.08-1.75l-24.4,10.13-38.64,16-8.92,3.71a2.58,2.58,0,0,0-1.75,3.07,2.52,2.52,0,0,0,3.08,1.75l24.4-10.13,38.64-16,8.92-3.71-3.07-1.75a23.22,23.22,0,0,1,1,10.71,23.87,23.87,0,0,1-4,9.1,109.7,109.7,0,0,1-7.48,9.18c-2.75,3.24-5.5,6.48-8.53,9.45a41.61,41.61,0,0,1-9.67,7.33,31.56,31.56,0,0,1-11.61,3.23,63.18,63.18,0,0,1-12.75-.2c-3.14-.34-6.25-.83-8.83-2.42a10.9,10.9,0,0,1-4.68-6.36,26.62,26.62,0,0,1-.47-10.8,2.51,2.51,0,0,0-2.5-2.5A2.56,2.56,0,0,0,73.68,685.64Z"/><path class="cls-2" d="M111,646.46c-7.24,8.71-14.8,16.58-24,23.24-4.91,3.58-11,8.44-13,14.43-2.75,8.28,5.26,12.14,12,14.17a45.38,45.38,0,0,0,27.71-.61c9.62-3.35,15-9.7,21.83-16.7,3-3,7.16-5.14,9.3-8.81,3-5.18,4.3-13.23,2.61-19C143.36,639.25,121.4,644.18,111,646.46Z"/><path class="cls-2" d="M107.8,657.54A45.07,45.07,0,0,0,115,658a12.08,12.08,0,0,1,6.79,2"/><path class="cls-1" d="M107.13,660a58.83,58.83,0,0,0,8.06.59c.27,0,.53,0,.79.06s.91.12.35,0a13.31,13.31,0,0,1,1.55.32c.29.08.58.16.86.26s.62.28.23.09a9.08,9.08,0,0,1,1.53.91,2.5,2.5,0,0,0,3.42-.89,2.59,2.59,0,0,0-.9-3.43,13.84,13.84,0,0,0-7.15-2.3c-1.27-.12-2.56-.12-3.84-.15-.62,0-1.24,0-1.86-.08-.35,0-.71-.06-1.06-.11.38.06-.56-.11-.65-.13a2.5,2.5,0,0,0-1.33,4.83Z"/><path class="cls-2" d="M100.28,665.18c1.63,0,12.39-.22,16.85,3.21"/><path class="cls-1" d="M100.28,667.68c2.4,0,4.78.06,7.16.31l.62.07c.07,0,.74.09.39,0s.32,0,.4.06l.73.12c.82.14,1.64.32,2.45.54.39.1.78.22,1.17.35l.55.19c.25.09.51.22.12,0a10.18,10.18,0,0,1,2,1.15,2.52,2.52,0,0,0,3.42-.9,2.56,2.56,0,0,0-.89-3.42c-3-2.21-7-2.8-10.55-3.2-2.52-.28-5-.31-7.57-.35a2.5,2.5,0,1,0,0,5Z"/><path class="cls-1" d="M162.29,687.64c-1.52,12.08,2.27,18.14,13.5,19.71,9.65,1.35,20.81,1.48,29.48-3.49,8.48-4.85,16.69-11.77,21-20.37,5.26-10.54.51-19.77-3.07-31.61Z"/><path class="cls-2" d="M159.79,687.64c-.76,6.24-.38,13.57,4.83,17.91a19.44,19.44,0,0,0,8.86,3.94,68.24,68.24,0,0,0,13.07,1.16,46,46,0,0,0,13.65-1.89A43.63,43.63,0,0,0,212,702.54c7.43-5.22,14.49-12.11,17.67-20.8,3.75-10.27-1.14-20.75-4.12-30.52a2.54,2.54,0,0,0-3.68-1.5l-20.68,12.15-32.69,19.2L161,685.48c-2.77,1.63-.26,5.95,2.53,4.32l20.69-12.15,32.69-19.2,7.5-4.41-3.68-1.5c1.32,4.33,2.91,8.57,4.08,12.93,1,3.67,1.7,7.6,1,11.39-1.45,8-7.59,14.53-13.71,19.41A51.82,51.82,0,0,1,202,702.73a33.14,33.14,0,0,1-11.56,2.78,65.91,65.91,0,0,1-12.32-.36,35.72,35.72,0,0,1-5-.86,14.07,14.07,0,0,1-3.54-1.35,8.73,8.73,0,0,1-2.86-2.33c-.26-.31.2.27,0-.05l-.34-.48c-.17-.26-.33-.54-.48-.81a6.18,6.18,0,0,1-.66-1.55c-1-3.19-.85-6.58-.42-10.08a2.52,2.52,0,0,0-2.5-2.5A2.55,2.55,0,0,0,159.79,687.64Z"/><path class="cls-2" d="M190.05,646.46c-7.24,8.71-10.66,18.72-17,25.24-4.22,4.38-11,8.44-13,14.43-2.74,8.28,5.27,12.14,12,14.17a45.41,45.41,0,0,0,27.72-.61c9.62-3.35,15.61-9.05,20.17-17.73,2.16-4.11,1.82-6.11,3.95-9.78,3-5.18,4.3-13.23,2.61-19C222.46,639.25,200.51,644.18,190.05,646.46Z"/><polygon class="cls-3" points="144.28 98.5 144.28 134.71 171.42 164.08 188.08 129.72 188.08 97.02 144.28 98.5"/><path class="cls-4" d="M166.08,354.66H96L108.61,647a75.72,75.72,0,0,1,18.91.69A87.17,87.17,0,0,1,146.43,653s5.62-229,19.65-229l19.65,224s9.53.31,17.07,1c10.94,1,23.75,5,23.75,5s-.29-120.11,1-158.45c1.19-35.26,8.6-140.86,8.6-140.86Z"/><path class="cls-5" d="M94,221c11-1.84-.21-7.49,0,0v0c1.91,60.93.44,132-5.34,153.2,0,0,55.08,11.92,69.64,3.33,5.09-3,7.82-4.33,7.82-4.33s1.8,4.19,7.82,6.33c15.11,5.39,72.26-6.67,72.26-6.67.2-9.09-6.23-22.12-6.57-51.43l-.36-73.87,48.89-10.32S277.47,202.59,273.84,180C270.09,156.59,233,139.51,233,139.51c-9-5.25-22.91-6.21-23.88-9.79-1.45-5.31-19.33-25.13-19.33-13.53s-23.68,39.62-23.68,39.62-23.68-28-23.68-39.62-17.88,8.22-19.33,13.53c-1.19,4.37-18.06,11.11-28.91,18v0s-14.73,7.65-18.43,11.66C62.2,174,47.64,208.75,41.84,227.46l49.29,19Z"/><path class="cls-6" d="M123.07,129.72s12.33,26.48,23.61,30.83l4.72-13.92,14.68,12.18-2,32.72-1,46.39,1,46.07v47l1,42.24"/><path class="cls-6" d="M209.09,129.72s-13.4,27.44-21,30.34l-5.57-13.67-16.43,12.42"/><path class="cls-2" d="M175.64,213.47a3.68,3.68,0,0,0-.58-.78,4.15,4.15,0,0,0-.78-.6,4,4,0,0,0-2-.57,5.11,5.11,0,0,0-.55,0,2.47,2.47,0,0,0-.53.1,3.12,3.12,0,0,0-1,.45,1.42,1.42,0,0,0-.54.49,1.52,1.52,0,0,0-.22.34,1.39,1.39,0,0,0-.49.56c-.09.22-.2.44-.27.67a4.75,4.75,0,0,0-.12.74,3.84,3.84,0,0,0,.42,2,3.82,3.82,0,0,0,.58.86,3.73,3.73,0,0,0,1.66,1.1,3.21,3.21,0,0,0,1,.17,4.23,4.23,0,0,0,.5-.05,3,3,0,0,0,.54-.1,3.63,3.63,0,0,0,.94-.43,4.12,4.12,0,0,0,1.39-1.52,3.78,3.78,0,0,0,.36-1,6.06,6.06,0,0,0,.09-.73,4.05,4.05,0,0,0-.09-.78A3.3,3.3,0,0,0,175.64,213.47Z"/><path class="cls-2" d="M175.64,258.69a3.44,3.44,0,0,0-.58-.78,3.82,3.82,0,0,0-.78-.61,4.1,4.1,0,0,0-2-.57,5.11,5.11,0,0,0-.55,0,4.94,4.94,0,0,0-.53.1,3.12,3.12,0,0,0-1,.45,1.42,1.42,0,0,0-.54.49,1.38,1.38,0,0,0-.22.35,1.36,1.36,0,0,0-.49.55,6.87,6.87,0,0,0-.27.68,4.45,4.45,0,0,0-.12.73,3.87,3.87,0,0,0,.08,1,4.06,4.06,0,0,0,.34,1,4,4,0,0,0,.58.85,3.65,3.65,0,0,0,1.66,1.1,3.21,3.21,0,0,0,1,.17,2.83,2.83,0,0,0,.5-.05,2.35,2.35,0,0,0,.54-.1,3.63,3.63,0,0,0,.94-.43A3.9,3.9,0,0,0,175,263a4.15,4.15,0,0,0,.6-.84,4,4,0,0,0,.36-1,6.06,6.06,0,0,0,.09-.73,4.15,4.15,0,0,0-.09-.78A3.13,3.13,0,0,0,175.64,258.69Z"/><path class="cls-2" d="M175.64,303.9a3.44,3.44,0,0,0-.58-.78,3.82,3.82,0,0,0-.78-.61,4.09,4.09,0,0,0-2-.56,2.56,2.56,0,0,0-.55.05,3.26,3.26,0,0,0-.53.09,2.93,2.93,0,0,0-1,.46,1.39,1.39,0,0,0-.54.48,1.59,1.59,0,0,0-.22.35,1.36,1.36,0,0,0-.49.55c-.09.22-.2.45-.27.68a4.57,4.57,0,0,0-.12.74,3.91,3.91,0,0,0,.08,1,4.15,4.15,0,0,0,.34.95,3.55,3.55,0,0,0,.58.85,3.75,3.75,0,0,0,1.66,1.11,3.2,3.2,0,0,0,1,.16,2.81,2.81,0,0,0,.5,0,4.32,4.32,0,0,0,.54-.1,3.66,3.66,0,0,0,.94-.44,3.6,3.6,0,0,0,.79-.67,3.88,3.88,0,0,0,.6-.84,4,4,0,0,0,.36-1,5.82,5.82,0,0,0,.09-.73,4,4,0,0,0-.09-.77A3.19,3.19,0,0,0,175.64,303.9Z"/><path class="cls-2" d="M176.64,349.11a3.68,3.68,0,0,0-.58-.78,3.77,3.77,0,0,0-.78-.6,4,4,0,0,0-2-.57,5.11,5.11,0,0,0-.55,0,3.26,3.26,0,0,0-.53.09,3.4,3.4,0,0,0-1,.46,1.42,1.42,0,0,0-.54.49,1.52,1.52,0,0,0-.22.34,1.43,1.43,0,0,0-.49.55c-.09.23-.2.45-.27.68a4.75,4.75,0,0,0-.12.74,3.91,3.91,0,0,0,.08,1,4,4,0,0,0,.34.95,3.89,3.89,0,0,0,2.24,2,3.52,3.52,0,0,0,1,.17,4.23,4.23,0,0,0,.5-.05,3,3,0,0,0,.54-.1,3.66,3.66,0,0,0,.94-.44,3.85,3.85,0,0,0,.79-.66,4.21,4.21,0,0,0,.6-.85,3.92,3.92,0,0,0,.36-1,6.06,6.06,0,0,0,.09-.73,4.05,4.05,0,0,0-.09-.78A3.3,3.3,0,0,0,176.64,349.11Z"/><path class="cls-2" d="M177.64,169.26a3.68,3.68,0,0,0-.58-.78,3.77,3.77,0,0,0-.78-.6,4,4,0,0,0-2-.57,2.56,2.56,0,0,0-.55.05,3.26,3.26,0,0,0-.53.09,3.15,3.15,0,0,0-1,.46,1.42,1.42,0,0,0-.54.49,1.52,1.52,0,0,0-.22.34,1.43,1.43,0,0,0-.49.55c-.09.22-.2.45-.27.68a4.57,4.57,0,0,0-.12.74,3.91,3.91,0,0,0,.08,1,4.15,4.15,0,0,0,.34,1,3.55,3.55,0,0,0,.58.85,3.75,3.75,0,0,0,1.66,1.11,3.2,3.2,0,0,0,1,.16,2.81,2.81,0,0,0,.5,0,4.32,4.32,0,0,0,.54-.1,3.66,3.66,0,0,0,.94-.44,3.85,3.85,0,0,0,.79-.66,4.21,4.21,0,0,0,.6-.85,4,4,0,0,0,.36-1,5.82,5.82,0,0,0,.09-.73,4,4,0,0,0-.09-.77A3.19,3.19,0,0,0,177.64,169.26Z"/><path class="cls-2" d="M93.74,161A70.05,70.05,0,0,1,95,168.88c.21,2.43.2,4.87.21,7.3,0,7.17-1.07,14.25-1.39,21.39-.11,2.42,3.64,2.41,3.75,0,.33-7.28,1.42-14.49,1.39-21.79A78.91,78.91,0,0,0,97.35,160c-.48-2.37-4.1-1.37-3.61,1Z"/><path class="cls-2" d="M232.87,208.47c.29,12.92,1,26,4.65,38.48.68,2.31,4.3,1.33,3.61-1-3.6-12.16-4.23-24.87-4.51-37.48-.05-2.41-3.8-2.42-3.75,0Z"/><path class="cls-1" d="M186,670.33c6-.34,12.41-.76,17.63,2.75a2.5,2.5,0,0,0,2.52-4.32c-5.94-4-13.3-3.82-20.15-3.43a2.57,2.57,0,0,0-2.5,2.5,2.52,2.52,0,0,0,2.5,2.5Z"/><path class="cls-1" d="M188.09,660.43c3.33.35,6.66,0,10,.07,2.41.08,5.17.49,7.06,2a2.58,2.58,0,0,0,3.54,0,2.51,2.51,0,0,0,0-3.53,17.17,17.17,0,0,0-9.69-3.39c-3.63-.25-7.28.27-10.91-.11a2.52,2.52,0,0,0-2.5,2.5,2.55,2.55,0,0,0,2.5,2.5Z"/><path class="cls-2" d="M207.44,390a32.46,32.46,0,0,0,13.46,24.43c2,1.41,3.84-1.84,1.9-3.24A28.44,28.44,0,0,1,211.19,390c-.14-2.39-3.89-2.41-3.75,0Z"/><path class="cls-2" d="M121.15,392.09a32.24,32.24,0,0,1-10.83,18,1.88,1.88,0,0,0,0,2.65,1.91,1.91,0,0,0,2.65,0,35.53,35.53,0,0,0,11.8-19.63c.5-2.35-3.12-3.36-3.62-1Z"/><path class="cls-2" d="M.27,161.73,14,236.67s.33,6.52,8.79,8.15,90.88,24.43,90.88,24.43,4.24,1,3.91-7.17-12-81.11-12-81.11-.65-8.14-7.49-8.47S4.5,155.24,4.5,155.24-1.3,153.14.27,161.73Z"/><path class="cls-3" d="M102.09,265.67s-28.54-13.55-33.46-15.42S61,229.62,58,228.08c-2.22-1.14-6.07,1.06-3.94,11.19s1.12,8.13,1.12,8.13a41.72,41.72,0,0,1-5.29-19.49c1.59-12.18-9.54-11.17-7.83,1.73s3,17,3,17a30.51,30.51,0,0,1-4.42-9.73c-1.62-5.79-2.38-12.34-2.79-14.22-.65-3-6.65-6.09-7.36,2.53-.3,3.67,1,8.65,2,12.15.66,2.39,2.51,8.16,3.12,9.06A79.54,79.54,0,0,1,29,227.91s-2.53-2.09-5.25-1.4c-4.17,1.06-2.09,8.53.85,14.9s9.82,21.07,16.35,22.3,19.75-1.41,25.22,2c2.29,1.41,16.21,5.42,22.21,4.72C97.19,269.36,98.16,268.49,102.09,265.67Z"/><path class="cls-2" d="M115.56,252.59h17.83a.76.76,0,0,1,.21,0l43.27,11.86a.79.79,0,0,1,.6.77v3.46a.81.81,0,0,1-.81.81L116,269.24a.81.81,0,0,1-.67-1.25l2-3.05a.81.81,0,0,0,.1-.64l-2.68-10.71A.8.8,0,0,1,115.56,252.59Z"/><path class="cls-2" d="M63.1,265.68c.41-.09.1,0-.09,0l.44,0,1-.07a18.84,18.84,0,0,0,2.91-.38,12.62,12.62,0,0,0,6.51-3.85A20.22,20.22,0,0,0,77.3,256a1.93,1.93,0,0,0-.67-2.56,1.89,1.89,0,0,0-2.57.67,24,24,0,0,1-1.3,2.52c-.2.33-.41.65-.63,1l-.28.4-.29.35a13.23,13.23,0,0,1-1.44,1.46l-.33.27c.24-.2.07-.06-.07,0s-.51.35-.78.51-.44.24-.67.36l-.33.15c-.28.14.36-.13,0,0a12.81,12.81,0,0,1-1.37.43l-.66.13-.29.05c-.39.07.11,0,.07,0l-1.14.11a17.42,17.42,0,0,0-2.4.24,1.88,1.88,0,0,0,1,3.62Z"/><path class="cls-3" d="M275.06,230.82s14.54,39.8,1.8,46.92-62.09.53-82-11.77c0,0-14.52-.62-18.89-4.57s-25,2-28.07-.28c-2.27-1.63-1.53-5.6,9.67-8.65l11.2-3.06s-14.29-.87-25.18,3.7c-12.19,5.26-15.52-2.82-1.76-7.7s20.53-6.68,20.53-6.68a51.87,51.87,0,0,0-14.48.59c-6.61,1.33-13,4.91-15.11,5.47-3.32.88-9.49-3.54-1.24-8.64a43.89,43.89,0,0,1,12.65-5.22c2.72-.56,8.92-2.65,10.13-2.5a163.62,163.62,0,0,0-21.92,2.78s-2.36.54-3.06-2.53c-1.07-4.71,7.45-6.44,15.31-6.75s26.05-1,30.62,4.93,10.53,12.46,17.74,12.55,49.18,2.64,58.1,8Z"/><polygon class="cls-5" points="250.62 245.22 252.52 249.19 289.73 242.54 288.12 237.3 283.82 222.49 264.85 232.05 250.62 245.22"/><path class="cls-7" d="M249.73,246.75s6,4.23,7.81,7.31"/><path class="cls-3" d="M114.84,58.41s.59,78.62,33.57,68.72,37.91-32.94,37.91-32.94a21.66,21.66,0,0,0,13.62-19.07c.87-14.68-10-12.36-18.07-6.6l-1.12-25.85-68.34.5Z"/><path class="cls-2" d="M109.86,59.66S99.35,52,108.14,33.84s13-25.93,13-25.93l2.32,9.73s9.48-8.82,14.18-11.1A164.84,164.84,0,0,1,154.25,0l-2.07,8.28a54.48,54.48,0,0,1,26.41,2.79c11.13,4,17.78,10.25,21.74,23,2.23,7.17,5.59,33-.7,46.11a170.05,170.05,0,0,0-9.81,26.44l-.69-13.75-3-24.23s-1.91,3.44-3.45,3.65c-.53.08-1.76,1.5-2.75,1.79a7.82,7.82,0,0,0-3.65,2.63S172.88,64.44,170.1,58c-1.84-4.3-3.34-6.63-8.27-8.78-8.22-3.58-22.08-4.17-33.75-4a74.41,74.41,0,0,0,10.57,6.19s-16.49,4.53-22.76-2c0,0,3.12,11.18,5.39,14.13C121.28,63.51,116.33,64.22,109.86,59.66Z"/><path class="cls-3" d="M186.32,94.19C208,82.18,200,64.29,192,63s-11.53,6.67-11.53,6.67a15.91,15.91,0,0,1-2,2.69"/><polygon class="cls-2" points="175.53 70.6 176.42 79.52 184.76 66.89 177.17 68.23 175.53 70.6"/><path class="cls-2" d="M117.1,65.7a9.9,9.9,0,0,1,9.27-.59c.78.33,1.55-.07,1.7-1.2a2.91,2.91,0,0,0-1.18-2.76,12.22,12.22,0,0,0-11.48.67c-.67.41-.78,1.82-.34,2.82S116.43,66.11,117.1,65.7Z"/><path class="cls-2" d="M140.64,61.6a24.72,24.72,0,0,1,15.2-2.2,2.18,2.18,0,0,0,2.23-2.09A2.22,2.22,0,0,0,156,55.08a28.66,28.66,0,0,0-17.39,2.72,2.17,2.17,0,0,0-.87,2.92A2.2,2.2,0,0,0,140.64,61.6Z"/><path class="cls-2" d="M144.44,101.51a24.69,24.69,0,0,1-14.77,4.19,2.16,2.16,0,0,0-1.93,2.36A2.22,2.22,0,0,0,130.1,110,28.69,28.69,0,0,0,147,105a2.16,2.16,0,1,0-2.54-3.49Z"/><path class="cls-2" d="M120,82.25a5,5,0,0,0,1.9-.41,2.6,2.6,0,0,0,.7-.27,3.31,3.31,0,0,0,1.46-1.73,3.2,3.2,0,0,0-1.54-3.78,3.29,3.29,0,0,0-.91-.37,3.72,3.72,0,0,0-3.39.94,4,4,0,0,0-1.16,1.8,3,3,0,0,0-.08,1.49,2.78,2.78,0,0,0,.68,1.29A3.24,3.24,0,0,0,120,82.25Z"/><path class="cls-2" d="M148.49,73.75A3.55,3.55,0,0,0,148,73a3.74,3.74,0,0,0-.68-.64,3.81,3.81,0,0,0-1.86-.72,3,3,0,0,0-.52,0,4.38,4.38,0,0,0-.51,0,3.17,3.17,0,0,0-.95.34,1.33,1.33,0,0,0-.55.42,1.21,1.21,0,0,0-.25.3,1.36,1.36,0,0,0-.5.48,5.07,5.07,0,0,0-.32.61,4.12,4.12,0,0,0-.18.69,3.5,3.5,0,0,0,0,1,3.73,3.73,0,0,0,.23.93,4,4,0,0,0,.47.86,3.49,3.49,0,0,0,1.47,1.19,3.1,3.1,0,0,0,1,.25,2.57,2.57,0,0,0,.48,0,2.94,2.94,0,0,0,.51-.05,3.3,3.3,0,0,0,.93-.32,4,4,0,0,0,.81-.56,3.85,3.85,0,0,0,.64-.75,3.73,3.73,0,0,0,.43-.9,5.52,5.52,0,0,0,.15-.68,6.06,6.06,0,0,0,0-.74A3.28,3.28,0,0,0,148.49,73.75Z"/><path class="cls-2" d="M122.16,89.06c0,.28-.07.37-.24.76a5.11,5.11,0,0,0-.45,1.52,5.25,5.25,0,0,0,.52,2.89,6.53,6.53,0,0,0,4.46,3.42,15.76,15.76,0,0,0,6.12-.11,29.74,29.74,0,0,0,6.13-1.73A1.94,1.94,0,0,0,140,93.5a1.89,1.89,0,0,0-2.31-1.31,30.4,30.4,0,0,1-5,1.53,15.16,15.16,0,0,1-4.74.4,4.15,4.15,0,0,1-1.62-.51,2.36,2.36,0,0,1-1-1.08c0-.07-.14-.43-.14-.43s0-.47,0-.22a3,3,0,0,1,.11-.4,6,6,0,0,0,.65-2.42A1.93,1.93,0,0,0,124,87.18a1.89,1.89,0,0,0-1.87,1.88Z"/><path class="cls-2" d="M135,68.87c-1.24,6-.53,13.48,4.59,17.58a12.78,12.78,0,0,0,10.07,2.65,15.15,15.15,0,0,0,9.08-5.62c3.68-4.61,5.47-11.62,1.87-16.82-2.76-4-7.6-5.93-12.34-6-5.36,0-10.91,2.59-13.09,7.72a2,2,0,0,0,.68,2.57,1.89,1.89,0,0,0,2.56-.67c2.85-6.73,12.77-7.67,17.79-3a7.64,7.64,0,0,1,2.47,4.32,11.15,11.15,0,0,1-1.06,6.72c-2.51,5.13-8.56,9.19-14.19,6.21-5.15-2.73-5.88-9.51-4.82-14.66C139.09,67.51,135.47,66.5,135,68.87Z"/><path class="cls-2" d="M127.05,76.32a7.3,7.3,0,0,1,.07,1,12.27,12.27,0,0,1-.05,1.36,14.34,14.34,0,0,1-.65,2.77,11.85,11.85,0,0,1-2.89,4.71,5.55,5.55,0,0,1-4.32,1.77,6.3,6.3,0,0,1-4.13-2.57,16.36,16.36,0,0,1-2.8-5.3,12.29,12.29,0,0,1-.82-5.44,5.27,5.27,0,0,1,2.07-3.26,9.58,9.58,0,0,1,4.5-1.68,11,11,0,0,1,5.57.73,4.58,4.58,0,0,1,2.31,2,13.25,13.25,0,0,1,1.14,4,1.89,1.89,0,0,0,2.31,1.31,1.92,1.92,0,0,0,1.31-2.31c-.56-3.06-1.55-6.14-4.41-7.77a14,14,0,0,0-6.78-1.7c-4.55,0-9.54,2-11.27,6.54a11.88,11.88,0,0,0,0,7,21.3,21.3,0,0,0,3.18,7.27,11.51,11.51,0,0,0,5.89,4.72,8.67,8.67,0,0,0,7.11-1.1c4.7-3,7.19-9.47,6.3-14.92A1.9,1.9,0,0,0,128.36,74,1.93,1.93,0,0,0,127.05,76.32Z"/><path class="cls-2" d="M130,74.59l.3-.13-.6.25a11.24,11.24,0,0,1,2.73-.73l-.67.09a11.4,11.4,0,0,1,2.86,0l-.66-.09.11,0a1.85,1.85,0,0,0,1,0,1.79,1.79,0,0,0,.93-.29,2.54,2.54,0,0,0,1.15-1.5,2.47,2.47,0,0,0-.25-1.92,2.38,2.38,0,0,0-1.49-1.15,16.51,16.51,0,0,0-2.22-.21,15.19,15.19,0,0,0-2.13.19,12.94,12.94,0,0,0-3.58,1.11,2.51,2.51,0,0,0,.6,4.57l.67.09a2.54,2.54,0,0,0,1.26-.35Z"/><path class="cls-2" d="M162.66,74.23,180.49,70a2.5,2.5,0,1,0-1.33-4.82L161.33,69.4a2.5,2.5,0,0,0,1.33,4.83Z"/><path class="cls-2" d="M185.73,74.39c.06.06.49.59.24.24l.25.38c0,.07.22.55.15.29s.06.23.07.28c.13.38,0-.35,0,0a2.81,2.81,0,0,1,0,.51s.1-.47,0,0c0,.06-.19.55-.07.27s-.12.21-.15.26-.15.23-.23.35c.27-.39-.1.11-.18.18s-.21.22-.33.33-.38.31-.12.11a5.72,5.72,0,0,1-.57.39,9.45,9.45,0,0,1-1.13.61A1.88,1.88,0,0,0,185.09,82a8.79,8.79,0,0,1,1.3-.39c.22,0,.2,0-.08,0h.26a1.45,1.45,0,0,0,.36,0c-.32,0-.38,0-.19,0l.2.05c-.3-.13-.37-.16-.2-.07l.16.09q-.39-.32-.18-.12c.12.14.08.08-.13-.18,0,0,.24.49.07.08s0,.06,0,.12c.1.25,0-.49,0,0,0,.14,0,.28,0,.42,0,.35.12-.45,0,0,0,.19-.1.75-.26.87q.17-.37,0-.09a1.63,1.63,0,0,1-.11.23c-.09.17-.18.32-.27.48a1.88,1.88,0,0,0,.67,2.56,1.91,1.91,0,0,0,2.57-.67c1-1.65,1.65-3.89.67-5.7-1.17-2.15-3.86-2-5.85-1.28l1.44,3.43a8.12,8.12,0,0,0,4.41-4.43,5.56,5.56,0,0,0-1.56-5.67,1.87,1.87,0,0,0-2.65,2.65Z"/></g></g></svg>